M48
; DRILL file {KiCad (5.1.5)-3} date 5/25/2020 21:19:59
; FORMAT={-:-/ absolute / inch / decimal}
; #@! TF.CreationDate,2020-05-25T21:19:59-04:00
; #@! TF.GenerationSoftware,Kicad,Pcbnew,(5.1.5)-3
; #@! TF.FileFunction,Plated,1,2,PTH
FMAT,2
INCH
T1C0.0157
T2C0.0276
T3C0.0579
%
G90
G05
T1
X5.215Y-3.485
X5.26Y-3.44
X5.265Y-3.395
X5.28Y-3.545
X5.3064Y-3.3536
X5.31Y-3.395
X5.32Y-3.655
X5.39Y-3.555
X5.4425Y-4.1425
X5.4771Y-3.4179
X5.54Y-3.86
X5.57Y-3.335
X5.5816Y-3.2143
X5.655Y-3.285
X5.88Y-3.185
X5.925Y-3.335
X5.9395Y-3.9895
X5.97Y-3.38
X5.975Y-3.33
X6.02Y-3.42
X6.0205Y-3.9505
X6.03Y-3.365
X6.0652Y-3.9548
X6.085Y-3.52
X6.095Y-3.385
X6.108Y-3.957
X6.1425Y-3.3825
X6.15Y-3.955
X6.195Y-3.955
X6.26Y-3.5
X6.32Y-4.455
X6.335Y-4.515
X6.375Y-5.0
X6.42Y-5.06
X6.42Y-5.36
T3
X4.4437Y-2.9937
X4.6937Y-2.8937
X2.9438Y-5.2437
X3.1938Y-5.1437
X10.4437Y-3.7437
X10.6937Y-3.6437
X4.4437Y-5.2437
X4.6937Y-5.1437
X2.9438Y-2.9937
X3.1938Y-2.8937
X8.9437Y-2.9937
X9.1937Y-2.8937
X6.6937Y-5.2437
X6.9437Y-5.1437
X8.1937Y-3.7437
X8.4437Y-3.6437
X0.6937Y-5.9937
X0.9437Y-5.8937
X2.9438Y-5.9937
X3.1938Y-5.8937
X6.6937Y-2.9937
X6.9437Y-2.8937
X8.1937Y-2.9937
X8.4437Y-2.8937
X7.4437Y-5.9937
X7.6937Y-5.8937
X1.4437Y-4.4937
X1.6937Y-4.3937
X8.1937Y-5.9937
X8.4437Y-5.8937
X1.4437Y-5.2437
X1.6937Y-5.1437
X1.4437Y-2.9937
X1.6937Y-2.8937
X10.4437Y-5.9937
X10.6937Y-5.8937
X3.6938Y-2.9937
X3.9438Y-2.8937
X10.4437Y-5.2437
X10.6937Y-5.1437
X2.1938Y-3.7437
X2.4438Y-3.6437
X8.9437Y-5.9937
X9.1937Y-5.8937
X7.4437Y-2.9937
X7.6937Y-2.8937
X4.8187Y-5.9937
X5.0687Y-5.8937
X0.6937Y-4.4937
X0.9437Y-4.3937
X9.6937Y-3.7437
X9.9437Y-3.6437
X3.6938Y-5.2437
X3.9438Y-5.1437
X6.3187Y-5.9937
X6.5687Y-5.8937
X2.1938Y-4.4937
X2.4438Y-4.3937
X8.1937Y-4.4937
X8.4437Y-4.3937
X7.4437Y-3.7437
X7.6937Y-3.6437
X0.6937Y-2.9937
X0.9437Y-2.8937
X0.6937Y-3.7437
X0.9437Y-3.6437
X9.6937Y-4.4937
X9.9437Y-4.3937
X4.4437Y-4.4937
X4.6937Y-4.3937
X3.6938Y-3.7437
X3.9438Y-3.6437
X2.1938Y-5.9937
X2.4438Y-5.8937
X8.1937Y-5.2437
X8.4437Y-5.1437
X7.4437Y-4.4937
X7.6937Y-4.3937
X1.4437Y-5.9937
X1.6937Y-5.8937
X0.6937Y-5.2437
X0.9437Y-5.1437
X10.4437Y-2.9937
X10.6937Y-2.8937
X2.9438Y-3.7437
X3.1938Y-3.6437
X9.6937Y-5.2437
X9.9437Y-5.1437
X3.6938Y-5.9937
X3.9438Y-5.8937
X2.1938Y-5.2437
X2.4438Y-5.1437
X8.9437Y-4.4937
X9.1937Y-4.3937
X6.6937Y-3.7437
X6.9437Y-3.6437
X8.9437Y-3.7437
X9.1937Y-3.6437
X1.4437Y-3.7437
X1.6937Y-3.6437
X9.6937Y-2.9937
X9.9437Y-2.8937
X10.4437Y-4.4937
X10.6937Y-4.3937
X2.9438Y-4.4937
X3.1938Y-4.3937
X9.6937Y-5.9937
X9.9437Y-5.8937
X4.4437Y-3.7437
X4.6937Y-3.6437
X3.6938Y-4.4937
X3.9438Y-4.3937
X7.4437Y-5.2437
X7.6937Y-5.1437
X6.6937Y-4.4937
X6.9437Y-4.3937
X8.9437Y-5.2437
X9.1937Y-5.1437
X2.1938Y-2.9937
X2.4438Y-2.8937
T2
G00X5.5928Y-2.7576
M15
G01X5.5928Y-2.8049
M16
G05
G00X5.5928Y-2.9348
M15
G01X5.5928Y-2.982
M16
G05
G00X5.8802Y-2.7576
M15
G01X5.8802Y-2.8049
M16
G05
G00X5.8802Y-2.9348
M15
G01X5.8802Y-2.982
M16
G05
T0
M30
