G04 #@! TF.GenerationSoftware,KiCad,Pcbnew,(5.1.5)-3*
G04 #@! TF.CreationDate,2020-05-25T21:03:39-04:00*
G04 #@! TF.ProjectId,5-12,352d3132-2e6b-4696-9361-645f70636258,rev?*
G04 #@! TF.SameCoordinates,Original*
G04 #@! TF.FileFunction,Legend,Top*
G04 #@! TF.FilePolarity,Positive*
%FSLAX46Y46*%
G04 Gerber Fmt 4.6, Leading zero omitted, Abs format (unit mm)*
G04 Created by KiCad (PCBNEW (5.1.5)-3) date 2020-05-25 21:03:39*
%MOMM*%
%LPD*%
G04 APERTURE LIST*
%ADD10C,0.750000*%
%ADD11C,0.120000*%
%ADD12C,0.150000*%
G04 APERTURE END LIST*
D10*
X137208714Y-119531000D02*
X136923000Y-119388142D01*
X136494428Y-119388142D01*
X136065857Y-119531000D01*
X135780142Y-119816714D01*
X135637285Y-120102428D01*
X135494428Y-120673857D01*
X135494428Y-121102428D01*
X135637285Y-121673857D01*
X135780142Y-121959571D01*
X136065857Y-122245285D01*
X136494428Y-122388142D01*
X136780142Y-122388142D01*
X137208714Y-122245285D01*
X137351571Y-122102428D01*
X137351571Y-121102428D01*
X136780142Y-121102428D01*
X140351571Y-122388142D02*
X139351571Y-120959571D01*
X138637285Y-122388142D02*
X138637285Y-119388142D01*
X139780142Y-119388142D01*
X140065857Y-119531000D01*
X140208714Y-119673857D01*
X140351571Y-119959571D01*
X140351571Y-120388142D01*
X140208714Y-120673857D01*
X140065857Y-120816714D01*
X139780142Y-120959571D01*
X138637285Y-120959571D01*
X141637285Y-122388142D02*
X141637285Y-119388142D01*
X143065857Y-122388142D02*
X143065857Y-119388142D01*
X143780142Y-119388142D01*
X144208714Y-119531000D01*
X144494428Y-119816714D01*
X144637285Y-120102428D01*
X144780142Y-120673857D01*
X144780142Y-121102428D01*
X144637285Y-121673857D01*
X144494428Y-121959571D01*
X144208714Y-122245285D01*
X143780142Y-122388142D01*
X143065857Y-122388142D01*
X147494428Y-122388142D02*
X146065857Y-122388142D01*
X146065857Y-119388142D01*
X149065857Y-119388142D02*
X149637285Y-119388142D01*
X149923000Y-119531000D01*
X150208714Y-119816714D01*
X150351571Y-120388142D01*
X150351571Y-121388142D01*
X150208714Y-121959571D01*
X149923000Y-122245285D01*
X149637285Y-122388142D01*
X149065857Y-122388142D01*
X148780142Y-122245285D01*
X148494428Y-121959571D01*
X148351571Y-121388142D01*
X148351571Y-120388142D01*
X148494428Y-119816714D01*
X148780142Y-119531000D01*
X149065857Y-119388142D01*
X153351571Y-122102428D02*
X153208714Y-122245285D01*
X152780142Y-122388142D01*
X152494428Y-122388142D01*
X152065857Y-122245285D01*
X151780142Y-121959571D01*
X151637285Y-121673857D01*
X151494428Y-121102428D01*
X151494428Y-120673857D01*
X151637285Y-120102428D01*
X151780142Y-119816714D01*
X152065857Y-119531000D01*
X152494428Y-119388142D01*
X152780142Y-119388142D01*
X153208714Y-119531000D01*
X153351571Y-119673857D01*
X154637285Y-122388142D02*
X154637285Y-119388142D01*
X156351571Y-122388142D02*
X155065857Y-120673857D01*
X156351571Y-119388142D02*
X154637285Y-121102428D01*
D11*
X137123513Y-102187940D02*
X139951940Y-99359513D01*
X134790060Y-99854487D02*
X137123513Y-102187940D01*
D12*
X149556250Y-70643750D02*
X149556250Y-76093750D01*
X141856250Y-70643750D02*
X141856250Y-76093750D01*
X149556250Y-76093750D02*
X141856250Y-76093750D01*
X145706914Y-84496281D02*
X144805352Y-83594720D01*
X153432055Y-91408250D02*
X152954758Y-90930953D01*
X146113500Y-98726805D02*
X145636203Y-98249508D01*
X138794945Y-91408250D02*
X139272242Y-91885547D01*
X146113500Y-84089695D02*
X146590797Y-84566992D01*
X138794945Y-91408250D02*
X139272242Y-90930953D01*
X146113500Y-98726805D02*
X146590797Y-98249508D01*
X153432055Y-91408250D02*
X152954758Y-91885547D01*
X146113500Y-84089695D02*
X145706914Y-84496281D01*
X132961000Y-70497000D02*
X138161000Y-70497000D01*
X138161000Y-70497000D02*
X138161000Y-75697000D01*
X138161000Y-75697000D02*
X132961000Y-75697000D01*
X132961000Y-75697000D02*
X132961000Y-70497000D01*
X136561000Y-73097000D02*
G75*
G03X136561000Y-73097000I-1000000J0D01*
G01*
D11*
X155509796Y-92660112D02*
X155144112Y-93025796D01*
X156513888Y-93664204D02*
X156148204Y-94029888D01*
X132544078Y-77776000D02*
X132026922Y-77776000D01*
X132544078Y-79196000D02*
X132026922Y-79196000D01*
X145744000Y-79331078D02*
X145744000Y-78813922D01*
X144324000Y-79331078D02*
X144324000Y-78813922D01*
X147903000Y-79379578D02*
X147903000Y-78862422D01*
X146483000Y-79379578D02*
X146483000Y-78862422D01*
X150527936Y-80031000D02*
X151732064Y-80031000D01*
X150527936Y-78211000D02*
X151732064Y-78211000D01*
X159750000Y-135546000D02*
X159750000Y-139446000D01*
X157750000Y-135546000D02*
X157750000Y-139446000D01*
X159750000Y-135546000D02*
X157750000Y-135546000D01*
X147685000Y-127924000D02*
X147685000Y-131824000D01*
X145685000Y-127924000D02*
X145685000Y-131824000D01*
X147685000Y-127924000D02*
X145685000Y-127924000D01*
X157750000Y-127600000D02*
X157750000Y-123700000D01*
X159750000Y-127600000D02*
X159750000Y-123700000D01*
X157750000Y-127600000D02*
X159750000Y-127600000D01*
X147685000Y-114082000D02*
X147685000Y-117982000D01*
X145685000Y-114082000D02*
X145685000Y-117982000D01*
X147685000Y-114082000D02*
X145685000Y-114082000D01*
X157750000Y-113757000D02*
X157750000Y-109857000D01*
X159750000Y-113757000D02*
X159750000Y-109857000D01*
X157750000Y-113757000D02*
X159750000Y-113757000D01*
X157337000Y-135546000D02*
X157337000Y-139446000D01*
X155337000Y-135546000D02*
X155337000Y-139446000D01*
X157337000Y-135546000D02*
X155337000Y-135546000D01*
X150098000Y-127924000D02*
X150098000Y-131824000D01*
X148098000Y-127924000D02*
X148098000Y-131824000D01*
X150098000Y-127924000D02*
X148098000Y-127924000D01*
X155337000Y-127600000D02*
X155337000Y-123700000D01*
X157337000Y-127600000D02*
X157337000Y-123700000D01*
X155337000Y-127600000D02*
X157337000Y-127600000D01*
X150098000Y-114082000D02*
X150098000Y-117982000D01*
X148098000Y-114082000D02*
X148098000Y-117982000D01*
X150098000Y-114082000D02*
X148098000Y-114082000D01*
X155337000Y-113757000D02*
X155337000Y-109857000D01*
X157337000Y-113757000D02*
X157337000Y-109857000D01*
X155337000Y-113757000D02*
X157337000Y-113757000D01*
X154924000Y-135546000D02*
X154924000Y-139446000D01*
X152924000Y-135546000D02*
X152924000Y-139446000D01*
X154924000Y-135546000D02*
X152924000Y-135546000D01*
X152511000Y-127924000D02*
X152511000Y-131824000D01*
X150511000Y-127924000D02*
X150511000Y-131824000D01*
X152511000Y-127924000D02*
X150511000Y-127924000D01*
X152924000Y-127600000D02*
X152924000Y-123700000D01*
X154924000Y-127600000D02*
X154924000Y-123700000D01*
X152924000Y-127600000D02*
X154924000Y-127600000D01*
X152511000Y-114082000D02*
X152511000Y-117982000D01*
X150511000Y-114082000D02*
X150511000Y-117982000D01*
X152511000Y-114082000D02*
X150511000Y-114082000D01*
X152924000Y-113757000D02*
X152924000Y-109857000D01*
X154924000Y-113757000D02*
X154924000Y-109857000D01*
X152924000Y-113757000D02*
X154924000Y-113757000D01*
X152511000Y-135544000D02*
X152511000Y-139444000D01*
X150511000Y-135544000D02*
X150511000Y-139444000D01*
X152511000Y-135544000D02*
X150511000Y-135544000D01*
X154924000Y-127924000D02*
X154924000Y-131824000D01*
X152924000Y-127924000D02*
X152924000Y-131824000D01*
X154924000Y-127924000D02*
X152924000Y-127924000D01*
X150511000Y-127600000D02*
X150511000Y-123700000D01*
X152511000Y-127600000D02*
X152511000Y-123700000D01*
X150511000Y-127600000D02*
X152511000Y-127600000D01*
X154924000Y-114083000D02*
X154924000Y-117983000D01*
X152924000Y-114083000D02*
X152924000Y-117983000D01*
X154924000Y-114083000D02*
X152924000Y-114083000D01*
X150511000Y-113757000D02*
X150511000Y-109857000D01*
X152511000Y-113757000D02*
X152511000Y-109857000D01*
X150511000Y-113757000D02*
X152511000Y-113757000D01*
X150098000Y-135544000D02*
X150098000Y-139444000D01*
X148098000Y-135544000D02*
X148098000Y-139444000D01*
X150098000Y-135544000D02*
X148098000Y-135544000D01*
X157337000Y-127924000D02*
X157337000Y-131824000D01*
X155337000Y-127924000D02*
X155337000Y-131824000D01*
X157337000Y-127924000D02*
X155337000Y-127924000D01*
X148098000Y-127600000D02*
X148098000Y-123700000D01*
X150098000Y-127600000D02*
X150098000Y-123700000D01*
X148098000Y-127600000D02*
X150098000Y-127600000D01*
X157337000Y-114082000D02*
X157337000Y-117982000D01*
X155337000Y-114082000D02*
X155337000Y-117982000D01*
X157337000Y-114082000D02*
X155337000Y-114082000D01*
X148098000Y-113756000D02*
X148098000Y-109856000D01*
X150098000Y-113756000D02*
X150098000Y-109856000D01*
X148098000Y-113756000D02*
X150098000Y-113756000D01*
X147685000Y-135544000D02*
X147685000Y-139444000D01*
X145685000Y-135544000D02*
X145685000Y-139444000D01*
X147685000Y-135544000D02*
X145685000Y-135544000D01*
X159750000Y-127924000D02*
X159750000Y-131824000D01*
X157750000Y-127924000D02*
X157750000Y-131824000D01*
X159750000Y-127924000D02*
X157750000Y-127924000D01*
X145685000Y-127600000D02*
X145685000Y-123700000D01*
X147685000Y-127600000D02*
X147685000Y-123700000D01*
X145685000Y-127600000D02*
X147685000Y-127600000D01*
X159750000Y-114083000D02*
X159750000Y-117983000D01*
X157750000Y-114083000D02*
X157750000Y-117983000D01*
X159750000Y-114083000D02*
X157750000Y-114083000D01*
X145685000Y-113757000D02*
X145685000Y-109857000D01*
X147685000Y-113757000D02*
X147685000Y-109857000D01*
X145685000Y-113757000D02*
X147685000Y-113757000D01*
X145272000Y-135546000D02*
X145272000Y-139446000D01*
X143272000Y-135546000D02*
X143272000Y-139446000D01*
X145272000Y-135546000D02*
X143272000Y-135546000D01*
X133207000Y-127926000D02*
X133207000Y-131826000D01*
X131207000Y-127926000D02*
X131207000Y-131826000D01*
X133207000Y-127926000D02*
X131207000Y-127926000D01*
X143272000Y-127600000D02*
X143272000Y-123700000D01*
X145272000Y-127600000D02*
X145272000Y-123700000D01*
X143272000Y-127600000D02*
X145272000Y-127600000D01*
X133207000Y-114082000D02*
X133207000Y-117982000D01*
X131207000Y-114082000D02*
X131207000Y-117982000D01*
X133207000Y-114082000D02*
X131207000Y-114082000D01*
X143272000Y-113757000D02*
X143272000Y-109857000D01*
X145272000Y-113757000D02*
X145272000Y-109857000D01*
X143272000Y-113757000D02*
X145272000Y-113757000D01*
X142859000Y-135544000D02*
X142859000Y-139444000D01*
X140859000Y-135544000D02*
X140859000Y-139444000D01*
X142859000Y-135544000D02*
X140859000Y-135544000D01*
X135620000Y-127926000D02*
X135620000Y-131826000D01*
X133620000Y-127926000D02*
X133620000Y-131826000D01*
X135620000Y-127926000D02*
X133620000Y-127926000D01*
X140859000Y-127600000D02*
X140859000Y-123700000D01*
X142859000Y-127600000D02*
X142859000Y-123700000D01*
X140859000Y-127600000D02*
X142859000Y-127600000D01*
X135620000Y-114082000D02*
X135620000Y-117982000D01*
X133620000Y-114082000D02*
X133620000Y-117982000D01*
X135620000Y-114082000D02*
X133620000Y-114082000D01*
X140859000Y-113757000D02*
X140859000Y-109857000D01*
X142859000Y-113757000D02*
X142859000Y-109857000D01*
X140859000Y-113757000D02*
X142859000Y-113757000D01*
X140446000Y-135544000D02*
X140446000Y-139444000D01*
X138446000Y-135544000D02*
X138446000Y-139444000D01*
X140446000Y-135544000D02*
X138446000Y-135544000D01*
X138033000Y-127926000D02*
X138033000Y-131826000D01*
X136033000Y-127926000D02*
X136033000Y-131826000D01*
X138033000Y-127926000D02*
X136033000Y-127926000D01*
X138446000Y-127600000D02*
X138446000Y-123700000D01*
X140446000Y-127600000D02*
X140446000Y-123700000D01*
X138446000Y-127600000D02*
X140446000Y-127600000D01*
X138033000Y-114082000D02*
X138033000Y-117982000D01*
X136033000Y-114082000D02*
X136033000Y-117982000D01*
X138033000Y-114082000D02*
X136033000Y-114082000D01*
X138446000Y-113757000D02*
X138446000Y-109857000D01*
X140446000Y-113757000D02*
X140446000Y-109857000D01*
X138446000Y-113757000D02*
X140446000Y-113757000D01*
X138033000Y-135544000D02*
X138033000Y-139444000D01*
X136033000Y-135544000D02*
X136033000Y-139444000D01*
X138033000Y-135544000D02*
X136033000Y-135544000D01*
X140446000Y-127926000D02*
X140446000Y-131826000D01*
X138446000Y-127926000D02*
X138446000Y-131826000D01*
X140446000Y-127926000D02*
X138446000Y-127926000D01*
X136033000Y-127600000D02*
X136033000Y-123700000D01*
X138033000Y-127600000D02*
X138033000Y-123700000D01*
X136033000Y-127600000D02*
X138033000Y-127600000D01*
X140446000Y-114082000D02*
X140446000Y-117982000D01*
X138446000Y-114082000D02*
X138446000Y-117982000D01*
X140446000Y-114082000D02*
X138446000Y-114082000D01*
X136033000Y-113757000D02*
X136033000Y-109857000D01*
X138033000Y-113757000D02*
X138033000Y-109857000D01*
X136033000Y-113757000D02*
X138033000Y-113757000D01*
X135620000Y-135544000D02*
X135620000Y-139444000D01*
X133620000Y-135544000D02*
X133620000Y-139444000D01*
X135620000Y-135544000D02*
X133620000Y-135544000D01*
X142859000Y-127926000D02*
X142859000Y-131826000D01*
X140859000Y-127926000D02*
X140859000Y-131826000D01*
X142859000Y-127926000D02*
X140859000Y-127926000D01*
X133620000Y-127600000D02*
X133620000Y-123700000D01*
X135620000Y-127600000D02*
X135620000Y-123700000D01*
X133620000Y-127600000D02*
X135620000Y-127600000D01*
X142859000Y-114082000D02*
X142859000Y-117982000D01*
X140859000Y-114082000D02*
X140859000Y-117982000D01*
X142859000Y-114082000D02*
X140859000Y-114082000D01*
X133620000Y-113757000D02*
X133620000Y-109857000D01*
X135620000Y-113757000D02*
X135620000Y-109857000D01*
X133620000Y-113757000D02*
X135620000Y-113757000D01*
X133207000Y-135544000D02*
X133207000Y-139444000D01*
X131207000Y-135544000D02*
X131207000Y-139444000D01*
X133207000Y-135544000D02*
X131207000Y-135544000D01*
X145272000Y-127924000D02*
X145272000Y-131824000D01*
X143272000Y-127924000D02*
X143272000Y-131824000D01*
X145272000Y-127924000D02*
X143272000Y-127924000D01*
X131207000Y-127600000D02*
X131207000Y-123700000D01*
X133207000Y-127600000D02*
X133207000Y-123700000D01*
X131207000Y-127600000D02*
X133207000Y-127600000D01*
X145272000Y-114083000D02*
X145272000Y-117983000D01*
X143272000Y-114083000D02*
X143272000Y-117983000D01*
X145272000Y-114083000D02*
X143272000Y-114083000D01*
X131207000Y-113757000D02*
X131207000Y-109857000D01*
X133207000Y-113757000D02*
X133207000Y-109857000D01*
X131207000Y-113757000D02*
X133207000Y-113757000D01*
X138241204Y-83234888D02*
X138606888Y-82869204D01*
X137237112Y-82230796D02*
X137602796Y-81865112D01*
X156144796Y-87199112D02*
X155779112Y-87564796D01*
X157148888Y-88203204D02*
X156783204Y-88568888D01*
X136193199Y-94906291D02*
X136558883Y-95271975D01*
X137197291Y-93902199D02*
X137562975Y-94267883D01*
X134272883Y-96371025D02*
X133907199Y-96736709D01*
X135276975Y-97375117D02*
X134911291Y-97740801D01*
X140626291Y-103201801D02*
X140991975Y-102836117D01*
X139622199Y-102197709D02*
X139987883Y-101832025D01*
X140043709Y-82980199D02*
X139678025Y-83345883D01*
X141047801Y-83984291D02*
X140682117Y-84349975D01*
X149274888Y-100268204D02*
X148909204Y-100633888D01*
X148270796Y-99264112D02*
X147905112Y-99629796D01*
D12*
X135285034Y-98194469D02*
X135621752Y-98531187D01*
X134678943Y-98059782D02*
X135285034Y-98194469D01*
X135150347Y-97588378D01*
X136463545Y-97689393D02*
X136059484Y-98093454D01*
X136261515Y-97891423D02*
X135554408Y-97184317D01*
X135588080Y-97352675D01*
X135588080Y-97487362D01*
X135554408Y-97588378D01*
X143968154Y-72128130D02*
X143968154Y-72937654D01*
X144015773Y-73032892D01*
X144063392Y-73080511D01*
X144158630Y-73128130D01*
X144349107Y-73128130D01*
X144444345Y-73080511D01*
X144491964Y-73032892D01*
X144539583Y-72937654D01*
X144539583Y-72128130D01*
X144968154Y-73080511D02*
X145111011Y-73128130D01*
X145349107Y-73128130D01*
X145444345Y-73080511D01*
X145491964Y-73032892D01*
X145539583Y-72937654D01*
X145539583Y-72842416D01*
X145491964Y-72747178D01*
X145444345Y-72699559D01*
X145349107Y-72651940D01*
X145158630Y-72604321D01*
X145063392Y-72556702D01*
X145015773Y-72509083D01*
X144968154Y-72413845D01*
X144968154Y-72318607D01*
X145015773Y-72223369D01*
X145063392Y-72175750D01*
X145158630Y-72128130D01*
X145396726Y-72128130D01*
X145539583Y-72175750D01*
X146301488Y-72604321D02*
X146444345Y-72651940D01*
X146491964Y-72699559D01*
X146539583Y-72794797D01*
X146539583Y-72937654D01*
X146491964Y-73032892D01*
X146444345Y-73080511D01*
X146349107Y-73128130D01*
X145968154Y-73128130D01*
X145968154Y-72128130D01*
X146301488Y-72128130D01*
X146396726Y-72175750D01*
X146444345Y-72223369D01*
X146491964Y-72318607D01*
X146491964Y-72413845D01*
X146444345Y-72509083D01*
X146396726Y-72556702D01*
X146301488Y-72604321D01*
X145968154Y-72604321D01*
X147491964Y-73128130D02*
X146920535Y-73128130D01*
X147206250Y-73128130D02*
X147206250Y-72128130D01*
X147111011Y-72270988D01*
X147015773Y-72366226D01*
X146920535Y-72413845D01*
X151229923Y-85214330D02*
X150657503Y-85786750D01*
X150623831Y-85887765D01*
X150623831Y-85955109D01*
X150657503Y-86056124D01*
X150792190Y-86190811D01*
X150893205Y-86224483D01*
X150960549Y-86224483D01*
X151061564Y-86190811D01*
X151633984Y-85618391D01*
X151633984Y-87032605D02*
X151229923Y-86628544D01*
X151431953Y-86830574D02*
X152139060Y-86123468D01*
X151970701Y-86157139D01*
X151836014Y-86157139D01*
X151734999Y-86123468D01*
X134227666Y-77565761D02*
X134370523Y-77613380D01*
X134608619Y-77613380D01*
X134703857Y-77565761D01*
X134751476Y-77518142D01*
X134799095Y-77422904D01*
X134799095Y-77327666D01*
X134751476Y-77232428D01*
X134703857Y-77184809D01*
X134608619Y-77137190D01*
X134418142Y-77089571D01*
X134322904Y-77041952D01*
X134275285Y-76994333D01*
X134227666Y-76899095D01*
X134227666Y-76803857D01*
X134275285Y-76708619D01*
X134322904Y-76661000D01*
X134418142Y-76613380D01*
X134656238Y-76613380D01*
X134799095Y-76661000D01*
X135132428Y-76613380D02*
X135370523Y-77613380D01*
X135561000Y-76899095D01*
X135751476Y-77613380D01*
X135989571Y-76613380D01*
X136894333Y-77613380D02*
X136322904Y-77613380D01*
X136608619Y-77613380D02*
X136608619Y-76613380D01*
X136513380Y-76756238D01*
X136418142Y-76851476D01*
X136322904Y-76899095D01*
X157197756Y-94949458D02*
X156625336Y-94848443D01*
X156793695Y-95353519D02*
X156086588Y-94646413D01*
X156355962Y-94377038D01*
X156456977Y-94343367D01*
X156524321Y-94343367D01*
X156625336Y-94377038D01*
X156726351Y-94478054D01*
X156760023Y-94579069D01*
X156760023Y-94646413D01*
X156726351Y-94747428D01*
X156456977Y-95016802D01*
X157332443Y-93871962D02*
X157803848Y-94343367D01*
X156894710Y-93770947D02*
X157231428Y-94444382D01*
X157669161Y-94006649D01*
X132118833Y-80588380D02*
X131785500Y-80112190D01*
X131547404Y-80588380D02*
X131547404Y-79588380D01*
X131928357Y-79588380D01*
X132023595Y-79636000D01*
X132071214Y-79683619D01*
X132118833Y-79778857D01*
X132118833Y-79921714D01*
X132071214Y-80016952D01*
X132023595Y-80064571D01*
X131928357Y-80112190D01*
X131547404Y-80112190D01*
X132452166Y-79588380D02*
X133071214Y-79588380D01*
X132737880Y-79969333D01*
X132880738Y-79969333D01*
X132975976Y-80016952D01*
X133023595Y-80064571D01*
X133071214Y-80159809D01*
X133071214Y-80397904D01*
X133023595Y-80493142D01*
X132975976Y-80540761D01*
X132880738Y-80588380D01*
X132595023Y-80588380D01*
X132499785Y-80540761D01*
X132452166Y-80493142D01*
X143836380Y-79239166D02*
X143360190Y-79572500D01*
X143836380Y-79810595D02*
X142836380Y-79810595D01*
X142836380Y-79429642D01*
X142884000Y-79334404D01*
X142931619Y-79286785D01*
X143026857Y-79239166D01*
X143169714Y-79239166D01*
X143264952Y-79286785D01*
X143312571Y-79334404D01*
X143360190Y-79429642D01*
X143360190Y-79810595D01*
X142931619Y-78858214D02*
X142884000Y-78810595D01*
X142836380Y-78715357D01*
X142836380Y-78477261D01*
X142884000Y-78382023D01*
X142931619Y-78334404D01*
X143026857Y-78286785D01*
X143122095Y-78286785D01*
X143264952Y-78334404D01*
X143836380Y-78905833D01*
X143836380Y-78286785D01*
X145995380Y-79287666D02*
X145519190Y-79621000D01*
X145995380Y-79859095D02*
X144995380Y-79859095D01*
X144995380Y-79478142D01*
X145043000Y-79382904D01*
X145090619Y-79335285D01*
X145185857Y-79287666D01*
X145328714Y-79287666D01*
X145423952Y-79335285D01*
X145471571Y-79382904D01*
X145519190Y-79478142D01*
X145519190Y-79859095D01*
X145995380Y-78335285D02*
X145995380Y-78906714D01*
X145995380Y-78621000D02*
X144995380Y-78621000D01*
X145138238Y-78716238D01*
X145233476Y-78811476D01*
X145281095Y-78906714D01*
X150796666Y-77229571D02*
X150463333Y-77229571D01*
X150463333Y-77753380D02*
X150463333Y-76753380D01*
X150939523Y-76753380D01*
X151844285Y-77753380D02*
X151272857Y-77753380D01*
X151558571Y-77753380D02*
X151558571Y-76753380D01*
X151463333Y-76896238D01*
X151368095Y-76991476D01*
X151272857Y-77039095D01*
X161202380Y-139010285D02*
X160202380Y-139010285D01*
X160202380Y-138772190D01*
X160250000Y-138629333D01*
X160345238Y-138534095D01*
X160440476Y-138486476D01*
X160630952Y-138438857D01*
X160773809Y-138438857D01*
X160964285Y-138486476D01*
X161059523Y-138534095D01*
X161154761Y-138629333D01*
X161202380Y-138772190D01*
X161202380Y-139010285D01*
X160202380Y-137581714D02*
X160202380Y-137772190D01*
X160250000Y-137867428D01*
X160297619Y-137915047D01*
X160440476Y-138010285D01*
X160630952Y-138057904D01*
X161011904Y-138057904D01*
X161107142Y-138010285D01*
X161154761Y-137962666D01*
X161202380Y-137867428D01*
X161202380Y-137676952D01*
X161154761Y-137581714D01*
X161107142Y-137534095D01*
X161011904Y-137486476D01*
X160773809Y-137486476D01*
X160678571Y-137534095D01*
X160630952Y-137581714D01*
X160583333Y-137676952D01*
X160583333Y-137867428D01*
X160630952Y-137962666D01*
X160678571Y-138010285D01*
X160773809Y-138057904D01*
X160202380Y-136867428D02*
X160202380Y-136772190D01*
X160250000Y-136676952D01*
X160297619Y-136629333D01*
X160392857Y-136581714D01*
X160583333Y-136534095D01*
X160821428Y-136534095D01*
X161011904Y-136581714D01*
X161107142Y-136629333D01*
X161154761Y-136676952D01*
X161202380Y-136772190D01*
X161202380Y-136867428D01*
X161154761Y-136962666D01*
X161107142Y-137010285D01*
X161011904Y-137057904D01*
X160821428Y-137105523D01*
X160583333Y-137105523D01*
X160392857Y-137057904D01*
X160297619Y-137010285D01*
X160250000Y-136962666D01*
X160202380Y-136867428D01*
X149137380Y-131388285D02*
X148137380Y-131388285D01*
X148137380Y-131150190D01*
X148185000Y-131007333D01*
X148280238Y-130912095D01*
X148375476Y-130864476D01*
X148565952Y-130816857D01*
X148708809Y-130816857D01*
X148899285Y-130864476D01*
X148994523Y-130912095D01*
X149089761Y-131007333D01*
X149137380Y-131150190D01*
X149137380Y-131388285D01*
X148137380Y-129912095D02*
X148137380Y-130388285D01*
X148613571Y-130435904D01*
X148565952Y-130388285D01*
X148518333Y-130293047D01*
X148518333Y-130054952D01*
X148565952Y-129959714D01*
X148613571Y-129912095D01*
X148708809Y-129864476D01*
X148946904Y-129864476D01*
X149042142Y-129912095D01*
X149089761Y-129959714D01*
X149137380Y-130054952D01*
X149137380Y-130293047D01*
X149089761Y-130388285D01*
X149042142Y-130435904D01*
X149137380Y-129388285D02*
X149137380Y-129197809D01*
X149089761Y-129102571D01*
X149042142Y-129054952D01*
X148899285Y-128959714D01*
X148708809Y-128912095D01*
X148327857Y-128912095D01*
X148232619Y-128959714D01*
X148185000Y-129007333D01*
X148137380Y-129102571D01*
X148137380Y-129293047D01*
X148185000Y-129388285D01*
X148232619Y-129435904D01*
X148327857Y-129483523D01*
X148565952Y-129483523D01*
X148661190Y-129435904D01*
X148708809Y-129388285D01*
X148756428Y-129293047D01*
X148756428Y-129102571D01*
X148708809Y-129007333D01*
X148661190Y-128959714D01*
X148565952Y-128912095D01*
X157202380Y-126564285D02*
X156202380Y-126564285D01*
X156202380Y-126326190D01*
X156250000Y-126183333D01*
X156345238Y-126088095D01*
X156440476Y-126040476D01*
X156630952Y-125992857D01*
X156773809Y-125992857D01*
X156964285Y-126040476D01*
X157059523Y-126088095D01*
X157154761Y-126183333D01*
X157202380Y-126326190D01*
X157202380Y-126564285D01*
X156202380Y-125088095D02*
X156202380Y-125564285D01*
X156678571Y-125611904D01*
X156630952Y-125564285D01*
X156583333Y-125469047D01*
X156583333Y-125230952D01*
X156630952Y-125135714D01*
X156678571Y-125088095D01*
X156773809Y-125040476D01*
X157011904Y-125040476D01*
X157107142Y-125088095D01*
X157154761Y-125135714D01*
X157202380Y-125230952D01*
X157202380Y-125469047D01*
X157154761Y-125564285D01*
X157107142Y-125611904D01*
X156630952Y-124469047D02*
X156583333Y-124564285D01*
X156535714Y-124611904D01*
X156440476Y-124659523D01*
X156392857Y-124659523D01*
X156297619Y-124611904D01*
X156250000Y-124564285D01*
X156202380Y-124469047D01*
X156202380Y-124278571D01*
X156250000Y-124183333D01*
X156297619Y-124135714D01*
X156392857Y-124088095D01*
X156440476Y-124088095D01*
X156535714Y-124135714D01*
X156583333Y-124183333D01*
X156630952Y-124278571D01*
X156630952Y-124469047D01*
X156678571Y-124564285D01*
X156726190Y-124611904D01*
X156821428Y-124659523D01*
X157011904Y-124659523D01*
X157107142Y-124611904D01*
X157154761Y-124564285D01*
X157202380Y-124469047D01*
X157202380Y-124278571D01*
X157154761Y-124183333D01*
X157107142Y-124135714D01*
X157011904Y-124088095D01*
X156821428Y-124088095D01*
X156726190Y-124135714D01*
X156678571Y-124183333D01*
X156630952Y-124278571D01*
X149137380Y-117546285D02*
X148137380Y-117546285D01*
X148137380Y-117308190D01*
X148185000Y-117165333D01*
X148280238Y-117070095D01*
X148375476Y-117022476D01*
X148565952Y-116974857D01*
X148708809Y-116974857D01*
X148899285Y-117022476D01*
X148994523Y-117070095D01*
X149089761Y-117165333D01*
X149137380Y-117308190D01*
X149137380Y-117546285D01*
X148137380Y-116070095D02*
X148137380Y-116546285D01*
X148613571Y-116593904D01*
X148565952Y-116546285D01*
X148518333Y-116451047D01*
X148518333Y-116212952D01*
X148565952Y-116117714D01*
X148613571Y-116070095D01*
X148708809Y-116022476D01*
X148946904Y-116022476D01*
X149042142Y-116070095D01*
X149089761Y-116117714D01*
X149137380Y-116212952D01*
X149137380Y-116451047D01*
X149089761Y-116546285D01*
X149042142Y-116593904D01*
X148137380Y-115689142D02*
X148137380Y-115022476D01*
X149137380Y-115451047D01*
X157202380Y-112721285D02*
X156202380Y-112721285D01*
X156202380Y-112483190D01*
X156250000Y-112340333D01*
X156345238Y-112245095D01*
X156440476Y-112197476D01*
X156630952Y-112149857D01*
X156773809Y-112149857D01*
X156964285Y-112197476D01*
X157059523Y-112245095D01*
X157154761Y-112340333D01*
X157202380Y-112483190D01*
X157202380Y-112721285D01*
X156202380Y-111245095D02*
X156202380Y-111721285D01*
X156678571Y-111768904D01*
X156630952Y-111721285D01*
X156583333Y-111626047D01*
X156583333Y-111387952D01*
X156630952Y-111292714D01*
X156678571Y-111245095D01*
X156773809Y-111197476D01*
X157011904Y-111197476D01*
X157107142Y-111245095D01*
X157154761Y-111292714D01*
X157202380Y-111387952D01*
X157202380Y-111626047D01*
X157154761Y-111721285D01*
X157107142Y-111768904D01*
X156202380Y-110340333D02*
X156202380Y-110530809D01*
X156250000Y-110626047D01*
X156297619Y-110673666D01*
X156440476Y-110768904D01*
X156630952Y-110816523D01*
X157011904Y-110816523D01*
X157107142Y-110768904D01*
X157154761Y-110721285D01*
X157202380Y-110626047D01*
X157202380Y-110435571D01*
X157154761Y-110340333D01*
X157107142Y-110292714D01*
X157011904Y-110245095D01*
X156773809Y-110245095D01*
X156678571Y-110292714D01*
X156630952Y-110340333D01*
X156583333Y-110435571D01*
X156583333Y-110626047D01*
X156630952Y-110721285D01*
X156678571Y-110768904D01*
X156773809Y-110816523D01*
X158789380Y-139010285D02*
X157789380Y-139010285D01*
X157789380Y-138772190D01*
X157837000Y-138629333D01*
X157932238Y-138534095D01*
X158027476Y-138486476D01*
X158217952Y-138438857D01*
X158360809Y-138438857D01*
X158551285Y-138486476D01*
X158646523Y-138534095D01*
X158741761Y-138629333D01*
X158789380Y-138772190D01*
X158789380Y-139010285D01*
X157789380Y-137534095D02*
X157789380Y-138010285D01*
X158265571Y-138057904D01*
X158217952Y-138010285D01*
X158170333Y-137915047D01*
X158170333Y-137676952D01*
X158217952Y-137581714D01*
X158265571Y-137534095D01*
X158360809Y-137486476D01*
X158598904Y-137486476D01*
X158694142Y-137534095D01*
X158741761Y-137581714D01*
X158789380Y-137676952D01*
X158789380Y-137915047D01*
X158741761Y-138010285D01*
X158694142Y-138057904D01*
X157789380Y-136581714D02*
X157789380Y-137057904D01*
X158265571Y-137105523D01*
X158217952Y-137057904D01*
X158170333Y-136962666D01*
X158170333Y-136724571D01*
X158217952Y-136629333D01*
X158265571Y-136581714D01*
X158360809Y-136534095D01*
X158598904Y-136534095D01*
X158694142Y-136581714D01*
X158741761Y-136629333D01*
X158789380Y-136724571D01*
X158789380Y-136962666D01*
X158741761Y-137057904D01*
X158694142Y-137105523D01*
X151550380Y-131388285D02*
X150550380Y-131388285D01*
X150550380Y-131150190D01*
X150598000Y-131007333D01*
X150693238Y-130912095D01*
X150788476Y-130864476D01*
X150978952Y-130816857D01*
X151121809Y-130816857D01*
X151312285Y-130864476D01*
X151407523Y-130912095D01*
X151502761Y-131007333D01*
X151550380Y-131150190D01*
X151550380Y-131388285D01*
X150550380Y-129912095D02*
X150550380Y-130388285D01*
X151026571Y-130435904D01*
X150978952Y-130388285D01*
X150931333Y-130293047D01*
X150931333Y-130054952D01*
X150978952Y-129959714D01*
X151026571Y-129912095D01*
X151121809Y-129864476D01*
X151359904Y-129864476D01*
X151455142Y-129912095D01*
X151502761Y-129959714D01*
X151550380Y-130054952D01*
X151550380Y-130293047D01*
X151502761Y-130388285D01*
X151455142Y-130435904D01*
X150883714Y-129007333D02*
X151550380Y-129007333D01*
X150502761Y-129245428D02*
X151217047Y-129483523D01*
X151217047Y-128864476D01*
X154789380Y-126564285D02*
X153789380Y-126564285D01*
X153789380Y-126326190D01*
X153837000Y-126183333D01*
X153932238Y-126088095D01*
X154027476Y-126040476D01*
X154217952Y-125992857D01*
X154360809Y-125992857D01*
X154551285Y-126040476D01*
X154646523Y-126088095D01*
X154741761Y-126183333D01*
X154789380Y-126326190D01*
X154789380Y-126564285D01*
X153789380Y-125088095D02*
X153789380Y-125564285D01*
X154265571Y-125611904D01*
X154217952Y-125564285D01*
X154170333Y-125469047D01*
X154170333Y-125230952D01*
X154217952Y-125135714D01*
X154265571Y-125088095D01*
X154360809Y-125040476D01*
X154598904Y-125040476D01*
X154694142Y-125088095D01*
X154741761Y-125135714D01*
X154789380Y-125230952D01*
X154789380Y-125469047D01*
X154741761Y-125564285D01*
X154694142Y-125611904D01*
X153789380Y-124707142D02*
X153789380Y-124088095D01*
X154170333Y-124421428D01*
X154170333Y-124278571D01*
X154217952Y-124183333D01*
X154265571Y-124135714D01*
X154360809Y-124088095D01*
X154598904Y-124088095D01*
X154694142Y-124135714D01*
X154741761Y-124183333D01*
X154789380Y-124278571D01*
X154789380Y-124564285D01*
X154741761Y-124659523D01*
X154694142Y-124707142D01*
X151550380Y-117546285D02*
X150550380Y-117546285D01*
X150550380Y-117308190D01*
X150598000Y-117165333D01*
X150693238Y-117070095D01*
X150788476Y-117022476D01*
X150978952Y-116974857D01*
X151121809Y-116974857D01*
X151312285Y-117022476D01*
X151407523Y-117070095D01*
X151502761Y-117165333D01*
X151550380Y-117308190D01*
X151550380Y-117546285D01*
X150550380Y-116070095D02*
X150550380Y-116546285D01*
X151026571Y-116593904D01*
X150978952Y-116546285D01*
X150931333Y-116451047D01*
X150931333Y-116212952D01*
X150978952Y-116117714D01*
X151026571Y-116070095D01*
X151121809Y-116022476D01*
X151359904Y-116022476D01*
X151455142Y-116070095D01*
X151502761Y-116117714D01*
X151550380Y-116212952D01*
X151550380Y-116451047D01*
X151502761Y-116546285D01*
X151455142Y-116593904D01*
X150645619Y-115641523D02*
X150598000Y-115593904D01*
X150550380Y-115498666D01*
X150550380Y-115260571D01*
X150598000Y-115165333D01*
X150645619Y-115117714D01*
X150740857Y-115070095D01*
X150836095Y-115070095D01*
X150978952Y-115117714D01*
X151550380Y-115689142D01*
X151550380Y-115070095D01*
X154789380Y-112721285D02*
X153789380Y-112721285D01*
X153789380Y-112483190D01*
X153837000Y-112340333D01*
X153932238Y-112245095D01*
X154027476Y-112197476D01*
X154217952Y-112149857D01*
X154360809Y-112149857D01*
X154551285Y-112197476D01*
X154646523Y-112245095D01*
X154741761Y-112340333D01*
X154789380Y-112483190D01*
X154789380Y-112721285D01*
X153789380Y-111245095D02*
X153789380Y-111721285D01*
X154265571Y-111768904D01*
X154217952Y-111721285D01*
X154170333Y-111626047D01*
X154170333Y-111387952D01*
X154217952Y-111292714D01*
X154265571Y-111245095D01*
X154360809Y-111197476D01*
X154598904Y-111197476D01*
X154694142Y-111245095D01*
X154741761Y-111292714D01*
X154789380Y-111387952D01*
X154789380Y-111626047D01*
X154741761Y-111721285D01*
X154694142Y-111768904D01*
X154789380Y-110245095D02*
X154789380Y-110816523D01*
X154789380Y-110530809D02*
X153789380Y-110530809D01*
X153932238Y-110626047D01*
X154027476Y-110721285D01*
X154075095Y-110816523D01*
X156376380Y-139010285D02*
X155376380Y-139010285D01*
X155376380Y-138772190D01*
X155424000Y-138629333D01*
X155519238Y-138534095D01*
X155614476Y-138486476D01*
X155804952Y-138438857D01*
X155947809Y-138438857D01*
X156138285Y-138486476D01*
X156233523Y-138534095D01*
X156328761Y-138629333D01*
X156376380Y-138772190D01*
X156376380Y-139010285D01*
X155376380Y-137534095D02*
X155376380Y-138010285D01*
X155852571Y-138057904D01*
X155804952Y-138010285D01*
X155757333Y-137915047D01*
X155757333Y-137676952D01*
X155804952Y-137581714D01*
X155852571Y-137534095D01*
X155947809Y-137486476D01*
X156185904Y-137486476D01*
X156281142Y-137534095D01*
X156328761Y-137581714D01*
X156376380Y-137676952D01*
X156376380Y-137915047D01*
X156328761Y-138010285D01*
X156281142Y-138057904D01*
X155376380Y-136867428D02*
X155376380Y-136772190D01*
X155424000Y-136676952D01*
X155471619Y-136629333D01*
X155566857Y-136581714D01*
X155757333Y-136534095D01*
X155995428Y-136534095D01*
X156185904Y-136581714D01*
X156281142Y-136629333D01*
X156328761Y-136676952D01*
X156376380Y-136772190D01*
X156376380Y-136867428D01*
X156328761Y-136962666D01*
X156281142Y-137010285D01*
X156185904Y-137057904D01*
X155995428Y-137105523D01*
X155757333Y-137105523D01*
X155566857Y-137057904D01*
X155471619Y-137010285D01*
X155424000Y-136962666D01*
X155376380Y-136867428D01*
X153963380Y-131388285D02*
X152963380Y-131388285D01*
X152963380Y-131150190D01*
X153011000Y-131007333D01*
X153106238Y-130912095D01*
X153201476Y-130864476D01*
X153391952Y-130816857D01*
X153534809Y-130816857D01*
X153725285Y-130864476D01*
X153820523Y-130912095D01*
X153915761Y-131007333D01*
X153963380Y-131150190D01*
X153963380Y-131388285D01*
X153296714Y-129959714D02*
X153963380Y-129959714D01*
X152915761Y-130197809D02*
X153630047Y-130435904D01*
X153630047Y-129816857D01*
X153963380Y-129388285D02*
X153963380Y-129197809D01*
X153915761Y-129102571D01*
X153868142Y-129054952D01*
X153725285Y-128959714D01*
X153534809Y-128912095D01*
X153153857Y-128912095D01*
X153058619Y-128959714D01*
X153011000Y-129007333D01*
X152963380Y-129102571D01*
X152963380Y-129293047D01*
X153011000Y-129388285D01*
X153058619Y-129435904D01*
X153153857Y-129483523D01*
X153391952Y-129483523D01*
X153487190Y-129435904D01*
X153534809Y-129388285D01*
X153582428Y-129293047D01*
X153582428Y-129102571D01*
X153534809Y-129007333D01*
X153487190Y-128959714D01*
X153391952Y-128912095D01*
X152376380Y-126564285D02*
X151376380Y-126564285D01*
X151376380Y-126326190D01*
X151424000Y-126183333D01*
X151519238Y-126088095D01*
X151614476Y-126040476D01*
X151804952Y-125992857D01*
X151947809Y-125992857D01*
X152138285Y-126040476D01*
X152233523Y-126088095D01*
X152328761Y-126183333D01*
X152376380Y-126326190D01*
X152376380Y-126564285D01*
X151709714Y-125135714D02*
X152376380Y-125135714D01*
X151328761Y-125373809D02*
X152043047Y-125611904D01*
X152043047Y-124992857D01*
X151804952Y-124469047D02*
X151757333Y-124564285D01*
X151709714Y-124611904D01*
X151614476Y-124659523D01*
X151566857Y-124659523D01*
X151471619Y-124611904D01*
X151424000Y-124564285D01*
X151376380Y-124469047D01*
X151376380Y-124278571D01*
X151424000Y-124183333D01*
X151471619Y-124135714D01*
X151566857Y-124088095D01*
X151614476Y-124088095D01*
X151709714Y-124135714D01*
X151757333Y-124183333D01*
X151804952Y-124278571D01*
X151804952Y-124469047D01*
X151852571Y-124564285D01*
X151900190Y-124611904D01*
X151995428Y-124659523D01*
X152185904Y-124659523D01*
X152281142Y-124611904D01*
X152328761Y-124564285D01*
X152376380Y-124469047D01*
X152376380Y-124278571D01*
X152328761Y-124183333D01*
X152281142Y-124135714D01*
X152185904Y-124088095D01*
X151995428Y-124088095D01*
X151900190Y-124135714D01*
X151852571Y-124183333D01*
X151804952Y-124278571D01*
X153963380Y-117546285D02*
X152963380Y-117546285D01*
X152963380Y-117308190D01*
X153011000Y-117165333D01*
X153106238Y-117070095D01*
X153201476Y-117022476D01*
X153391952Y-116974857D01*
X153534809Y-116974857D01*
X153725285Y-117022476D01*
X153820523Y-117070095D01*
X153915761Y-117165333D01*
X153963380Y-117308190D01*
X153963380Y-117546285D01*
X153296714Y-116117714D02*
X153963380Y-116117714D01*
X152915761Y-116355809D02*
X153630047Y-116593904D01*
X153630047Y-115974857D01*
X152963380Y-115689142D02*
X152963380Y-115022476D01*
X153963380Y-115451047D01*
X152376380Y-112721285D02*
X151376380Y-112721285D01*
X151376380Y-112483190D01*
X151424000Y-112340333D01*
X151519238Y-112245095D01*
X151614476Y-112197476D01*
X151804952Y-112149857D01*
X151947809Y-112149857D01*
X152138285Y-112197476D01*
X152233523Y-112245095D01*
X152328761Y-112340333D01*
X152376380Y-112483190D01*
X152376380Y-112721285D01*
X151709714Y-111292714D02*
X152376380Y-111292714D01*
X151328761Y-111530809D02*
X152043047Y-111768904D01*
X152043047Y-111149857D01*
X151376380Y-110340333D02*
X151376380Y-110530809D01*
X151424000Y-110626047D01*
X151471619Y-110673666D01*
X151614476Y-110768904D01*
X151804952Y-110816523D01*
X152185904Y-110816523D01*
X152281142Y-110768904D01*
X152328761Y-110721285D01*
X152376380Y-110626047D01*
X152376380Y-110435571D01*
X152328761Y-110340333D01*
X152281142Y-110292714D01*
X152185904Y-110245095D01*
X151947809Y-110245095D01*
X151852571Y-110292714D01*
X151804952Y-110340333D01*
X151757333Y-110435571D01*
X151757333Y-110626047D01*
X151804952Y-110721285D01*
X151852571Y-110768904D01*
X151947809Y-110816523D01*
X153963380Y-139008285D02*
X152963380Y-139008285D01*
X152963380Y-138770190D01*
X153011000Y-138627333D01*
X153106238Y-138532095D01*
X153201476Y-138484476D01*
X153391952Y-138436857D01*
X153534809Y-138436857D01*
X153725285Y-138484476D01*
X153820523Y-138532095D01*
X153915761Y-138627333D01*
X153963380Y-138770190D01*
X153963380Y-139008285D01*
X153296714Y-137579714D02*
X153963380Y-137579714D01*
X152915761Y-137817809D02*
X153630047Y-138055904D01*
X153630047Y-137436857D01*
X152963380Y-136579714D02*
X152963380Y-137055904D01*
X153439571Y-137103523D01*
X153391952Y-137055904D01*
X153344333Y-136960666D01*
X153344333Y-136722571D01*
X153391952Y-136627333D01*
X153439571Y-136579714D01*
X153534809Y-136532095D01*
X153772904Y-136532095D01*
X153868142Y-136579714D01*
X153915761Y-136627333D01*
X153963380Y-136722571D01*
X153963380Y-136960666D01*
X153915761Y-137055904D01*
X153868142Y-137103523D01*
X156376380Y-131388285D02*
X155376380Y-131388285D01*
X155376380Y-131150190D01*
X155424000Y-131007333D01*
X155519238Y-130912095D01*
X155614476Y-130864476D01*
X155804952Y-130816857D01*
X155947809Y-130816857D01*
X156138285Y-130864476D01*
X156233523Y-130912095D01*
X156328761Y-131007333D01*
X156376380Y-131150190D01*
X156376380Y-131388285D01*
X155709714Y-129959714D02*
X156376380Y-129959714D01*
X155328761Y-130197809D02*
X156043047Y-130435904D01*
X156043047Y-129816857D01*
X155709714Y-129007333D02*
X156376380Y-129007333D01*
X155328761Y-129245428D02*
X156043047Y-129483523D01*
X156043047Y-128864476D01*
X149963380Y-126564285D02*
X148963380Y-126564285D01*
X148963380Y-126326190D01*
X149011000Y-126183333D01*
X149106238Y-126088095D01*
X149201476Y-126040476D01*
X149391952Y-125992857D01*
X149534809Y-125992857D01*
X149725285Y-126040476D01*
X149820523Y-126088095D01*
X149915761Y-126183333D01*
X149963380Y-126326190D01*
X149963380Y-126564285D01*
X149296714Y-125135714D02*
X149963380Y-125135714D01*
X148915761Y-125373809D02*
X149630047Y-125611904D01*
X149630047Y-124992857D01*
X148963380Y-124707142D02*
X148963380Y-124088095D01*
X149344333Y-124421428D01*
X149344333Y-124278571D01*
X149391952Y-124183333D01*
X149439571Y-124135714D01*
X149534809Y-124088095D01*
X149772904Y-124088095D01*
X149868142Y-124135714D01*
X149915761Y-124183333D01*
X149963380Y-124278571D01*
X149963380Y-124564285D01*
X149915761Y-124659523D01*
X149868142Y-124707142D01*
X156376380Y-117547285D02*
X155376380Y-117547285D01*
X155376380Y-117309190D01*
X155424000Y-117166333D01*
X155519238Y-117071095D01*
X155614476Y-117023476D01*
X155804952Y-116975857D01*
X155947809Y-116975857D01*
X156138285Y-117023476D01*
X156233523Y-117071095D01*
X156328761Y-117166333D01*
X156376380Y-117309190D01*
X156376380Y-117547285D01*
X155709714Y-116118714D02*
X156376380Y-116118714D01*
X155328761Y-116356809D02*
X156043047Y-116594904D01*
X156043047Y-115975857D01*
X155471619Y-115642523D02*
X155424000Y-115594904D01*
X155376380Y-115499666D01*
X155376380Y-115261571D01*
X155424000Y-115166333D01*
X155471619Y-115118714D01*
X155566857Y-115071095D01*
X155662095Y-115071095D01*
X155804952Y-115118714D01*
X156376380Y-115690142D01*
X156376380Y-115071095D01*
X149963380Y-112721285D02*
X148963380Y-112721285D01*
X148963380Y-112483190D01*
X149011000Y-112340333D01*
X149106238Y-112245095D01*
X149201476Y-112197476D01*
X149391952Y-112149857D01*
X149534809Y-112149857D01*
X149725285Y-112197476D01*
X149820523Y-112245095D01*
X149915761Y-112340333D01*
X149963380Y-112483190D01*
X149963380Y-112721285D01*
X149296714Y-111292714D02*
X149963380Y-111292714D01*
X148915761Y-111530809D02*
X149630047Y-111768904D01*
X149630047Y-111149857D01*
X149963380Y-110245095D02*
X149963380Y-110816523D01*
X149963380Y-110530809D02*
X148963380Y-110530809D01*
X149106238Y-110626047D01*
X149201476Y-110721285D01*
X149249095Y-110816523D01*
X151550380Y-139008285D02*
X150550380Y-139008285D01*
X150550380Y-138770190D01*
X150598000Y-138627333D01*
X150693238Y-138532095D01*
X150788476Y-138484476D01*
X150978952Y-138436857D01*
X151121809Y-138436857D01*
X151312285Y-138484476D01*
X151407523Y-138532095D01*
X151502761Y-138627333D01*
X151550380Y-138770190D01*
X151550380Y-139008285D01*
X150883714Y-137579714D02*
X151550380Y-137579714D01*
X150502761Y-137817809D02*
X151217047Y-138055904D01*
X151217047Y-137436857D01*
X150550380Y-136865428D02*
X150550380Y-136770190D01*
X150598000Y-136674952D01*
X150645619Y-136627333D01*
X150740857Y-136579714D01*
X150931333Y-136532095D01*
X151169428Y-136532095D01*
X151359904Y-136579714D01*
X151455142Y-136627333D01*
X151502761Y-136674952D01*
X151550380Y-136770190D01*
X151550380Y-136865428D01*
X151502761Y-136960666D01*
X151455142Y-137008285D01*
X151359904Y-137055904D01*
X151169428Y-137103523D01*
X150931333Y-137103523D01*
X150740857Y-137055904D01*
X150645619Y-137008285D01*
X150598000Y-136960666D01*
X150550380Y-136865428D01*
X158789380Y-131388285D02*
X157789380Y-131388285D01*
X157789380Y-131150190D01*
X157837000Y-131007333D01*
X157932238Y-130912095D01*
X158027476Y-130864476D01*
X158217952Y-130816857D01*
X158360809Y-130816857D01*
X158551285Y-130864476D01*
X158646523Y-130912095D01*
X158741761Y-131007333D01*
X158789380Y-131150190D01*
X158789380Y-131388285D01*
X157789380Y-130483523D02*
X157789380Y-129864476D01*
X158170333Y-130197809D01*
X158170333Y-130054952D01*
X158217952Y-129959714D01*
X158265571Y-129912095D01*
X158360809Y-129864476D01*
X158598904Y-129864476D01*
X158694142Y-129912095D01*
X158741761Y-129959714D01*
X158789380Y-130054952D01*
X158789380Y-130340666D01*
X158741761Y-130435904D01*
X158694142Y-130483523D01*
X158789380Y-129388285D02*
X158789380Y-129197809D01*
X158741761Y-129102571D01*
X158694142Y-129054952D01*
X158551285Y-128959714D01*
X158360809Y-128912095D01*
X157979857Y-128912095D01*
X157884619Y-128959714D01*
X157837000Y-129007333D01*
X157789380Y-129102571D01*
X157789380Y-129293047D01*
X157837000Y-129388285D01*
X157884619Y-129435904D01*
X157979857Y-129483523D01*
X158217952Y-129483523D01*
X158313190Y-129435904D01*
X158360809Y-129388285D01*
X158408428Y-129293047D01*
X158408428Y-129102571D01*
X158360809Y-129007333D01*
X158313190Y-128959714D01*
X158217952Y-128912095D01*
X147550380Y-126564285D02*
X146550380Y-126564285D01*
X146550380Y-126326190D01*
X146598000Y-126183333D01*
X146693238Y-126088095D01*
X146788476Y-126040476D01*
X146978952Y-125992857D01*
X147121809Y-125992857D01*
X147312285Y-126040476D01*
X147407523Y-126088095D01*
X147502761Y-126183333D01*
X147550380Y-126326190D01*
X147550380Y-126564285D01*
X146550380Y-125659523D02*
X146550380Y-125040476D01*
X146931333Y-125373809D01*
X146931333Y-125230952D01*
X146978952Y-125135714D01*
X147026571Y-125088095D01*
X147121809Y-125040476D01*
X147359904Y-125040476D01*
X147455142Y-125088095D01*
X147502761Y-125135714D01*
X147550380Y-125230952D01*
X147550380Y-125516666D01*
X147502761Y-125611904D01*
X147455142Y-125659523D01*
X146978952Y-124469047D02*
X146931333Y-124564285D01*
X146883714Y-124611904D01*
X146788476Y-124659523D01*
X146740857Y-124659523D01*
X146645619Y-124611904D01*
X146598000Y-124564285D01*
X146550380Y-124469047D01*
X146550380Y-124278571D01*
X146598000Y-124183333D01*
X146645619Y-124135714D01*
X146740857Y-124088095D01*
X146788476Y-124088095D01*
X146883714Y-124135714D01*
X146931333Y-124183333D01*
X146978952Y-124278571D01*
X146978952Y-124469047D01*
X147026571Y-124564285D01*
X147074190Y-124611904D01*
X147169428Y-124659523D01*
X147359904Y-124659523D01*
X147455142Y-124611904D01*
X147502761Y-124564285D01*
X147550380Y-124469047D01*
X147550380Y-124278571D01*
X147502761Y-124183333D01*
X147455142Y-124135714D01*
X147359904Y-124088095D01*
X147169428Y-124088095D01*
X147074190Y-124135714D01*
X147026571Y-124183333D01*
X146978952Y-124278571D01*
X158789380Y-117546285D02*
X157789380Y-117546285D01*
X157789380Y-117308190D01*
X157837000Y-117165333D01*
X157932238Y-117070095D01*
X158027476Y-117022476D01*
X158217952Y-116974857D01*
X158360809Y-116974857D01*
X158551285Y-117022476D01*
X158646523Y-117070095D01*
X158741761Y-117165333D01*
X158789380Y-117308190D01*
X158789380Y-117546285D01*
X157789380Y-116641523D02*
X157789380Y-116022476D01*
X158170333Y-116355809D01*
X158170333Y-116212952D01*
X158217952Y-116117714D01*
X158265571Y-116070095D01*
X158360809Y-116022476D01*
X158598904Y-116022476D01*
X158694142Y-116070095D01*
X158741761Y-116117714D01*
X158789380Y-116212952D01*
X158789380Y-116498666D01*
X158741761Y-116593904D01*
X158694142Y-116641523D01*
X157789380Y-115689142D02*
X157789380Y-115022476D01*
X158789380Y-115451047D01*
X147550380Y-112720285D02*
X146550380Y-112720285D01*
X146550380Y-112482190D01*
X146598000Y-112339333D01*
X146693238Y-112244095D01*
X146788476Y-112196476D01*
X146978952Y-112148857D01*
X147121809Y-112148857D01*
X147312285Y-112196476D01*
X147407523Y-112244095D01*
X147502761Y-112339333D01*
X147550380Y-112482190D01*
X147550380Y-112720285D01*
X146550380Y-111815523D02*
X146550380Y-111196476D01*
X146931333Y-111529809D01*
X146931333Y-111386952D01*
X146978952Y-111291714D01*
X147026571Y-111244095D01*
X147121809Y-111196476D01*
X147359904Y-111196476D01*
X147455142Y-111244095D01*
X147502761Y-111291714D01*
X147550380Y-111386952D01*
X147550380Y-111672666D01*
X147502761Y-111767904D01*
X147455142Y-111815523D01*
X146550380Y-110339333D02*
X146550380Y-110529809D01*
X146598000Y-110625047D01*
X146645619Y-110672666D01*
X146788476Y-110767904D01*
X146978952Y-110815523D01*
X147359904Y-110815523D01*
X147455142Y-110767904D01*
X147502761Y-110720285D01*
X147550380Y-110625047D01*
X147550380Y-110434571D01*
X147502761Y-110339333D01*
X147455142Y-110291714D01*
X147359904Y-110244095D01*
X147121809Y-110244095D01*
X147026571Y-110291714D01*
X146978952Y-110339333D01*
X146931333Y-110434571D01*
X146931333Y-110625047D01*
X146978952Y-110720285D01*
X147026571Y-110767904D01*
X147121809Y-110815523D01*
X149137380Y-139008285D02*
X148137380Y-139008285D01*
X148137380Y-138770190D01*
X148185000Y-138627333D01*
X148280238Y-138532095D01*
X148375476Y-138484476D01*
X148565952Y-138436857D01*
X148708809Y-138436857D01*
X148899285Y-138484476D01*
X148994523Y-138532095D01*
X149089761Y-138627333D01*
X149137380Y-138770190D01*
X149137380Y-139008285D01*
X148137380Y-138103523D02*
X148137380Y-137484476D01*
X148518333Y-137817809D01*
X148518333Y-137674952D01*
X148565952Y-137579714D01*
X148613571Y-137532095D01*
X148708809Y-137484476D01*
X148946904Y-137484476D01*
X149042142Y-137532095D01*
X149089761Y-137579714D01*
X149137380Y-137674952D01*
X149137380Y-137960666D01*
X149089761Y-138055904D01*
X149042142Y-138103523D01*
X148137380Y-136579714D02*
X148137380Y-137055904D01*
X148613571Y-137103523D01*
X148565952Y-137055904D01*
X148518333Y-136960666D01*
X148518333Y-136722571D01*
X148565952Y-136627333D01*
X148613571Y-136579714D01*
X148708809Y-136532095D01*
X148946904Y-136532095D01*
X149042142Y-136579714D01*
X149089761Y-136627333D01*
X149137380Y-136722571D01*
X149137380Y-136960666D01*
X149089761Y-137055904D01*
X149042142Y-137103523D01*
X161202380Y-131388285D02*
X160202380Y-131388285D01*
X160202380Y-131150190D01*
X160250000Y-131007333D01*
X160345238Y-130912095D01*
X160440476Y-130864476D01*
X160630952Y-130816857D01*
X160773809Y-130816857D01*
X160964285Y-130864476D01*
X161059523Y-130912095D01*
X161154761Y-131007333D01*
X161202380Y-131150190D01*
X161202380Y-131388285D01*
X160202380Y-130483523D02*
X160202380Y-129864476D01*
X160583333Y-130197809D01*
X160583333Y-130054952D01*
X160630952Y-129959714D01*
X160678571Y-129912095D01*
X160773809Y-129864476D01*
X161011904Y-129864476D01*
X161107142Y-129912095D01*
X161154761Y-129959714D01*
X161202380Y-130054952D01*
X161202380Y-130340666D01*
X161154761Y-130435904D01*
X161107142Y-130483523D01*
X160535714Y-129007333D02*
X161202380Y-129007333D01*
X160154761Y-129245428D02*
X160869047Y-129483523D01*
X160869047Y-128864476D01*
X145137380Y-126564285D02*
X144137380Y-126564285D01*
X144137380Y-126326190D01*
X144185000Y-126183333D01*
X144280238Y-126088095D01*
X144375476Y-126040476D01*
X144565952Y-125992857D01*
X144708809Y-125992857D01*
X144899285Y-126040476D01*
X144994523Y-126088095D01*
X145089761Y-126183333D01*
X145137380Y-126326190D01*
X145137380Y-126564285D01*
X144137380Y-125659523D02*
X144137380Y-125040476D01*
X144518333Y-125373809D01*
X144518333Y-125230952D01*
X144565952Y-125135714D01*
X144613571Y-125088095D01*
X144708809Y-125040476D01*
X144946904Y-125040476D01*
X145042142Y-125088095D01*
X145089761Y-125135714D01*
X145137380Y-125230952D01*
X145137380Y-125516666D01*
X145089761Y-125611904D01*
X145042142Y-125659523D01*
X144137380Y-124707142D02*
X144137380Y-124088095D01*
X144518333Y-124421428D01*
X144518333Y-124278571D01*
X144565952Y-124183333D01*
X144613571Y-124135714D01*
X144708809Y-124088095D01*
X144946904Y-124088095D01*
X145042142Y-124135714D01*
X145089761Y-124183333D01*
X145137380Y-124278571D01*
X145137380Y-124564285D01*
X145089761Y-124659523D01*
X145042142Y-124707142D01*
X161202380Y-117547285D02*
X160202380Y-117547285D01*
X160202380Y-117309190D01*
X160250000Y-117166333D01*
X160345238Y-117071095D01*
X160440476Y-117023476D01*
X160630952Y-116975857D01*
X160773809Y-116975857D01*
X160964285Y-117023476D01*
X161059523Y-117071095D01*
X161154761Y-117166333D01*
X161202380Y-117309190D01*
X161202380Y-117547285D01*
X160202380Y-116642523D02*
X160202380Y-116023476D01*
X160583333Y-116356809D01*
X160583333Y-116213952D01*
X160630952Y-116118714D01*
X160678571Y-116071095D01*
X160773809Y-116023476D01*
X161011904Y-116023476D01*
X161107142Y-116071095D01*
X161154761Y-116118714D01*
X161202380Y-116213952D01*
X161202380Y-116499666D01*
X161154761Y-116594904D01*
X161107142Y-116642523D01*
X160297619Y-115642523D02*
X160250000Y-115594904D01*
X160202380Y-115499666D01*
X160202380Y-115261571D01*
X160250000Y-115166333D01*
X160297619Y-115118714D01*
X160392857Y-115071095D01*
X160488095Y-115071095D01*
X160630952Y-115118714D01*
X161202380Y-115690142D01*
X161202380Y-115071095D01*
X145137380Y-112721285D02*
X144137380Y-112721285D01*
X144137380Y-112483190D01*
X144185000Y-112340333D01*
X144280238Y-112245095D01*
X144375476Y-112197476D01*
X144565952Y-112149857D01*
X144708809Y-112149857D01*
X144899285Y-112197476D01*
X144994523Y-112245095D01*
X145089761Y-112340333D01*
X145137380Y-112483190D01*
X145137380Y-112721285D01*
X144137380Y-111816523D02*
X144137380Y-111197476D01*
X144518333Y-111530809D01*
X144518333Y-111387952D01*
X144565952Y-111292714D01*
X144613571Y-111245095D01*
X144708809Y-111197476D01*
X144946904Y-111197476D01*
X145042142Y-111245095D01*
X145089761Y-111292714D01*
X145137380Y-111387952D01*
X145137380Y-111673666D01*
X145089761Y-111768904D01*
X145042142Y-111816523D01*
X145137380Y-110245095D02*
X145137380Y-110816523D01*
X145137380Y-110530809D02*
X144137380Y-110530809D01*
X144280238Y-110626047D01*
X144375476Y-110721285D01*
X144423095Y-110816523D01*
X146724380Y-139010285D02*
X145724380Y-139010285D01*
X145724380Y-138772190D01*
X145772000Y-138629333D01*
X145867238Y-138534095D01*
X145962476Y-138486476D01*
X146152952Y-138438857D01*
X146295809Y-138438857D01*
X146486285Y-138486476D01*
X146581523Y-138534095D01*
X146676761Y-138629333D01*
X146724380Y-138772190D01*
X146724380Y-139010285D01*
X145724380Y-138105523D02*
X145724380Y-137486476D01*
X146105333Y-137819809D01*
X146105333Y-137676952D01*
X146152952Y-137581714D01*
X146200571Y-137534095D01*
X146295809Y-137486476D01*
X146533904Y-137486476D01*
X146629142Y-137534095D01*
X146676761Y-137581714D01*
X146724380Y-137676952D01*
X146724380Y-137962666D01*
X146676761Y-138057904D01*
X146629142Y-138105523D01*
X145724380Y-136867428D02*
X145724380Y-136772190D01*
X145772000Y-136676952D01*
X145819619Y-136629333D01*
X145914857Y-136581714D01*
X146105333Y-136534095D01*
X146343428Y-136534095D01*
X146533904Y-136581714D01*
X146629142Y-136629333D01*
X146676761Y-136676952D01*
X146724380Y-136772190D01*
X146724380Y-136867428D01*
X146676761Y-136962666D01*
X146629142Y-137010285D01*
X146533904Y-137057904D01*
X146343428Y-137105523D01*
X146105333Y-137105523D01*
X145914857Y-137057904D01*
X145819619Y-137010285D01*
X145772000Y-136962666D01*
X145724380Y-136867428D01*
X134659380Y-131390285D02*
X133659380Y-131390285D01*
X133659380Y-131152190D01*
X133707000Y-131009333D01*
X133802238Y-130914095D01*
X133897476Y-130866476D01*
X134087952Y-130818857D01*
X134230809Y-130818857D01*
X134421285Y-130866476D01*
X134516523Y-130914095D01*
X134611761Y-131009333D01*
X134659380Y-131152190D01*
X134659380Y-131390285D01*
X133754619Y-130437904D02*
X133707000Y-130390285D01*
X133659380Y-130295047D01*
X133659380Y-130056952D01*
X133707000Y-129961714D01*
X133754619Y-129914095D01*
X133849857Y-129866476D01*
X133945095Y-129866476D01*
X134087952Y-129914095D01*
X134659380Y-130485523D01*
X134659380Y-129866476D01*
X134659380Y-129390285D02*
X134659380Y-129199809D01*
X134611761Y-129104571D01*
X134564142Y-129056952D01*
X134421285Y-128961714D01*
X134230809Y-128914095D01*
X133849857Y-128914095D01*
X133754619Y-128961714D01*
X133707000Y-129009333D01*
X133659380Y-129104571D01*
X133659380Y-129295047D01*
X133707000Y-129390285D01*
X133754619Y-129437904D01*
X133849857Y-129485523D01*
X134087952Y-129485523D01*
X134183190Y-129437904D01*
X134230809Y-129390285D01*
X134278428Y-129295047D01*
X134278428Y-129104571D01*
X134230809Y-129009333D01*
X134183190Y-128961714D01*
X134087952Y-128914095D01*
X142724380Y-126564285D02*
X141724380Y-126564285D01*
X141724380Y-126326190D01*
X141772000Y-126183333D01*
X141867238Y-126088095D01*
X141962476Y-126040476D01*
X142152952Y-125992857D01*
X142295809Y-125992857D01*
X142486285Y-126040476D01*
X142581523Y-126088095D01*
X142676761Y-126183333D01*
X142724380Y-126326190D01*
X142724380Y-126564285D01*
X141819619Y-125611904D02*
X141772000Y-125564285D01*
X141724380Y-125469047D01*
X141724380Y-125230952D01*
X141772000Y-125135714D01*
X141819619Y-125088095D01*
X141914857Y-125040476D01*
X142010095Y-125040476D01*
X142152952Y-125088095D01*
X142724380Y-125659523D01*
X142724380Y-125040476D01*
X142152952Y-124469047D02*
X142105333Y-124564285D01*
X142057714Y-124611904D01*
X141962476Y-124659523D01*
X141914857Y-124659523D01*
X141819619Y-124611904D01*
X141772000Y-124564285D01*
X141724380Y-124469047D01*
X141724380Y-124278571D01*
X141772000Y-124183333D01*
X141819619Y-124135714D01*
X141914857Y-124088095D01*
X141962476Y-124088095D01*
X142057714Y-124135714D01*
X142105333Y-124183333D01*
X142152952Y-124278571D01*
X142152952Y-124469047D01*
X142200571Y-124564285D01*
X142248190Y-124611904D01*
X142343428Y-124659523D01*
X142533904Y-124659523D01*
X142629142Y-124611904D01*
X142676761Y-124564285D01*
X142724380Y-124469047D01*
X142724380Y-124278571D01*
X142676761Y-124183333D01*
X142629142Y-124135714D01*
X142533904Y-124088095D01*
X142343428Y-124088095D01*
X142248190Y-124135714D01*
X142200571Y-124183333D01*
X142152952Y-124278571D01*
X134659380Y-117546285D02*
X133659380Y-117546285D01*
X133659380Y-117308190D01*
X133707000Y-117165333D01*
X133802238Y-117070095D01*
X133897476Y-117022476D01*
X134087952Y-116974857D01*
X134230809Y-116974857D01*
X134421285Y-117022476D01*
X134516523Y-117070095D01*
X134611761Y-117165333D01*
X134659380Y-117308190D01*
X134659380Y-117546285D01*
X133754619Y-116593904D02*
X133707000Y-116546285D01*
X133659380Y-116451047D01*
X133659380Y-116212952D01*
X133707000Y-116117714D01*
X133754619Y-116070095D01*
X133849857Y-116022476D01*
X133945095Y-116022476D01*
X134087952Y-116070095D01*
X134659380Y-116641523D01*
X134659380Y-116022476D01*
X133659380Y-115689142D02*
X133659380Y-115022476D01*
X134659380Y-115451047D01*
X142724380Y-112721285D02*
X141724380Y-112721285D01*
X141724380Y-112483190D01*
X141772000Y-112340333D01*
X141867238Y-112245095D01*
X141962476Y-112197476D01*
X142152952Y-112149857D01*
X142295809Y-112149857D01*
X142486285Y-112197476D01*
X142581523Y-112245095D01*
X142676761Y-112340333D01*
X142724380Y-112483190D01*
X142724380Y-112721285D01*
X141819619Y-111768904D02*
X141772000Y-111721285D01*
X141724380Y-111626047D01*
X141724380Y-111387952D01*
X141772000Y-111292714D01*
X141819619Y-111245095D01*
X141914857Y-111197476D01*
X142010095Y-111197476D01*
X142152952Y-111245095D01*
X142724380Y-111816523D01*
X142724380Y-111197476D01*
X141724380Y-110340333D02*
X141724380Y-110530809D01*
X141772000Y-110626047D01*
X141819619Y-110673666D01*
X141962476Y-110768904D01*
X142152952Y-110816523D01*
X142533904Y-110816523D01*
X142629142Y-110768904D01*
X142676761Y-110721285D01*
X142724380Y-110626047D01*
X142724380Y-110435571D01*
X142676761Y-110340333D01*
X142629142Y-110292714D01*
X142533904Y-110245095D01*
X142295809Y-110245095D01*
X142200571Y-110292714D01*
X142152952Y-110340333D01*
X142105333Y-110435571D01*
X142105333Y-110626047D01*
X142152952Y-110721285D01*
X142200571Y-110768904D01*
X142295809Y-110816523D01*
X144311380Y-139008285D02*
X143311380Y-139008285D01*
X143311380Y-138770190D01*
X143359000Y-138627333D01*
X143454238Y-138532095D01*
X143549476Y-138484476D01*
X143739952Y-138436857D01*
X143882809Y-138436857D01*
X144073285Y-138484476D01*
X144168523Y-138532095D01*
X144263761Y-138627333D01*
X144311380Y-138770190D01*
X144311380Y-139008285D01*
X143406619Y-138055904D02*
X143359000Y-138008285D01*
X143311380Y-137913047D01*
X143311380Y-137674952D01*
X143359000Y-137579714D01*
X143406619Y-137532095D01*
X143501857Y-137484476D01*
X143597095Y-137484476D01*
X143739952Y-137532095D01*
X144311380Y-138103523D01*
X144311380Y-137484476D01*
X143311380Y-136579714D02*
X143311380Y-137055904D01*
X143787571Y-137103523D01*
X143739952Y-137055904D01*
X143692333Y-136960666D01*
X143692333Y-136722571D01*
X143739952Y-136627333D01*
X143787571Y-136579714D01*
X143882809Y-136532095D01*
X144120904Y-136532095D01*
X144216142Y-136579714D01*
X144263761Y-136627333D01*
X144311380Y-136722571D01*
X144311380Y-136960666D01*
X144263761Y-137055904D01*
X144216142Y-137103523D01*
X137072380Y-131390285D02*
X136072380Y-131390285D01*
X136072380Y-131152190D01*
X136120000Y-131009333D01*
X136215238Y-130914095D01*
X136310476Y-130866476D01*
X136500952Y-130818857D01*
X136643809Y-130818857D01*
X136834285Y-130866476D01*
X136929523Y-130914095D01*
X137024761Y-131009333D01*
X137072380Y-131152190D01*
X137072380Y-131390285D01*
X136167619Y-130437904D02*
X136120000Y-130390285D01*
X136072380Y-130295047D01*
X136072380Y-130056952D01*
X136120000Y-129961714D01*
X136167619Y-129914095D01*
X136262857Y-129866476D01*
X136358095Y-129866476D01*
X136500952Y-129914095D01*
X137072380Y-130485523D01*
X137072380Y-129866476D01*
X136405714Y-129009333D02*
X137072380Y-129009333D01*
X136024761Y-129247428D02*
X136739047Y-129485523D01*
X136739047Y-128866476D01*
X140311380Y-126564285D02*
X139311380Y-126564285D01*
X139311380Y-126326190D01*
X139359000Y-126183333D01*
X139454238Y-126088095D01*
X139549476Y-126040476D01*
X139739952Y-125992857D01*
X139882809Y-125992857D01*
X140073285Y-126040476D01*
X140168523Y-126088095D01*
X140263761Y-126183333D01*
X140311380Y-126326190D01*
X140311380Y-126564285D01*
X139406619Y-125611904D02*
X139359000Y-125564285D01*
X139311380Y-125469047D01*
X139311380Y-125230952D01*
X139359000Y-125135714D01*
X139406619Y-125088095D01*
X139501857Y-125040476D01*
X139597095Y-125040476D01*
X139739952Y-125088095D01*
X140311380Y-125659523D01*
X140311380Y-125040476D01*
X139311380Y-124707142D02*
X139311380Y-124088095D01*
X139692333Y-124421428D01*
X139692333Y-124278571D01*
X139739952Y-124183333D01*
X139787571Y-124135714D01*
X139882809Y-124088095D01*
X140120904Y-124088095D01*
X140216142Y-124135714D01*
X140263761Y-124183333D01*
X140311380Y-124278571D01*
X140311380Y-124564285D01*
X140263761Y-124659523D01*
X140216142Y-124707142D01*
X137072380Y-117546285D02*
X136072380Y-117546285D01*
X136072380Y-117308190D01*
X136120000Y-117165333D01*
X136215238Y-117070095D01*
X136310476Y-117022476D01*
X136500952Y-116974857D01*
X136643809Y-116974857D01*
X136834285Y-117022476D01*
X136929523Y-117070095D01*
X137024761Y-117165333D01*
X137072380Y-117308190D01*
X137072380Y-117546285D01*
X136167619Y-116593904D02*
X136120000Y-116546285D01*
X136072380Y-116451047D01*
X136072380Y-116212952D01*
X136120000Y-116117714D01*
X136167619Y-116070095D01*
X136262857Y-116022476D01*
X136358095Y-116022476D01*
X136500952Y-116070095D01*
X137072380Y-116641523D01*
X137072380Y-116022476D01*
X136167619Y-115641523D02*
X136120000Y-115593904D01*
X136072380Y-115498666D01*
X136072380Y-115260571D01*
X136120000Y-115165333D01*
X136167619Y-115117714D01*
X136262857Y-115070095D01*
X136358095Y-115070095D01*
X136500952Y-115117714D01*
X137072380Y-115689142D01*
X137072380Y-115070095D01*
X140311380Y-112721285D02*
X139311380Y-112721285D01*
X139311380Y-112483190D01*
X139359000Y-112340333D01*
X139454238Y-112245095D01*
X139549476Y-112197476D01*
X139739952Y-112149857D01*
X139882809Y-112149857D01*
X140073285Y-112197476D01*
X140168523Y-112245095D01*
X140263761Y-112340333D01*
X140311380Y-112483190D01*
X140311380Y-112721285D01*
X139406619Y-111768904D02*
X139359000Y-111721285D01*
X139311380Y-111626047D01*
X139311380Y-111387952D01*
X139359000Y-111292714D01*
X139406619Y-111245095D01*
X139501857Y-111197476D01*
X139597095Y-111197476D01*
X139739952Y-111245095D01*
X140311380Y-111816523D01*
X140311380Y-111197476D01*
X140311380Y-110245095D02*
X140311380Y-110816523D01*
X140311380Y-110530809D02*
X139311380Y-110530809D01*
X139454238Y-110626047D01*
X139549476Y-110721285D01*
X139597095Y-110816523D01*
X141898380Y-139008285D02*
X140898380Y-139008285D01*
X140898380Y-138770190D01*
X140946000Y-138627333D01*
X141041238Y-138532095D01*
X141136476Y-138484476D01*
X141326952Y-138436857D01*
X141469809Y-138436857D01*
X141660285Y-138484476D01*
X141755523Y-138532095D01*
X141850761Y-138627333D01*
X141898380Y-138770190D01*
X141898380Y-139008285D01*
X140993619Y-138055904D02*
X140946000Y-138008285D01*
X140898380Y-137913047D01*
X140898380Y-137674952D01*
X140946000Y-137579714D01*
X140993619Y-137532095D01*
X141088857Y-137484476D01*
X141184095Y-137484476D01*
X141326952Y-137532095D01*
X141898380Y-138103523D01*
X141898380Y-137484476D01*
X140898380Y-136865428D02*
X140898380Y-136770190D01*
X140946000Y-136674952D01*
X140993619Y-136627333D01*
X141088857Y-136579714D01*
X141279333Y-136532095D01*
X141517428Y-136532095D01*
X141707904Y-136579714D01*
X141803142Y-136627333D01*
X141850761Y-136674952D01*
X141898380Y-136770190D01*
X141898380Y-136865428D01*
X141850761Y-136960666D01*
X141803142Y-137008285D01*
X141707904Y-137055904D01*
X141517428Y-137103523D01*
X141279333Y-137103523D01*
X141088857Y-137055904D01*
X140993619Y-137008285D01*
X140946000Y-136960666D01*
X140898380Y-136865428D01*
X139485380Y-131390285D02*
X138485380Y-131390285D01*
X138485380Y-131152190D01*
X138533000Y-131009333D01*
X138628238Y-130914095D01*
X138723476Y-130866476D01*
X138913952Y-130818857D01*
X139056809Y-130818857D01*
X139247285Y-130866476D01*
X139342523Y-130914095D01*
X139437761Y-131009333D01*
X139485380Y-131152190D01*
X139485380Y-131390285D01*
X139485380Y-129866476D02*
X139485380Y-130437904D01*
X139485380Y-130152190D02*
X138485380Y-130152190D01*
X138628238Y-130247428D01*
X138723476Y-130342666D01*
X138771095Y-130437904D01*
X139485380Y-129390285D02*
X139485380Y-129199809D01*
X139437761Y-129104571D01*
X139390142Y-129056952D01*
X139247285Y-128961714D01*
X139056809Y-128914095D01*
X138675857Y-128914095D01*
X138580619Y-128961714D01*
X138533000Y-129009333D01*
X138485380Y-129104571D01*
X138485380Y-129295047D01*
X138533000Y-129390285D01*
X138580619Y-129437904D01*
X138675857Y-129485523D01*
X138913952Y-129485523D01*
X139009190Y-129437904D01*
X139056809Y-129390285D01*
X139104428Y-129295047D01*
X139104428Y-129104571D01*
X139056809Y-129009333D01*
X139009190Y-128961714D01*
X138913952Y-128914095D01*
X137898380Y-126564285D02*
X136898380Y-126564285D01*
X136898380Y-126326190D01*
X136946000Y-126183333D01*
X137041238Y-126088095D01*
X137136476Y-126040476D01*
X137326952Y-125992857D01*
X137469809Y-125992857D01*
X137660285Y-126040476D01*
X137755523Y-126088095D01*
X137850761Y-126183333D01*
X137898380Y-126326190D01*
X137898380Y-126564285D01*
X137898380Y-125040476D02*
X137898380Y-125611904D01*
X137898380Y-125326190D02*
X136898380Y-125326190D01*
X137041238Y-125421428D01*
X137136476Y-125516666D01*
X137184095Y-125611904D01*
X137326952Y-124469047D02*
X137279333Y-124564285D01*
X137231714Y-124611904D01*
X137136476Y-124659523D01*
X137088857Y-124659523D01*
X136993619Y-124611904D01*
X136946000Y-124564285D01*
X136898380Y-124469047D01*
X136898380Y-124278571D01*
X136946000Y-124183333D01*
X136993619Y-124135714D01*
X137088857Y-124088095D01*
X137136476Y-124088095D01*
X137231714Y-124135714D01*
X137279333Y-124183333D01*
X137326952Y-124278571D01*
X137326952Y-124469047D01*
X137374571Y-124564285D01*
X137422190Y-124611904D01*
X137517428Y-124659523D01*
X137707904Y-124659523D01*
X137803142Y-124611904D01*
X137850761Y-124564285D01*
X137898380Y-124469047D01*
X137898380Y-124278571D01*
X137850761Y-124183333D01*
X137803142Y-124135714D01*
X137707904Y-124088095D01*
X137517428Y-124088095D01*
X137422190Y-124135714D01*
X137374571Y-124183333D01*
X137326952Y-124278571D01*
X139485380Y-117546285D02*
X138485380Y-117546285D01*
X138485380Y-117308190D01*
X138533000Y-117165333D01*
X138628238Y-117070095D01*
X138723476Y-117022476D01*
X138913952Y-116974857D01*
X139056809Y-116974857D01*
X139247285Y-117022476D01*
X139342523Y-117070095D01*
X139437761Y-117165333D01*
X139485380Y-117308190D01*
X139485380Y-117546285D01*
X139485380Y-116022476D02*
X139485380Y-116593904D01*
X139485380Y-116308190D02*
X138485380Y-116308190D01*
X138628238Y-116403428D01*
X138723476Y-116498666D01*
X138771095Y-116593904D01*
X138485380Y-115689142D02*
X138485380Y-115022476D01*
X139485380Y-115451047D01*
X137898380Y-112721285D02*
X136898380Y-112721285D01*
X136898380Y-112483190D01*
X136946000Y-112340333D01*
X137041238Y-112245095D01*
X137136476Y-112197476D01*
X137326952Y-112149857D01*
X137469809Y-112149857D01*
X137660285Y-112197476D01*
X137755523Y-112245095D01*
X137850761Y-112340333D01*
X137898380Y-112483190D01*
X137898380Y-112721285D01*
X137898380Y-111197476D02*
X137898380Y-111768904D01*
X137898380Y-111483190D02*
X136898380Y-111483190D01*
X137041238Y-111578428D01*
X137136476Y-111673666D01*
X137184095Y-111768904D01*
X136898380Y-110340333D02*
X136898380Y-110530809D01*
X136946000Y-110626047D01*
X136993619Y-110673666D01*
X137136476Y-110768904D01*
X137326952Y-110816523D01*
X137707904Y-110816523D01*
X137803142Y-110768904D01*
X137850761Y-110721285D01*
X137898380Y-110626047D01*
X137898380Y-110435571D01*
X137850761Y-110340333D01*
X137803142Y-110292714D01*
X137707904Y-110245095D01*
X137469809Y-110245095D01*
X137374571Y-110292714D01*
X137326952Y-110340333D01*
X137279333Y-110435571D01*
X137279333Y-110626047D01*
X137326952Y-110721285D01*
X137374571Y-110768904D01*
X137469809Y-110816523D01*
X139485380Y-139008285D02*
X138485380Y-139008285D01*
X138485380Y-138770190D01*
X138533000Y-138627333D01*
X138628238Y-138532095D01*
X138723476Y-138484476D01*
X138913952Y-138436857D01*
X139056809Y-138436857D01*
X139247285Y-138484476D01*
X139342523Y-138532095D01*
X139437761Y-138627333D01*
X139485380Y-138770190D01*
X139485380Y-139008285D01*
X139485380Y-137484476D02*
X139485380Y-138055904D01*
X139485380Y-137770190D02*
X138485380Y-137770190D01*
X138628238Y-137865428D01*
X138723476Y-137960666D01*
X138771095Y-138055904D01*
X138485380Y-136579714D02*
X138485380Y-137055904D01*
X138961571Y-137103523D01*
X138913952Y-137055904D01*
X138866333Y-136960666D01*
X138866333Y-136722571D01*
X138913952Y-136627333D01*
X138961571Y-136579714D01*
X139056809Y-136532095D01*
X139294904Y-136532095D01*
X139390142Y-136579714D01*
X139437761Y-136627333D01*
X139485380Y-136722571D01*
X139485380Y-136960666D01*
X139437761Y-137055904D01*
X139390142Y-137103523D01*
X141898380Y-131390285D02*
X140898380Y-131390285D01*
X140898380Y-131152190D01*
X140946000Y-131009333D01*
X141041238Y-130914095D01*
X141136476Y-130866476D01*
X141326952Y-130818857D01*
X141469809Y-130818857D01*
X141660285Y-130866476D01*
X141755523Y-130914095D01*
X141850761Y-131009333D01*
X141898380Y-131152190D01*
X141898380Y-131390285D01*
X141898380Y-129866476D02*
X141898380Y-130437904D01*
X141898380Y-130152190D02*
X140898380Y-130152190D01*
X141041238Y-130247428D01*
X141136476Y-130342666D01*
X141184095Y-130437904D01*
X141231714Y-129009333D02*
X141898380Y-129009333D01*
X140850761Y-129247428D02*
X141565047Y-129485523D01*
X141565047Y-128866476D01*
X135485380Y-126564285D02*
X134485380Y-126564285D01*
X134485380Y-126326190D01*
X134533000Y-126183333D01*
X134628238Y-126088095D01*
X134723476Y-126040476D01*
X134913952Y-125992857D01*
X135056809Y-125992857D01*
X135247285Y-126040476D01*
X135342523Y-126088095D01*
X135437761Y-126183333D01*
X135485380Y-126326190D01*
X135485380Y-126564285D01*
X135485380Y-125040476D02*
X135485380Y-125611904D01*
X135485380Y-125326190D02*
X134485380Y-125326190D01*
X134628238Y-125421428D01*
X134723476Y-125516666D01*
X134771095Y-125611904D01*
X134485380Y-124707142D02*
X134485380Y-124088095D01*
X134866333Y-124421428D01*
X134866333Y-124278571D01*
X134913952Y-124183333D01*
X134961571Y-124135714D01*
X135056809Y-124088095D01*
X135294904Y-124088095D01*
X135390142Y-124135714D01*
X135437761Y-124183333D01*
X135485380Y-124278571D01*
X135485380Y-124564285D01*
X135437761Y-124659523D01*
X135390142Y-124707142D01*
X141898380Y-117546285D02*
X140898380Y-117546285D01*
X140898380Y-117308190D01*
X140946000Y-117165333D01*
X141041238Y-117070095D01*
X141136476Y-117022476D01*
X141326952Y-116974857D01*
X141469809Y-116974857D01*
X141660285Y-117022476D01*
X141755523Y-117070095D01*
X141850761Y-117165333D01*
X141898380Y-117308190D01*
X141898380Y-117546285D01*
X141898380Y-116022476D02*
X141898380Y-116593904D01*
X141898380Y-116308190D02*
X140898380Y-116308190D01*
X141041238Y-116403428D01*
X141136476Y-116498666D01*
X141184095Y-116593904D01*
X140993619Y-115641523D02*
X140946000Y-115593904D01*
X140898380Y-115498666D01*
X140898380Y-115260571D01*
X140946000Y-115165333D01*
X140993619Y-115117714D01*
X141088857Y-115070095D01*
X141184095Y-115070095D01*
X141326952Y-115117714D01*
X141898380Y-115689142D01*
X141898380Y-115070095D01*
X135485380Y-112721285D02*
X134485380Y-112721285D01*
X134485380Y-112483190D01*
X134533000Y-112340333D01*
X134628238Y-112245095D01*
X134723476Y-112197476D01*
X134913952Y-112149857D01*
X135056809Y-112149857D01*
X135247285Y-112197476D01*
X135342523Y-112245095D01*
X135437761Y-112340333D01*
X135485380Y-112483190D01*
X135485380Y-112721285D01*
X135485380Y-111197476D02*
X135485380Y-111768904D01*
X135485380Y-111483190D02*
X134485380Y-111483190D01*
X134628238Y-111578428D01*
X134723476Y-111673666D01*
X134771095Y-111768904D01*
X135485380Y-110245095D02*
X135485380Y-110816523D01*
X135485380Y-110530809D02*
X134485380Y-110530809D01*
X134628238Y-110626047D01*
X134723476Y-110721285D01*
X134771095Y-110816523D01*
X137072380Y-139008285D02*
X136072380Y-139008285D01*
X136072380Y-138770190D01*
X136120000Y-138627333D01*
X136215238Y-138532095D01*
X136310476Y-138484476D01*
X136500952Y-138436857D01*
X136643809Y-138436857D01*
X136834285Y-138484476D01*
X136929523Y-138532095D01*
X137024761Y-138627333D01*
X137072380Y-138770190D01*
X137072380Y-139008285D01*
X137072380Y-137484476D02*
X137072380Y-138055904D01*
X137072380Y-137770190D02*
X136072380Y-137770190D01*
X136215238Y-137865428D01*
X136310476Y-137960666D01*
X136358095Y-138055904D01*
X136072380Y-136865428D02*
X136072380Y-136770190D01*
X136120000Y-136674952D01*
X136167619Y-136627333D01*
X136262857Y-136579714D01*
X136453333Y-136532095D01*
X136691428Y-136532095D01*
X136881904Y-136579714D01*
X136977142Y-136627333D01*
X137024761Y-136674952D01*
X137072380Y-136770190D01*
X137072380Y-136865428D01*
X137024761Y-136960666D01*
X136977142Y-137008285D01*
X136881904Y-137055904D01*
X136691428Y-137103523D01*
X136453333Y-137103523D01*
X136262857Y-137055904D01*
X136167619Y-137008285D01*
X136120000Y-136960666D01*
X136072380Y-136865428D01*
X144311380Y-130914095D02*
X143311380Y-130914095D01*
X143311380Y-130676000D01*
X143359000Y-130533142D01*
X143454238Y-130437904D01*
X143549476Y-130390285D01*
X143739952Y-130342666D01*
X143882809Y-130342666D01*
X144073285Y-130390285D01*
X144168523Y-130437904D01*
X144263761Y-130533142D01*
X144311380Y-130676000D01*
X144311380Y-130914095D01*
X144311380Y-129866476D02*
X144311380Y-129676000D01*
X144263761Y-129580761D01*
X144216142Y-129533142D01*
X144073285Y-129437904D01*
X143882809Y-129390285D01*
X143501857Y-129390285D01*
X143406619Y-129437904D01*
X143359000Y-129485523D01*
X143311380Y-129580761D01*
X143311380Y-129771238D01*
X143359000Y-129866476D01*
X143406619Y-129914095D01*
X143501857Y-129961714D01*
X143739952Y-129961714D01*
X143835190Y-129914095D01*
X143882809Y-129866476D01*
X143930428Y-129771238D01*
X143930428Y-129580761D01*
X143882809Y-129485523D01*
X143835190Y-129437904D01*
X143739952Y-129390285D01*
X133072380Y-126088095D02*
X132072380Y-126088095D01*
X132072380Y-125850000D01*
X132120000Y-125707142D01*
X132215238Y-125611904D01*
X132310476Y-125564285D01*
X132500952Y-125516666D01*
X132643809Y-125516666D01*
X132834285Y-125564285D01*
X132929523Y-125611904D01*
X133024761Y-125707142D01*
X133072380Y-125850000D01*
X133072380Y-126088095D01*
X132500952Y-124945238D02*
X132453333Y-125040476D01*
X132405714Y-125088095D01*
X132310476Y-125135714D01*
X132262857Y-125135714D01*
X132167619Y-125088095D01*
X132120000Y-125040476D01*
X132072380Y-124945238D01*
X132072380Y-124754761D01*
X132120000Y-124659523D01*
X132167619Y-124611904D01*
X132262857Y-124564285D01*
X132310476Y-124564285D01*
X132405714Y-124611904D01*
X132453333Y-124659523D01*
X132500952Y-124754761D01*
X132500952Y-124945238D01*
X132548571Y-125040476D01*
X132596190Y-125088095D01*
X132691428Y-125135714D01*
X132881904Y-125135714D01*
X132977142Y-125088095D01*
X133024761Y-125040476D01*
X133072380Y-124945238D01*
X133072380Y-124754761D01*
X133024761Y-124659523D01*
X132977142Y-124611904D01*
X132881904Y-124564285D01*
X132691428Y-124564285D01*
X132596190Y-124611904D01*
X132548571Y-124659523D01*
X132500952Y-124754761D01*
X144311380Y-117070095D02*
X143311380Y-117070095D01*
X143311380Y-116832000D01*
X143359000Y-116689142D01*
X143454238Y-116593904D01*
X143549476Y-116546285D01*
X143739952Y-116498666D01*
X143882809Y-116498666D01*
X144073285Y-116546285D01*
X144168523Y-116593904D01*
X144263761Y-116689142D01*
X144311380Y-116832000D01*
X144311380Y-117070095D01*
X143311380Y-116165333D02*
X143311380Y-115498666D01*
X144311380Y-115927238D01*
X133072380Y-112245095D02*
X132072380Y-112245095D01*
X132072380Y-112007000D01*
X132120000Y-111864142D01*
X132215238Y-111768904D01*
X132310476Y-111721285D01*
X132500952Y-111673666D01*
X132643809Y-111673666D01*
X132834285Y-111721285D01*
X132929523Y-111768904D01*
X133024761Y-111864142D01*
X133072380Y-112007000D01*
X133072380Y-112245095D01*
X132072380Y-110816523D02*
X132072380Y-111007000D01*
X132120000Y-111102238D01*
X132167619Y-111149857D01*
X132310476Y-111245095D01*
X132500952Y-111292714D01*
X132881904Y-111292714D01*
X132977142Y-111245095D01*
X133024761Y-111197476D01*
X133072380Y-111102238D01*
X133072380Y-110911761D01*
X133024761Y-110816523D01*
X132977142Y-110768904D01*
X132881904Y-110721285D01*
X132643809Y-110721285D01*
X132548571Y-110768904D01*
X132500952Y-110816523D01*
X132453333Y-110911761D01*
X132453333Y-111102238D01*
X132500952Y-111197476D01*
X132548571Y-111245095D01*
X132643809Y-111292714D01*
X134659380Y-138532095D02*
X133659380Y-138532095D01*
X133659380Y-138294000D01*
X133707000Y-138151142D01*
X133802238Y-138055904D01*
X133897476Y-138008285D01*
X134087952Y-137960666D01*
X134230809Y-137960666D01*
X134421285Y-138008285D01*
X134516523Y-138055904D01*
X134611761Y-138151142D01*
X134659380Y-138294000D01*
X134659380Y-138532095D01*
X133659380Y-137055904D02*
X133659380Y-137532095D01*
X134135571Y-137579714D01*
X134087952Y-137532095D01*
X134040333Y-137436857D01*
X134040333Y-137198761D01*
X134087952Y-137103523D01*
X134135571Y-137055904D01*
X134230809Y-137008285D01*
X134468904Y-137008285D01*
X134564142Y-137055904D01*
X134611761Y-137103523D01*
X134659380Y-137198761D01*
X134659380Y-137436857D01*
X134611761Y-137532095D01*
X134564142Y-137579714D01*
X146724380Y-130912095D02*
X145724380Y-130912095D01*
X145724380Y-130674000D01*
X145772000Y-130531142D01*
X145867238Y-130435904D01*
X145962476Y-130388285D01*
X146152952Y-130340666D01*
X146295809Y-130340666D01*
X146486285Y-130388285D01*
X146581523Y-130435904D01*
X146676761Y-130531142D01*
X146724380Y-130674000D01*
X146724380Y-130912095D01*
X146057714Y-129483523D02*
X146724380Y-129483523D01*
X145676761Y-129721619D02*
X146391047Y-129959714D01*
X146391047Y-129340666D01*
X130659380Y-126088095D02*
X129659380Y-126088095D01*
X129659380Y-125850000D01*
X129707000Y-125707142D01*
X129802238Y-125611904D01*
X129897476Y-125564285D01*
X130087952Y-125516666D01*
X130230809Y-125516666D01*
X130421285Y-125564285D01*
X130516523Y-125611904D01*
X130611761Y-125707142D01*
X130659380Y-125850000D01*
X130659380Y-126088095D01*
X129659380Y-125183333D02*
X129659380Y-124564285D01*
X130040333Y-124897619D01*
X130040333Y-124754761D01*
X130087952Y-124659523D01*
X130135571Y-124611904D01*
X130230809Y-124564285D01*
X130468904Y-124564285D01*
X130564142Y-124611904D01*
X130611761Y-124659523D01*
X130659380Y-124754761D01*
X130659380Y-125040476D01*
X130611761Y-125135714D01*
X130564142Y-125183333D01*
X146724380Y-117071095D02*
X145724380Y-117071095D01*
X145724380Y-116833000D01*
X145772000Y-116690142D01*
X145867238Y-116594904D01*
X145962476Y-116547285D01*
X146152952Y-116499666D01*
X146295809Y-116499666D01*
X146486285Y-116547285D01*
X146581523Y-116594904D01*
X146676761Y-116690142D01*
X146724380Y-116833000D01*
X146724380Y-117071095D01*
X145819619Y-116118714D02*
X145772000Y-116071095D01*
X145724380Y-115975857D01*
X145724380Y-115737761D01*
X145772000Y-115642523D01*
X145819619Y-115594904D01*
X145914857Y-115547285D01*
X146010095Y-115547285D01*
X146152952Y-115594904D01*
X146724380Y-116166333D01*
X146724380Y-115547285D01*
X130659380Y-112245095D02*
X129659380Y-112245095D01*
X129659380Y-112007000D01*
X129707000Y-111864142D01*
X129802238Y-111768904D01*
X129897476Y-111721285D01*
X130087952Y-111673666D01*
X130230809Y-111673666D01*
X130421285Y-111721285D01*
X130516523Y-111768904D01*
X130611761Y-111864142D01*
X130659380Y-112007000D01*
X130659380Y-112245095D01*
X130659380Y-110721285D02*
X130659380Y-111292714D01*
X130659380Y-111007000D02*
X129659380Y-111007000D01*
X129802238Y-111102238D01*
X129897476Y-111197476D01*
X129945095Y-111292714D01*
X136889961Y-81753663D02*
X136889961Y-81821006D01*
X136822617Y-81955693D01*
X136755274Y-82023037D01*
X136620586Y-82090380D01*
X136485899Y-82090380D01*
X136384884Y-82056709D01*
X136216525Y-81955693D01*
X136115510Y-81854678D01*
X136014495Y-81686319D01*
X135980823Y-81585304D01*
X135980823Y-81450617D01*
X136048167Y-81315930D01*
X136115510Y-81248586D01*
X136250197Y-81181243D01*
X136317541Y-81181243D01*
X136485899Y-80878197D02*
X136957304Y-80406793D01*
X137361365Y-81416945D01*
X157765413Y-89421115D02*
X157765413Y-89488458D01*
X157698069Y-89623145D01*
X157630726Y-89690489D01*
X157496038Y-89757832D01*
X157361351Y-89757832D01*
X157260336Y-89724161D01*
X157091977Y-89623145D01*
X156990962Y-89522130D01*
X156889947Y-89353771D01*
X156856275Y-89252756D01*
X156856275Y-89118069D01*
X156923619Y-88983382D01*
X156990962Y-88916038D01*
X157125649Y-88848695D01*
X157192993Y-88848695D01*
X157731741Y-88175260D02*
X157597054Y-88309947D01*
X157563382Y-88410962D01*
X157563382Y-88478306D01*
X157597054Y-88646664D01*
X157698069Y-88815023D01*
X157967443Y-89084397D01*
X158068458Y-89118069D01*
X158135802Y-89118069D01*
X158236817Y-89084397D01*
X158371504Y-88949710D01*
X158405176Y-88848695D01*
X158405176Y-88781351D01*
X158371504Y-88680336D01*
X158203145Y-88511977D01*
X158102130Y-88478306D01*
X158034787Y-88478306D01*
X157933771Y-88511977D01*
X157799084Y-88646664D01*
X157765413Y-88747680D01*
X157765413Y-88815023D01*
X157799084Y-88916038D01*
X137674423Y-93555048D02*
X137607080Y-93555048D01*
X137472393Y-93487704D01*
X137405049Y-93420361D01*
X137337706Y-93285673D01*
X137337706Y-93150986D01*
X137371377Y-93049971D01*
X137472393Y-92881612D01*
X137573408Y-92780597D01*
X137741767Y-92679582D01*
X137842782Y-92645910D01*
X137977469Y-92645910D01*
X138112156Y-92713254D01*
X138179500Y-92780597D01*
X138246843Y-92915284D01*
X138246843Y-92982628D01*
X138953950Y-93555048D02*
X138617232Y-93218330D01*
X138246843Y-93521376D01*
X138314187Y-93521376D01*
X138415202Y-93555048D01*
X138583561Y-93723406D01*
X138617232Y-93824422D01*
X138617232Y-93891765D01*
X138583561Y-93992780D01*
X138415202Y-94161139D01*
X138314187Y-94194811D01*
X138246843Y-94194811D01*
X138145828Y-94161139D01*
X137977469Y-93992780D01*
X137943797Y-93891765D01*
X137943797Y-93824422D01*
X135893500Y-98593028D02*
X135893500Y-98660371D01*
X135826156Y-98795058D01*
X135758813Y-98862402D01*
X135624125Y-98929745D01*
X135489438Y-98929745D01*
X135388423Y-98896074D01*
X135220064Y-98795058D01*
X135119049Y-98694043D01*
X135018034Y-98525684D01*
X134984362Y-98424669D01*
X134984362Y-98289982D01*
X135051706Y-98155295D01*
X135119049Y-98087951D01*
X135253736Y-98020608D01*
X135321080Y-98020608D01*
X136095530Y-97582875D02*
X136566935Y-98054280D01*
X135657797Y-97481860D02*
X135994515Y-98155295D01*
X136432248Y-97717562D01*
X139275048Y-101720576D02*
X139275048Y-101787919D01*
X139207704Y-101922606D01*
X139140361Y-101989950D01*
X139005673Y-102057293D01*
X138870986Y-102057293D01*
X138769971Y-102023622D01*
X138601612Y-101922606D01*
X138500597Y-101821591D01*
X138399582Y-101653232D01*
X138365910Y-101552217D01*
X138365910Y-101417530D01*
X138433254Y-101282843D01*
X138500597Y-101215499D01*
X138635284Y-101148156D01*
X138702628Y-101148156D01*
X138870986Y-100845110D02*
X139308719Y-100407377D01*
X139342391Y-100912454D01*
X139443406Y-100811438D01*
X139544422Y-100777767D01*
X139611765Y-100777767D01*
X139712780Y-100811438D01*
X139881139Y-100979797D01*
X139914811Y-101080812D01*
X139914811Y-101148156D01*
X139881139Y-101249171D01*
X139679109Y-101451202D01*
X139578093Y-101484874D01*
X139510750Y-101484874D01*
X141664326Y-85202202D02*
X141664326Y-85269545D01*
X141596982Y-85404232D01*
X141529639Y-85471576D01*
X141394951Y-85538919D01*
X141260264Y-85538919D01*
X141159249Y-85505248D01*
X140990890Y-85404232D01*
X140889875Y-85303217D01*
X140788860Y-85134858D01*
X140755188Y-85033843D01*
X140755188Y-84899156D01*
X140822532Y-84764469D01*
X140889875Y-84697125D01*
X141024562Y-84629782D01*
X141091906Y-84629782D01*
X141361280Y-84360408D02*
X141361280Y-84293064D01*
X141394951Y-84192049D01*
X141563310Y-84023690D01*
X141664326Y-83990019D01*
X141731669Y-83990019D01*
X141832684Y-84023690D01*
X141900028Y-84091034D01*
X141967371Y-84225721D01*
X141967371Y-85033843D01*
X142405104Y-84596110D01*
X149891413Y-101486115D02*
X149891413Y-101553458D01*
X149824069Y-101688145D01*
X149756726Y-101755489D01*
X149622038Y-101822832D01*
X149487351Y-101822832D01*
X149386336Y-101789161D01*
X149217977Y-101688145D01*
X149116962Y-101587130D01*
X149015947Y-101418771D01*
X148982275Y-101317756D01*
X148982275Y-101183069D01*
X149049619Y-101048382D01*
X149116962Y-100981038D01*
X149251649Y-100913695D01*
X149318993Y-100913695D01*
X150632191Y-100880023D02*
X150228130Y-101284084D01*
X150430161Y-101082054D02*
X149723054Y-100374947D01*
X149756726Y-100543306D01*
X149756726Y-100677993D01*
X149723054Y-100779008D01*
M02*
