G04 #@! TF.GenerationSoftware,KiCad,Pcbnew,(5.1.5)-3*
G04 #@! TF.CreationDate,2020-05-25T21:03:39-04:00*
G04 #@! TF.ProjectId,5-12,352d3132-2e6b-4696-9361-645f70636258,rev?*
G04 #@! TF.SameCoordinates,Original*
G04 #@! TF.FileFunction,Copper,L1,Top*
G04 #@! TF.FilePolarity,Positive*
%FSLAX46Y46*%
G04 Gerber Fmt 4.6, Leading zero omitted, Abs format (unit mm)*
G04 Created by KiCad (PCBNEW (5.1.5)-3) date 2020-05-25 21:03:39*
%MOMM*%
%LPD*%
G04 APERTURE LIST*
%ADD10C,0.300000*%
%ADD11C,2.250000*%
%ADD12C,0.100000*%
%ADD13O,1.700000X2.700000*%
%ADD14R,0.500000X2.250000*%
%ADD15R,1.800000X1.100000*%
%ADD16R,1.200000X0.900000*%
%ADD17C,0.800000*%
%ADD18C,0.381000*%
%ADD19C,0.254000*%
G04 APERTURE END LIST*
D10*
X139696714Y-155063142D02*
X138411000Y-156991714D01*
X140839571Y-155634571D02*
X140839571Y-156634571D01*
X140196714Y-155634571D02*
X140196714Y-156420285D01*
X140268142Y-156563142D01*
X140411000Y-156634571D01*
X140625285Y-156634571D01*
X140768142Y-156563142D01*
X140839571Y-156491714D01*
X142625285Y-155063142D02*
X141339571Y-156991714D01*
X143911000Y-155206000D02*
X143768142Y-155134571D01*
X143553857Y-155134571D01*
X143339571Y-155206000D01*
X143196714Y-155348857D01*
X143125285Y-155491714D01*
X143053857Y-155777428D01*
X143053857Y-155991714D01*
X143125285Y-156277428D01*
X143196714Y-156420285D01*
X143339571Y-156563142D01*
X143553857Y-156634571D01*
X143696714Y-156634571D01*
X143911000Y-156563142D01*
X143982428Y-156491714D01*
X143982428Y-155991714D01*
X143696714Y-155991714D01*
X144625285Y-156634571D02*
X144625285Y-155634571D01*
X144625285Y-155134571D02*
X144553857Y-155206000D01*
X144625285Y-155277428D01*
X144696714Y-155206000D01*
X144625285Y-155134571D01*
X144625285Y-155277428D01*
X145982428Y-155634571D02*
X145982428Y-156848857D01*
X145911000Y-156991714D01*
X145839571Y-157063142D01*
X145696714Y-157134571D01*
X145482428Y-157134571D01*
X145339571Y-157063142D01*
X145982428Y-156563142D02*
X145839571Y-156634571D01*
X145553857Y-156634571D01*
X145411000Y-156563142D01*
X145339571Y-156491714D01*
X145268142Y-156348857D01*
X145268142Y-155920285D01*
X145339571Y-155777428D01*
X145411000Y-155706000D01*
X145553857Y-155634571D01*
X145839571Y-155634571D01*
X145982428Y-155706000D01*
X147339571Y-156634571D02*
X147339571Y-155848857D01*
X147268142Y-155706000D01*
X147125285Y-155634571D01*
X146839571Y-155634571D01*
X146696714Y-155706000D01*
X147339571Y-156563142D02*
X147196714Y-156634571D01*
X146839571Y-156634571D01*
X146696714Y-156563142D01*
X146625285Y-156420285D01*
X146625285Y-156277428D01*
X146696714Y-156134571D01*
X146839571Y-156063142D01*
X147196714Y-156063142D01*
X147339571Y-155991714D01*
X147839571Y-155634571D02*
X148411000Y-155634571D01*
X148053857Y-156634571D02*
X148053857Y-155348857D01*
X148125285Y-155206000D01*
X148268142Y-155134571D01*
X148411000Y-155134571D01*
X149125285Y-156634571D02*
X148982428Y-156563142D01*
X148911000Y-156420285D01*
X148911000Y-155134571D01*
X149911000Y-156634571D02*
X149768142Y-156563142D01*
X149696714Y-156491714D01*
X149625285Y-156348857D01*
X149625285Y-155920285D01*
X149696714Y-155777428D01*
X149768142Y-155706000D01*
X149911000Y-155634571D01*
X150125285Y-155634571D01*
X150268142Y-155706000D01*
X150339571Y-155777428D01*
X150411000Y-155920285D01*
X150411000Y-156348857D01*
X150339571Y-156491714D01*
X150268142Y-156563142D01*
X150125285Y-156634571D01*
X149911000Y-156634571D01*
X151053857Y-155634571D02*
X151053857Y-157134571D01*
X151053857Y-155706000D02*
X151196714Y-155634571D01*
X151482428Y-155634571D01*
X151625285Y-155706000D01*
X151696714Y-155777428D01*
X151768142Y-155920285D01*
X151768142Y-156348857D01*
X151696714Y-156491714D01*
X151625285Y-156563142D01*
X151482428Y-156634571D01*
X151196714Y-156634571D01*
X151053857Y-156563142D01*
D11*
X166846250Y-149701250D03*
X160496250Y-152241250D03*
X119221250Y-73501250D03*
X112871250Y-76041250D03*
X271621250Y-149701250D03*
X265271250Y-152241250D03*
X271621250Y-130651250D03*
X265271250Y-133191250D03*
X271621250Y-111601250D03*
X265271250Y-114141250D03*
X271621250Y-92551250D03*
X265271250Y-95091250D03*
X271621250Y-73501250D03*
X265271250Y-76041250D03*
X252571250Y-149701250D03*
X246221250Y-152241250D03*
X252571250Y-130651250D03*
X246221250Y-133191250D03*
X252571250Y-111601250D03*
X246221250Y-114141250D03*
X252571250Y-92551250D03*
X246221250Y-95091250D03*
X252571250Y-73501250D03*
X246221250Y-76041250D03*
X233521250Y-149701250D03*
X227171250Y-152241250D03*
X233521250Y-130651250D03*
X227171250Y-133191250D03*
X233521250Y-111601250D03*
X227171250Y-114141250D03*
X233521250Y-92551250D03*
X227171250Y-95091250D03*
X233521250Y-73501250D03*
X227171250Y-76041250D03*
X214471250Y-149701250D03*
X208121250Y-152241250D03*
X214471250Y-130651250D03*
X208121250Y-133191250D03*
X214471250Y-111601250D03*
X208121250Y-114141250D03*
X214471250Y-92551250D03*
X208121250Y-95091250D03*
X214471250Y-73501250D03*
X208121250Y-76041250D03*
X195421250Y-149701250D03*
X189071250Y-152241250D03*
X195421250Y-130651250D03*
X189071250Y-133191250D03*
X195421250Y-111601250D03*
X189071250Y-114141250D03*
X195421250Y-92551250D03*
X189071250Y-95091250D03*
X195421250Y-73501250D03*
X189071250Y-76041250D03*
X176371250Y-130651250D03*
X170021250Y-133191250D03*
X176371250Y-111601250D03*
X170021250Y-114141250D03*
X176371250Y-92551250D03*
X170021250Y-95091250D03*
X176371250Y-73501250D03*
X170021250Y-76041250D03*
X119221250Y-130651250D03*
X112871250Y-133191250D03*
X119221250Y-111601250D03*
X112871250Y-114141250D03*
X119221250Y-92551250D03*
X112871250Y-95091250D03*
X100171250Y-149701250D03*
X93821250Y-152241250D03*
X100171250Y-130651250D03*
X93821250Y-133191250D03*
X100171250Y-111601250D03*
X93821250Y-114141250D03*
X100171250Y-92551250D03*
X93821250Y-95091250D03*
X100171250Y-73501250D03*
X93821250Y-76041250D03*
X81121250Y-149701250D03*
X74771250Y-152241250D03*
X81121250Y-130651250D03*
X74771250Y-133191250D03*
X81121250Y-111601250D03*
X74771250Y-114141250D03*
X81121250Y-92551250D03*
X74771250Y-95091250D03*
X81121250Y-73501250D03*
X74771250Y-76041250D03*
X62071250Y-149701250D03*
X55721250Y-152241250D03*
X62071250Y-130651250D03*
X55721250Y-133191250D03*
X62071250Y-111601250D03*
X55721250Y-114141250D03*
X62071250Y-92551250D03*
X55721250Y-95091250D03*
X62071250Y-73501250D03*
X55721250Y-76041250D03*
X43021250Y-149701250D03*
X36671250Y-152241250D03*
X43021250Y-130651250D03*
X36671250Y-133191250D03*
X43021250Y-111601250D03*
X36671250Y-114141250D03*
X43021250Y-92551250D03*
X36671250Y-95091250D03*
X43021250Y-73501250D03*
X36671250Y-76041250D03*
X23971250Y-149701250D03*
X17621250Y-152241250D03*
X23971250Y-130651250D03*
X17621250Y-133191250D03*
X23971250Y-111601250D03*
X17621250Y-114141250D03*
X23971250Y-73501250D03*
X17621250Y-76041250D03*
X128746250Y-149701250D03*
X122396250Y-152241250D03*
X23971250Y-92551250D03*
X17621250Y-95091250D03*
G04 #@! TA.AperFunction,SMDPad,CuDef*
D12*
G36*
X135921431Y-100703016D02*
G01*
X135072903Y-99854488D01*
X136062853Y-98864538D01*
X136911381Y-99713066D01*
X135921431Y-100703016D01*
G37*
G04 #@! TD.AperFunction*
G04 #@! TA.AperFunction,SMDPad,CuDef*
G36*
X137477066Y-99147381D02*
G01*
X136628538Y-98298853D01*
X137618488Y-97308903D01*
X138467016Y-98157431D01*
X137477066Y-99147381D01*
G37*
G04 #@! TD.AperFunction*
G04 #@! TA.AperFunction,SMDPad,CuDef*
G36*
X138679147Y-100349462D02*
G01*
X137830619Y-99500934D01*
X138820569Y-98510984D01*
X139669097Y-99359512D01*
X138679147Y-100349462D01*
G37*
G04 #@! TD.AperFunction*
G04 #@! TA.AperFunction,SMDPad,CuDef*
G36*
X137123512Y-101905097D02*
G01*
X136274984Y-101056569D01*
X137264934Y-100066619D01*
X138113462Y-100915147D01*
X137123512Y-101905097D01*
G37*
G04 #@! TD.AperFunction*
D13*
X149356250Y-70643750D03*
X142056250Y-70643750D03*
X142056250Y-75143750D03*
X149356250Y-75143750D03*
D14*
X147306250Y-75143750D03*
X146506250Y-75143750D03*
X145706250Y-75143750D03*
X144906250Y-75143750D03*
X144106250Y-75143750D03*
G04 #@! TA.AperFunction,SMDPad,CuDef*
D12*
G36*
X146979706Y-85274098D02*
G01*
X146590798Y-84885190D01*
X147651458Y-83824530D01*
X148040366Y-84213438D01*
X146979706Y-85274098D01*
G37*
G04 #@! TD.AperFunction*
G04 #@! TA.AperFunction,SMDPad,CuDef*
G36*
X147545391Y-85839784D02*
G01*
X147156483Y-85450876D01*
X148217143Y-84390216D01*
X148606051Y-84779124D01*
X147545391Y-85839784D01*
G37*
G04 #@! TD.AperFunction*
G04 #@! TA.AperFunction,SMDPad,CuDef*
G36*
X148111076Y-86405469D02*
G01*
X147722168Y-86016561D01*
X148782828Y-84955901D01*
X149171736Y-85344809D01*
X148111076Y-86405469D01*
G37*
G04 #@! TD.AperFunction*
G04 #@! TA.AperFunction,SMDPad,CuDef*
G36*
X148676762Y-86971154D02*
G01*
X148287854Y-86582246D01*
X149348514Y-85521586D01*
X149737422Y-85910494D01*
X148676762Y-86971154D01*
G37*
G04 #@! TD.AperFunction*
G04 #@! TA.AperFunction,SMDPad,CuDef*
G36*
X149242447Y-87536840D02*
G01*
X148853539Y-87147932D01*
X149914199Y-86087272D01*
X150303107Y-86476180D01*
X149242447Y-87536840D01*
G37*
G04 #@! TD.AperFunction*
G04 #@! TA.AperFunction,SMDPad,CuDef*
G36*
X149808133Y-88102525D02*
G01*
X149419225Y-87713617D01*
X150479885Y-86652957D01*
X150868793Y-87041865D01*
X149808133Y-88102525D01*
G37*
G04 #@! TD.AperFunction*
G04 #@! TA.AperFunction,SMDPad,CuDef*
G36*
X150373818Y-88668211D02*
G01*
X149984910Y-88279303D01*
X151045570Y-87218643D01*
X151434478Y-87607551D01*
X150373818Y-88668211D01*
G37*
G04 #@! TD.AperFunction*
G04 #@! TA.AperFunction,SMDPad,CuDef*
G36*
X150939504Y-89233896D02*
G01*
X150550596Y-88844988D01*
X151611256Y-87784328D01*
X152000164Y-88173236D01*
X150939504Y-89233896D01*
G37*
G04 #@! TD.AperFunction*
G04 #@! TA.AperFunction,SMDPad,CuDef*
G36*
X151505189Y-89799582D02*
G01*
X151116281Y-89410674D01*
X152176941Y-88350014D01*
X152565849Y-88738922D01*
X151505189Y-89799582D01*
G37*
G04 #@! TD.AperFunction*
G04 #@! TA.AperFunction,SMDPad,CuDef*
G36*
X152070874Y-90365267D02*
G01*
X151681966Y-89976359D01*
X152742626Y-88915699D01*
X153131534Y-89304607D01*
X152070874Y-90365267D01*
G37*
G04 #@! TD.AperFunction*
G04 #@! TA.AperFunction,SMDPad,CuDef*
G36*
X152636560Y-90930952D02*
G01*
X152247652Y-90542044D01*
X153308312Y-89481384D01*
X153697220Y-89870292D01*
X152636560Y-90930952D01*
G37*
G04 #@! TD.AperFunction*
G04 #@! TA.AperFunction,SMDPad,CuDef*
G36*
X152247652Y-92274456D02*
G01*
X152636560Y-91885548D01*
X153697220Y-92946208D01*
X153308312Y-93335116D01*
X152247652Y-92274456D01*
G37*
G04 #@! TD.AperFunction*
G04 #@! TA.AperFunction,SMDPad,CuDef*
G36*
X151681966Y-92840141D02*
G01*
X152070874Y-92451233D01*
X153131534Y-93511893D01*
X152742626Y-93900801D01*
X151681966Y-92840141D01*
G37*
G04 #@! TD.AperFunction*
G04 #@! TA.AperFunction,SMDPad,CuDef*
G36*
X151116281Y-93405826D02*
G01*
X151505189Y-93016918D01*
X152565849Y-94077578D01*
X152176941Y-94466486D01*
X151116281Y-93405826D01*
G37*
G04 #@! TD.AperFunction*
G04 #@! TA.AperFunction,SMDPad,CuDef*
G36*
X150550596Y-93971512D02*
G01*
X150939504Y-93582604D01*
X152000164Y-94643264D01*
X151611256Y-95032172D01*
X150550596Y-93971512D01*
G37*
G04 #@! TD.AperFunction*
G04 #@! TA.AperFunction,SMDPad,CuDef*
G36*
X149984910Y-94537197D02*
G01*
X150373818Y-94148289D01*
X151434478Y-95208949D01*
X151045570Y-95597857D01*
X149984910Y-94537197D01*
G37*
G04 #@! TD.AperFunction*
G04 #@! TA.AperFunction,SMDPad,CuDef*
G36*
X149419225Y-95102883D02*
G01*
X149808133Y-94713975D01*
X150868793Y-95774635D01*
X150479885Y-96163543D01*
X149419225Y-95102883D01*
G37*
G04 #@! TD.AperFunction*
G04 #@! TA.AperFunction,SMDPad,CuDef*
G36*
X148853539Y-95668568D02*
G01*
X149242447Y-95279660D01*
X150303107Y-96340320D01*
X149914199Y-96729228D01*
X148853539Y-95668568D01*
G37*
G04 #@! TD.AperFunction*
G04 #@! TA.AperFunction,SMDPad,CuDef*
G36*
X148287854Y-96234254D02*
G01*
X148676762Y-95845346D01*
X149737422Y-96906006D01*
X149348514Y-97294914D01*
X148287854Y-96234254D01*
G37*
G04 #@! TD.AperFunction*
G04 #@! TA.AperFunction,SMDPad,CuDef*
G36*
X147722168Y-96799939D02*
G01*
X148111076Y-96411031D01*
X149171736Y-97471691D01*
X148782828Y-97860599D01*
X147722168Y-96799939D01*
G37*
G04 #@! TD.AperFunction*
G04 #@! TA.AperFunction,SMDPad,CuDef*
G36*
X147156483Y-97365624D02*
G01*
X147545391Y-96976716D01*
X148606051Y-98037376D01*
X148217143Y-98426284D01*
X147156483Y-97365624D01*
G37*
G04 #@! TD.AperFunction*
G04 #@! TA.AperFunction,SMDPad,CuDef*
G36*
X146590798Y-97931310D02*
G01*
X146979706Y-97542402D01*
X148040366Y-98603062D01*
X147651458Y-98991970D01*
X146590798Y-97931310D01*
G37*
G04 #@! TD.AperFunction*
G04 #@! TA.AperFunction,SMDPad,CuDef*
G36*
X144575542Y-98991970D02*
G01*
X144186634Y-98603062D01*
X145247294Y-97542402D01*
X145636202Y-97931310D01*
X144575542Y-98991970D01*
G37*
G04 #@! TD.AperFunction*
G04 #@! TA.AperFunction,SMDPad,CuDef*
G36*
X144009857Y-98426284D02*
G01*
X143620949Y-98037376D01*
X144681609Y-96976716D01*
X145070517Y-97365624D01*
X144009857Y-98426284D01*
G37*
G04 #@! TD.AperFunction*
G04 #@! TA.AperFunction,SMDPad,CuDef*
G36*
X143444172Y-97860599D02*
G01*
X143055264Y-97471691D01*
X144115924Y-96411031D01*
X144504832Y-96799939D01*
X143444172Y-97860599D01*
G37*
G04 #@! TD.AperFunction*
G04 #@! TA.AperFunction,SMDPad,CuDef*
G36*
X142878486Y-97294914D02*
G01*
X142489578Y-96906006D01*
X143550238Y-95845346D01*
X143939146Y-96234254D01*
X142878486Y-97294914D01*
G37*
G04 #@! TD.AperFunction*
G04 #@! TA.AperFunction,SMDPad,CuDef*
G36*
X142312801Y-96729228D02*
G01*
X141923893Y-96340320D01*
X142984553Y-95279660D01*
X143373461Y-95668568D01*
X142312801Y-96729228D01*
G37*
G04 #@! TD.AperFunction*
G04 #@! TA.AperFunction,SMDPad,CuDef*
G36*
X141747115Y-96163543D02*
G01*
X141358207Y-95774635D01*
X142418867Y-94713975D01*
X142807775Y-95102883D01*
X141747115Y-96163543D01*
G37*
G04 #@! TD.AperFunction*
G04 #@! TA.AperFunction,SMDPad,CuDef*
G36*
X141181430Y-95597857D02*
G01*
X140792522Y-95208949D01*
X141853182Y-94148289D01*
X142242090Y-94537197D01*
X141181430Y-95597857D01*
G37*
G04 #@! TD.AperFunction*
G04 #@! TA.AperFunction,SMDPad,CuDef*
G36*
X140615744Y-95032172D02*
G01*
X140226836Y-94643264D01*
X141287496Y-93582604D01*
X141676404Y-93971512D01*
X140615744Y-95032172D01*
G37*
G04 #@! TD.AperFunction*
G04 #@! TA.AperFunction,SMDPad,CuDef*
G36*
X140050059Y-94466486D02*
G01*
X139661151Y-94077578D01*
X140721811Y-93016918D01*
X141110719Y-93405826D01*
X140050059Y-94466486D01*
G37*
G04 #@! TD.AperFunction*
G04 #@! TA.AperFunction,SMDPad,CuDef*
G36*
X139484374Y-93900801D02*
G01*
X139095466Y-93511893D01*
X140156126Y-92451233D01*
X140545034Y-92840141D01*
X139484374Y-93900801D01*
G37*
G04 #@! TD.AperFunction*
G04 #@! TA.AperFunction,SMDPad,CuDef*
G36*
X138918688Y-93335116D02*
G01*
X138529780Y-92946208D01*
X139590440Y-91885548D01*
X139979348Y-92274456D01*
X138918688Y-93335116D01*
G37*
G04 #@! TD.AperFunction*
G04 #@! TA.AperFunction,SMDPad,CuDef*
G36*
X138529780Y-89870292D02*
G01*
X138918688Y-89481384D01*
X139979348Y-90542044D01*
X139590440Y-90930952D01*
X138529780Y-89870292D01*
G37*
G04 #@! TD.AperFunction*
G04 #@! TA.AperFunction,SMDPad,CuDef*
G36*
X139095466Y-89304607D02*
G01*
X139484374Y-88915699D01*
X140545034Y-89976359D01*
X140156126Y-90365267D01*
X139095466Y-89304607D01*
G37*
G04 #@! TD.AperFunction*
G04 #@! TA.AperFunction,SMDPad,CuDef*
G36*
X139661151Y-88738922D02*
G01*
X140050059Y-88350014D01*
X141110719Y-89410674D01*
X140721811Y-89799582D01*
X139661151Y-88738922D01*
G37*
G04 #@! TD.AperFunction*
G04 #@! TA.AperFunction,SMDPad,CuDef*
G36*
X140226836Y-88173236D02*
G01*
X140615744Y-87784328D01*
X141676404Y-88844988D01*
X141287496Y-89233896D01*
X140226836Y-88173236D01*
G37*
G04 #@! TD.AperFunction*
G04 #@! TA.AperFunction,SMDPad,CuDef*
G36*
X140792522Y-87607551D02*
G01*
X141181430Y-87218643D01*
X142242090Y-88279303D01*
X141853182Y-88668211D01*
X140792522Y-87607551D01*
G37*
G04 #@! TD.AperFunction*
G04 #@! TA.AperFunction,SMDPad,CuDef*
G36*
X141358207Y-87041865D02*
G01*
X141747115Y-86652957D01*
X142807775Y-87713617D01*
X142418867Y-88102525D01*
X141358207Y-87041865D01*
G37*
G04 #@! TD.AperFunction*
G04 #@! TA.AperFunction,SMDPad,CuDef*
G36*
X141923893Y-86476180D02*
G01*
X142312801Y-86087272D01*
X143373461Y-87147932D01*
X142984553Y-87536840D01*
X141923893Y-86476180D01*
G37*
G04 #@! TD.AperFunction*
G04 #@! TA.AperFunction,SMDPad,CuDef*
G36*
X142489578Y-85910494D02*
G01*
X142878486Y-85521586D01*
X143939146Y-86582246D01*
X143550238Y-86971154D01*
X142489578Y-85910494D01*
G37*
G04 #@! TD.AperFunction*
G04 #@! TA.AperFunction,SMDPad,CuDef*
G36*
X143055264Y-85344809D02*
G01*
X143444172Y-84955901D01*
X144504832Y-86016561D01*
X144115924Y-86405469D01*
X143055264Y-85344809D01*
G37*
G04 #@! TD.AperFunction*
G04 #@! TA.AperFunction,SMDPad,CuDef*
G36*
X143620949Y-84779124D02*
G01*
X144009857Y-84390216D01*
X145070517Y-85450876D01*
X144681609Y-85839784D01*
X143620949Y-84779124D01*
G37*
G04 #@! TD.AperFunction*
G04 #@! TA.AperFunction,SMDPad,CuDef*
G36*
X144186634Y-84213438D02*
G01*
X144575542Y-83824530D01*
X145636202Y-84885190D01*
X145247294Y-85274098D01*
X144186634Y-84213438D01*
G37*
G04 #@! TD.AperFunction*
D15*
X132461000Y-74947000D03*
X138661000Y-71247000D03*
X132461000Y-71247000D03*
X138661000Y-74947000D03*
G04 #@! TA.AperFunction,SMDPad,CuDef*
D12*
G36*
X155039719Y-93270362D02*
G01*
X155063380Y-93273872D01*
X155086584Y-93279684D01*
X155109106Y-93287742D01*
X155130730Y-93297970D01*
X155151247Y-93310267D01*
X155170460Y-93324517D01*
X155188184Y-93340581D01*
X155833419Y-93985816D01*
X155849483Y-94003540D01*
X155863733Y-94022753D01*
X155876030Y-94043270D01*
X155886258Y-94064894D01*
X155894316Y-94087416D01*
X155900128Y-94110620D01*
X155903638Y-94134281D01*
X155904812Y-94158173D01*
X155903638Y-94182065D01*
X155900128Y-94205726D01*
X155894316Y-94228930D01*
X155886258Y-94251452D01*
X155876030Y-94273076D01*
X155863733Y-94293593D01*
X155849483Y-94312806D01*
X155833419Y-94330530D01*
X155488704Y-94675245D01*
X155470980Y-94691309D01*
X155451767Y-94705559D01*
X155431250Y-94717856D01*
X155409626Y-94728084D01*
X155387104Y-94736142D01*
X155363900Y-94741954D01*
X155340239Y-94745464D01*
X155316347Y-94746638D01*
X155292455Y-94745464D01*
X155268794Y-94741954D01*
X155245590Y-94736142D01*
X155223068Y-94728084D01*
X155201444Y-94717856D01*
X155180927Y-94705559D01*
X155161714Y-94691309D01*
X155143990Y-94675245D01*
X154498755Y-94030010D01*
X154482691Y-94012286D01*
X154468441Y-93993073D01*
X154456144Y-93972556D01*
X154445916Y-93950932D01*
X154437858Y-93928410D01*
X154432046Y-93905206D01*
X154428536Y-93881545D01*
X154427362Y-93857653D01*
X154428536Y-93833761D01*
X154432046Y-93810100D01*
X154437858Y-93786896D01*
X154445916Y-93764374D01*
X154456144Y-93742750D01*
X154468441Y-93722233D01*
X154482691Y-93703020D01*
X154498755Y-93685296D01*
X154843470Y-93340581D01*
X154861194Y-93324517D01*
X154880407Y-93310267D01*
X154900924Y-93297970D01*
X154922548Y-93287742D01*
X154945070Y-93279684D01*
X154968274Y-93273872D01*
X154991935Y-93270362D01*
X155015827Y-93269188D01*
X155039719Y-93270362D01*
G37*
G04 #@! TD.AperFunction*
G04 #@! TA.AperFunction,SMDPad,CuDef*
G36*
X156365545Y-91944536D02*
G01*
X156389206Y-91948046D01*
X156412410Y-91953858D01*
X156434932Y-91961916D01*
X156456556Y-91972144D01*
X156477073Y-91984441D01*
X156496286Y-91998691D01*
X156514010Y-92014755D01*
X157159245Y-92659990D01*
X157175309Y-92677714D01*
X157189559Y-92696927D01*
X157201856Y-92717444D01*
X157212084Y-92739068D01*
X157220142Y-92761590D01*
X157225954Y-92784794D01*
X157229464Y-92808455D01*
X157230638Y-92832347D01*
X157229464Y-92856239D01*
X157225954Y-92879900D01*
X157220142Y-92903104D01*
X157212084Y-92925626D01*
X157201856Y-92947250D01*
X157189559Y-92967767D01*
X157175309Y-92986980D01*
X157159245Y-93004704D01*
X156814530Y-93349419D01*
X156796806Y-93365483D01*
X156777593Y-93379733D01*
X156757076Y-93392030D01*
X156735452Y-93402258D01*
X156712930Y-93410316D01*
X156689726Y-93416128D01*
X156666065Y-93419638D01*
X156642173Y-93420812D01*
X156618281Y-93419638D01*
X156594620Y-93416128D01*
X156571416Y-93410316D01*
X156548894Y-93402258D01*
X156527270Y-93392030D01*
X156506753Y-93379733D01*
X156487540Y-93365483D01*
X156469816Y-93349419D01*
X155824581Y-92704184D01*
X155808517Y-92686460D01*
X155794267Y-92667247D01*
X155781970Y-92646730D01*
X155771742Y-92625106D01*
X155763684Y-92602584D01*
X155757872Y-92579380D01*
X155754362Y-92555719D01*
X155753188Y-92531827D01*
X155754362Y-92507935D01*
X155757872Y-92484274D01*
X155763684Y-92461070D01*
X155771742Y-92438548D01*
X155781970Y-92416924D01*
X155794267Y-92396407D01*
X155808517Y-92377194D01*
X155824581Y-92359470D01*
X156169296Y-92014755D01*
X156187020Y-91998691D01*
X156206233Y-91984441D01*
X156226750Y-91972144D01*
X156248374Y-91961916D01*
X156270896Y-91953858D01*
X156294100Y-91948046D01*
X156317761Y-91944536D01*
X156341653Y-91943362D01*
X156365545Y-91944536D01*
G37*
G04 #@! TD.AperFunction*
G04 #@! TA.AperFunction,SMDPad,CuDef*
G36*
X131615642Y-77787174D02*
G01*
X131639303Y-77790684D01*
X131662507Y-77796496D01*
X131685029Y-77804554D01*
X131706653Y-77814782D01*
X131727170Y-77827079D01*
X131746383Y-77841329D01*
X131764107Y-77857393D01*
X131780171Y-77875117D01*
X131794421Y-77894330D01*
X131806718Y-77914847D01*
X131816946Y-77936471D01*
X131825004Y-77958993D01*
X131830816Y-77982197D01*
X131834326Y-78005858D01*
X131835500Y-78029750D01*
X131835500Y-78942250D01*
X131834326Y-78966142D01*
X131830816Y-78989803D01*
X131825004Y-79013007D01*
X131816946Y-79035529D01*
X131806718Y-79057153D01*
X131794421Y-79077670D01*
X131780171Y-79096883D01*
X131764107Y-79114607D01*
X131746383Y-79130671D01*
X131727170Y-79144921D01*
X131706653Y-79157218D01*
X131685029Y-79167446D01*
X131662507Y-79175504D01*
X131639303Y-79181316D01*
X131615642Y-79184826D01*
X131591750Y-79186000D01*
X131104250Y-79186000D01*
X131080358Y-79184826D01*
X131056697Y-79181316D01*
X131033493Y-79175504D01*
X131010971Y-79167446D01*
X130989347Y-79157218D01*
X130968830Y-79144921D01*
X130949617Y-79130671D01*
X130931893Y-79114607D01*
X130915829Y-79096883D01*
X130901579Y-79077670D01*
X130889282Y-79057153D01*
X130879054Y-79035529D01*
X130870996Y-79013007D01*
X130865184Y-78989803D01*
X130861674Y-78966142D01*
X130860500Y-78942250D01*
X130860500Y-78029750D01*
X130861674Y-78005858D01*
X130865184Y-77982197D01*
X130870996Y-77958993D01*
X130879054Y-77936471D01*
X130889282Y-77914847D01*
X130901579Y-77894330D01*
X130915829Y-77875117D01*
X130931893Y-77857393D01*
X130949617Y-77841329D01*
X130968830Y-77827079D01*
X130989347Y-77814782D01*
X131010971Y-77804554D01*
X131033493Y-77796496D01*
X131056697Y-77790684D01*
X131080358Y-77787174D01*
X131104250Y-77786000D01*
X131591750Y-77786000D01*
X131615642Y-77787174D01*
G37*
G04 #@! TD.AperFunction*
G04 #@! TA.AperFunction,SMDPad,CuDef*
G36*
X133490642Y-77787174D02*
G01*
X133514303Y-77790684D01*
X133537507Y-77796496D01*
X133560029Y-77804554D01*
X133581653Y-77814782D01*
X133602170Y-77827079D01*
X133621383Y-77841329D01*
X133639107Y-77857393D01*
X133655171Y-77875117D01*
X133669421Y-77894330D01*
X133681718Y-77914847D01*
X133691946Y-77936471D01*
X133700004Y-77958993D01*
X133705816Y-77982197D01*
X133709326Y-78005858D01*
X133710500Y-78029750D01*
X133710500Y-78942250D01*
X133709326Y-78966142D01*
X133705816Y-78989803D01*
X133700004Y-79013007D01*
X133691946Y-79035529D01*
X133681718Y-79057153D01*
X133669421Y-79077670D01*
X133655171Y-79096883D01*
X133639107Y-79114607D01*
X133621383Y-79130671D01*
X133602170Y-79144921D01*
X133581653Y-79157218D01*
X133560029Y-79167446D01*
X133537507Y-79175504D01*
X133514303Y-79181316D01*
X133490642Y-79184826D01*
X133466750Y-79186000D01*
X132979250Y-79186000D01*
X132955358Y-79184826D01*
X132931697Y-79181316D01*
X132908493Y-79175504D01*
X132885971Y-79167446D01*
X132864347Y-79157218D01*
X132843830Y-79144921D01*
X132824617Y-79130671D01*
X132806893Y-79114607D01*
X132790829Y-79096883D01*
X132776579Y-79077670D01*
X132764282Y-79057153D01*
X132754054Y-79035529D01*
X132745996Y-79013007D01*
X132740184Y-78989803D01*
X132736674Y-78966142D01*
X132735500Y-78942250D01*
X132735500Y-78029750D01*
X132736674Y-78005858D01*
X132740184Y-77982197D01*
X132745996Y-77958993D01*
X132754054Y-77936471D01*
X132764282Y-77914847D01*
X132776579Y-77894330D01*
X132790829Y-77875117D01*
X132806893Y-77857393D01*
X132824617Y-77841329D01*
X132843830Y-77827079D01*
X132864347Y-77814782D01*
X132885971Y-77804554D01*
X132908493Y-77796496D01*
X132931697Y-77790684D01*
X132955358Y-77787174D01*
X132979250Y-77786000D01*
X133466750Y-77786000D01*
X133490642Y-77787174D01*
G37*
G04 #@! TD.AperFunction*
G04 #@! TA.AperFunction,SMDPad,CuDef*
G36*
X145514142Y-77648674D02*
G01*
X145537803Y-77652184D01*
X145561007Y-77657996D01*
X145583529Y-77666054D01*
X145605153Y-77676282D01*
X145625670Y-77688579D01*
X145644883Y-77702829D01*
X145662607Y-77718893D01*
X145678671Y-77736617D01*
X145692921Y-77755830D01*
X145705218Y-77776347D01*
X145715446Y-77797971D01*
X145723504Y-77820493D01*
X145729316Y-77843697D01*
X145732826Y-77867358D01*
X145734000Y-77891250D01*
X145734000Y-78378750D01*
X145732826Y-78402642D01*
X145729316Y-78426303D01*
X145723504Y-78449507D01*
X145715446Y-78472029D01*
X145705218Y-78493653D01*
X145692921Y-78514170D01*
X145678671Y-78533383D01*
X145662607Y-78551107D01*
X145644883Y-78567171D01*
X145625670Y-78581421D01*
X145605153Y-78593718D01*
X145583529Y-78603946D01*
X145561007Y-78612004D01*
X145537803Y-78617816D01*
X145514142Y-78621326D01*
X145490250Y-78622500D01*
X144577750Y-78622500D01*
X144553858Y-78621326D01*
X144530197Y-78617816D01*
X144506993Y-78612004D01*
X144484471Y-78603946D01*
X144462847Y-78593718D01*
X144442330Y-78581421D01*
X144423117Y-78567171D01*
X144405393Y-78551107D01*
X144389329Y-78533383D01*
X144375079Y-78514170D01*
X144362782Y-78493653D01*
X144352554Y-78472029D01*
X144344496Y-78449507D01*
X144338684Y-78426303D01*
X144335174Y-78402642D01*
X144334000Y-78378750D01*
X144334000Y-77891250D01*
X144335174Y-77867358D01*
X144338684Y-77843697D01*
X144344496Y-77820493D01*
X144352554Y-77797971D01*
X144362782Y-77776347D01*
X144375079Y-77755830D01*
X144389329Y-77736617D01*
X144405393Y-77718893D01*
X144423117Y-77702829D01*
X144442330Y-77688579D01*
X144462847Y-77676282D01*
X144484471Y-77666054D01*
X144506993Y-77657996D01*
X144530197Y-77652184D01*
X144553858Y-77648674D01*
X144577750Y-77647500D01*
X145490250Y-77647500D01*
X145514142Y-77648674D01*
G37*
G04 #@! TD.AperFunction*
G04 #@! TA.AperFunction,SMDPad,CuDef*
G36*
X145514142Y-79523674D02*
G01*
X145537803Y-79527184D01*
X145561007Y-79532996D01*
X145583529Y-79541054D01*
X145605153Y-79551282D01*
X145625670Y-79563579D01*
X145644883Y-79577829D01*
X145662607Y-79593893D01*
X145678671Y-79611617D01*
X145692921Y-79630830D01*
X145705218Y-79651347D01*
X145715446Y-79672971D01*
X145723504Y-79695493D01*
X145729316Y-79718697D01*
X145732826Y-79742358D01*
X145734000Y-79766250D01*
X145734000Y-80253750D01*
X145732826Y-80277642D01*
X145729316Y-80301303D01*
X145723504Y-80324507D01*
X145715446Y-80347029D01*
X145705218Y-80368653D01*
X145692921Y-80389170D01*
X145678671Y-80408383D01*
X145662607Y-80426107D01*
X145644883Y-80442171D01*
X145625670Y-80456421D01*
X145605153Y-80468718D01*
X145583529Y-80478946D01*
X145561007Y-80487004D01*
X145537803Y-80492816D01*
X145514142Y-80496326D01*
X145490250Y-80497500D01*
X144577750Y-80497500D01*
X144553858Y-80496326D01*
X144530197Y-80492816D01*
X144506993Y-80487004D01*
X144484471Y-80478946D01*
X144462847Y-80468718D01*
X144442330Y-80456421D01*
X144423117Y-80442171D01*
X144405393Y-80426107D01*
X144389329Y-80408383D01*
X144375079Y-80389170D01*
X144362782Y-80368653D01*
X144352554Y-80347029D01*
X144344496Y-80324507D01*
X144338684Y-80301303D01*
X144335174Y-80277642D01*
X144334000Y-80253750D01*
X144334000Y-79766250D01*
X144335174Y-79742358D01*
X144338684Y-79718697D01*
X144344496Y-79695493D01*
X144352554Y-79672971D01*
X144362782Y-79651347D01*
X144375079Y-79630830D01*
X144389329Y-79611617D01*
X144405393Y-79593893D01*
X144423117Y-79577829D01*
X144442330Y-79563579D01*
X144462847Y-79551282D01*
X144484471Y-79541054D01*
X144506993Y-79532996D01*
X144530197Y-79527184D01*
X144553858Y-79523674D01*
X144577750Y-79522500D01*
X145490250Y-79522500D01*
X145514142Y-79523674D01*
G37*
G04 #@! TD.AperFunction*
G04 #@! TA.AperFunction,SMDPad,CuDef*
G36*
X147673142Y-77697174D02*
G01*
X147696803Y-77700684D01*
X147720007Y-77706496D01*
X147742529Y-77714554D01*
X147764153Y-77724782D01*
X147784670Y-77737079D01*
X147803883Y-77751329D01*
X147821607Y-77767393D01*
X147837671Y-77785117D01*
X147851921Y-77804330D01*
X147864218Y-77824847D01*
X147874446Y-77846471D01*
X147882504Y-77868993D01*
X147888316Y-77892197D01*
X147891826Y-77915858D01*
X147893000Y-77939750D01*
X147893000Y-78427250D01*
X147891826Y-78451142D01*
X147888316Y-78474803D01*
X147882504Y-78498007D01*
X147874446Y-78520529D01*
X147864218Y-78542153D01*
X147851921Y-78562670D01*
X147837671Y-78581883D01*
X147821607Y-78599607D01*
X147803883Y-78615671D01*
X147784670Y-78629921D01*
X147764153Y-78642218D01*
X147742529Y-78652446D01*
X147720007Y-78660504D01*
X147696803Y-78666316D01*
X147673142Y-78669826D01*
X147649250Y-78671000D01*
X146736750Y-78671000D01*
X146712858Y-78669826D01*
X146689197Y-78666316D01*
X146665993Y-78660504D01*
X146643471Y-78652446D01*
X146621847Y-78642218D01*
X146601330Y-78629921D01*
X146582117Y-78615671D01*
X146564393Y-78599607D01*
X146548329Y-78581883D01*
X146534079Y-78562670D01*
X146521782Y-78542153D01*
X146511554Y-78520529D01*
X146503496Y-78498007D01*
X146497684Y-78474803D01*
X146494174Y-78451142D01*
X146493000Y-78427250D01*
X146493000Y-77939750D01*
X146494174Y-77915858D01*
X146497684Y-77892197D01*
X146503496Y-77868993D01*
X146511554Y-77846471D01*
X146521782Y-77824847D01*
X146534079Y-77804330D01*
X146548329Y-77785117D01*
X146564393Y-77767393D01*
X146582117Y-77751329D01*
X146601330Y-77737079D01*
X146621847Y-77724782D01*
X146643471Y-77714554D01*
X146665993Y-77706496D01*
X146689197Y-77700684D01*
X146712858Y-77697174D01*
X146736750Y-77696000D01*
X147649250Y-77696000D01*
X147673142Y-77697174D01*
G37*
G04 #@! TD.AperFunction*
G04 #@! TA.AperFunction,SMDPad,CuDef*
G36*
X147673142Y-79572174D02*
G01*
X147696803Y-79575684D01*
X147720007Y-79581496D01*
X147742529Y-79589554D01*
X147764153Y-79599782D01*
X147784670Y-79612079D01*
X147803883Y-79626329D01*
X147821607Y-79642393D01*
X147837671Y-79660117D01*
X147851921Y-79679330D01*
X147864218Y-79699847D01*
X147874446Y-79721471D01*
X147882504Y-79743993D01*
X147888316Y-79767197D01*
X147891826Y-79790858D01*
X147893000Y-79814750D01*
X147893000Y-80302250D01*
X147891826Y-80326142D01*
X147888316Y-80349803D01*
X147882504Y-80373007D01*
X147874446Y-80395529D01*
X147864218Y-80417153D01*
X147851921Y-80437670D01*
X147837671Y-80456883D01*
X147821607Y-80474607D01*
X147803883Y-80490671D01*
X147784670Y-80504921D01*
X147764153Y-80517218D01*
X147742529Y-80527446D01*
X147720007Y-80535504D01*
X147696803Y-80541316D01*
X147673142Y-80544826D01*
X147649250Y-80546000D01*
X146736750Y-80546000D01*
X146712858Y-80544826D01*
X146689197Y-80541316D01*
X146665993Y-80535504D01*
X146643471Y-80527446D01*
X146621847Y-80517218D01*
X146601330Y-80504921D01*
X146582117Y-80490671D01*
X146564393Y-80474607D01*
X146548329Y-80456883D01*
X146534079Y-80437670D01*
X146521782Y-80417153D01*
X146511554Y-80395529D01*
X146503496Y-80373007D01*
X146497684Y-80349803D01*
X146494174Y-80326142D01*
X146493000Y-80302250D01*
X146493000Y-79814750D01*
X146494174Y-79790858D01*
X146497684Y-79767197D01*
X146503496Y-79743993D01*
X146511554Y-79721471D01*
X146521782Y-79699847D01*
X146534079Y-79679330D01*
X146548329Y-79660117D01*
X146564393Y-79642393D01*
X146582117Y-79626329D01*
X146601330Y-79612079D01*
X146621847Y-79599782D01*
X146643471Y-79589554D01*
X146665993Y-79581496D01*
X146689197Y-79575684D01*
X146712858Y-79572174D01*
X146736750Y-79571000D01*
X147649250Y-79571000D01*
X147673142Y-79572174D01*
G37*
G04 #@! TD.AperFunction*
G04 #@! TA.AperFunction,SMDPad,CuDef*
G36*
X152929504Y-78247204D02*
G01*
X152953773Y-78250804D01*
X152977571Y-78256765D01*
X153000671Y-78265030D01*
X153022849Y-78275520D01*
X153043893Y-78288133D01*
X153063598Y-78302747D01*
X153081777Y-78319223D01*
X153098253Y-78337402D01*
X153112867Y-78357107D01*
X153125480Y-78378151D01*
X153135970Y-78400329D01*
X153144235Y-78423429D01*
X153150196Y-78447227D01*
X153153796Y-78471496D01*
X153155000Y-78496000D01*
X153155000Y-79746000D01*
X153153796Y-79770504D01*
X153150196Y-79794773D01*
X153144235Y-79818571D01*
X153135970Y-79841671D01*
X153125480Y-79863849D01*
X153112867Y-79884893D01*
X153098253Y-79904598D01*
X153081777Y-79922777D01*
X153063598Y-79939253D01*
X153043893Y-79953867D01*
X153022849Y-79966480D01*
X153000671Y-79976970D01*
X152977571Y-79985235D01*
X152953773Y-79991196D01*
X152929504Y-79994796D01*
X152905000Y-79996000D01*
X152155000Y-79996000D01*
X152130496Y-79994796D01*
X152106227Y-79991196D01*
X152082429Y-79985235D01*
X152059329Y-79976970D01*
X152037151Y-79966480D01*
X152016107Y-79953867D01*
X151996402Y-79939253D01*
X151978223Y-79922777D01*
X151961747Y-79904598D01*
X151947133Y-79884893D01*
X151934520Y-79863849D01*
X151924030Y-79841671D01*
X151915765Y-79818571D01*
X151909804Y-79794773D01*
X151906204Y-79770504D01*
X151905000Y-79746000D01*
X151905000Y-78496000D01*
X151906204Y-78471496D01*
X151909804Y-78447227D01*
X151915765Y-78423429D01*
X151924030Y-78400329D01*
X151934520Y-78378151D01*
X151947133Y-78357107D01*
X151961747Y-78337402D01*
X151978223Y-78319223D01*
X151996402Y-78302747D01*
X152016107Y-78288133D01*
X152037151Y-78275520D01*
X152059329Y-78265030D01*
X152082429Y-78256765D01*
X152106227Y-78250804D01*
X152130496Y-78247204D01*
X152155000Y-78246000D01*
X152905000Y-78246000D01*
X152929504Y-78247204D01*
G37*
G04 #@! TD.AperFunction*
G04 #@! TA.AperFunction,SMDPad,CuDef*
G36*
X150129504Y-78247204D02*
G01*
X150153773Y-78250804D01*
X150177571Y-78256765D01*
X150200671Y-78265030D01*
X150222849Y-78275520D01*
X150243893Y-78288133D01*
X150263598Y-78302747D01*
X150281777Y-78319223D01*
X150298253Y-78337402D01*
X150312867Y-78357107D01*
X150325480Y-78378151D01*
X150335970Y-78400329D01*
X150344235Y-78423429D01*
X150350196Y-78447227D01*
X150353796Y-78471496D01*
X150355000Y-78496000D01*
X150355000Y-79746000D01*
X150353796Y-79770504D01*
X150350196Y-79794773D01*
X150344235Y-79818571D01*
X150335970Y-79841671D01*
X150325480Y-79863849D01*
X150312867Y-79884893D01*
X150298253Y-79904598D01*
X150281777Y-79922777D01*
X150263598Y-79939253D01*
X150243893Y-79953867D01*
X150222849Y-79966480D01*
X150200671Y-79976970D01*
X150177571Y-79985235D01*
X150153773Y-79991196D01*
X150129504Y-79994796D01*
X150105000Y-79996000D01*
X149355000Y-79996000D01*
X149330496Y-79994796D01*
X149306227Y-79991196D01*
X149282429Y-79985235D01*
X149259329Y-79976970D01*
X149237151Y-79966480D01*
X149216107Y-79953867D01*
X149196402Y-79939253D01*
X149178223Y-79922777D01*
X149161747Y-79904598D01*
X149147133Y-79884893D01*
X149134520Y-79863849D01*
X149124030Y-79841671D01*
X149115765Y-79818571D01*
X149109804Y-79794773D01*
X149106204Y-79770504D01*
X149105000Y-79746000D01*
X149105000Y-78496000D01*
X149106204Y-78471496D01*
X149109804Y-78447227D01*
X149115765Y-78423429D01*
X149124030Y-78400329D01*
X149134520Y-78378151D01*
X149147133Y-78357107D01*
X149161747Y-78337402D01*
X149178223Y-78319223D01*
X149196402Y-78302747D01*
X149216107Y-78288133D01*
X149237151Y-78275520D01*
X149259329Y-78265030D01*
X149282429Y-78256765D01*
X149306227Y-78250804D01*
X149330496Y-78247204D01*
X149355000Y-78246000D01*
X150105000Y-78246000D01*
X150129504Y-78247204D01*
G37*
G04 #@! TD.AperFunction*
D16*
X158750000Y-139446000D03*
X158750000Y-136146000D03*
X146685000Y-131824000D03*
X146685000Y-128524000D03*
X158750000Y-123700000D03*
X158750000Y-127000000D03*
X146685000Y-117982000D03*
X146685000Y-114682000D03*
X158750000Y-109857000D03*
X158750000Y-113157000D03*
X156337000Y-139446000D03*
X156337000Y-136146000D03*
X149098000Y-131824000D03*
X149098000Y-128524000D03*
X156337000Y-123700000D03*
X156337000Y-127000000D03*
X149098000Y-117982000D03*
X149098000Y-114682000D03*
X156337000Y-109857000D03*
X156337000Y-113157000D03*
X153924000Y-139446000D03*
X153924000Y-136146000D03*
X151511000Y-131824000D03*
X151511000Y-128524000D03*
X153924000Y-123700000D03*
X153924000Y-127000000D03*
X151511000Y-117982000D03*
X151511000Y-114682000D03*
X153924000Y-109857000D03*
X153924000Y-113157000D03*
X151511000Y-139444000D03*
X151511000Y-136144000D03*
X153924000Y-131824000D03*
X153924000Y-128524000D03*
X151511000Y-123700000D03*
X151511000Y-127000000D03*
X153924000Y-117983000D03*
X153924000Y-114683000D03*
X151511000Y-109857000D03*
X151511000Y-113157000D03*
X149098000Y-139444000D03*
X149098000Y-136144000D03*
X156337000Y-131824000D03*
X156337000Y-128524000D03*
X149098000Y-123700000D03*
X149098000Y-127000000D03*
X156337000Y-117982000D03*
X156337000Y-114682000D03*
X149098000Y-109856000D03*
X149098000Y-113156000D03*
X146685000Y-139444000D03*
X146685000Y-136144000D03*
X158750000Y-131824000D03*
X158750000Y-128524000D03*
X146685000Y-123700000D03*
X146685000Y-127000000D03*
X158750000Y-117983000D03*
X158750000Y-114683000D03*
X146685000Y-109857000D03*
X146685000Y-113157000D03*
X144272000Y-139446000D03*
X144272000Y-136146000D03*
X132207000Y-131826000D03*
X132207000Y-128526000D03*
X144272000Y-123700000D03*
X144272000Y-127000000D03*
X132207000Y-117982000D03*
X132207000Y-114682000D03*
X144272000Y-109857000D03*
X144272000Y-113157000D03*
X141859000Y-139444000D03*
X141859000Y-136144000D03*
X134620000Y-131826000D03*
X134620000Y-128526000D03*
X141859000Y-123700000D03*
X141859000Y-127000000D03*
X134620000Y-117982000D03*
X134620000Y-114682000D03*
X141859000Y-109857000D03*
X141859000Y-113157000D03*
X139446000Y-139444000D03*
X139446000Y-136144000D03*
X137033000Y-131826000D03*
X137033000Y-128526000D03*
X139446000Y-123700000D03*
X139446000Y-127000000D03*
X137033000Y-117982000D03*
X137033000Y-114682000D03*
X139446000Y-109857000D03*
X139446000Y-113157000D03*
X137033000Y-139444000D03*
X137033000Y-136144000D03*
X139446000Y-131826000D03*
X139446000Y-128526000D03*
X137033000Y-123700000D03*
X137033000Y-127000000D03*
X139446000Y-117982000D03*
X139446000Y-114682000D03*
X137033000Y-109857000D03*
X137033000Y-113157000D03*
X134620000Y-139444000D03*
X134620000Y-136144000D03*
X141859000Y-131826000D03*
X141859000Y-128526000D03*
X134620000Y-123700000D03*
X134620000Y-127000000D03*
X141859000Y-117982000D03*
X141859000Y-114682000D03*
X134620000Y-109857000D03*
X134620000Y-113157000D03*
X132207000Y-139444000D03*
X132207000Y-136144000D03*
X144272000Y-131824000D03*
X144272000Y-128524000D03*
X132207000Y-123700000D03*
X132207000Y-127000000D03*
X144272000Y-117983000D03*
X144272000Y-114683000D03*
X132207000Y-109857000D03*
X132207000Y-113157000D03*
G04 #@! TA.AperFunction,SMDPad,CuDef*
D12*
G36*
X138458545Y-81149536D02*
G01*
X138482206Y-81153046D01*
X138505410Y-81158858D01*
X138527932Y-81166916D01*
X138549556Y-81177144D01*
X138570073Y-81189441D01*
X138589286Y-81203691D01*
X138607010Y-81219755D01*
X139252245Y-81864990D01*
X139268309Y-81882714D01*
X139282559Y-81901927D01*
X139294856Y-81922444D01*
X139305084Y-81944068D01*
X139313142Y-81966590D01*
X139318954Y-81989794D01*
X139322464Y-82013455D01*
X139323638Y-82037347D01*
X139322464Y-82061239D01*
X139318954Y-82084900D01*
X139313142Y-82108104D01*
X139305084Y-82130626D01*
X139294856Y-82152250D01*
X139282559Y-82172767D01*
X139268309Y-82191980D01*
X139252245Y-82209704D01*
X138907530Y-82554419D01*
X138889806Y-82570483D01*
X138870593Y-82584733D01*
X138850076Y-82597030D01*
X138828452Y-82607258D01*
X138805930Y-82615316D01*
X138782726Y-82621128D01*
X138759065Y-82624638D01*
X138735173Y-82625812D01*
X138711281Y-82624638D01*
X138687620Y-82621128D01*
X138664416Y-82615316D01*
X138641894Y-82607258D01*
X138620270Y-82597030D01*
X138599753Y-82584733D01*
X138580540Y-82570483D01*
X138562816Y-82554419D01*
X137917581Y-81909184D01*
X137901517Y-81891460D01*
X137887267Y-81872247D01*
X137874970Y-81851730D01*
X137864742Y-81830106D01*
X137856684Y-81807584D01*
X137850872Y-81784380D01*
X137847362Y-81760719D01*
X137846188Y-81736827D01*
X137847362Y-81712935D01*
X137850872Y-81689274D01*
X137856684Y-81666070D01*
X137864742Y-81643548D01*
X137874970Y-81621924D01*
X137887267Y-81601407D01*
X137901517Y-81582194D01*
X137917581Y-81564470D01*
X138262296Y-81219755D01*
X138280020Y-81203691D01*
X138299233Y-81189441D01*
X138319750Y-81177144D01*
X138341374Y-81166916D01*
X138363896Y-81158858D01*
X138387100Y-81153046D01*
X138410761Y-81149536D01*
X138434653Y-81148362D01*
X138458545Y-81149536D01*
G37*
G04 #@! TD.AperFunction*
G04 #@! TA.AperFunction,SMDPad,CuDef*
G36*
X137132719Y-82475362D02*
G01*
X137156380Y-82478872D01*
X137179584Y-82484684D01*
X137202106Y-82492742D01*
X137223730Y-82502970D01*
X137244247Y-82515267D01*
X137263460Y-82529517D01*
X137281184Y-82545581D01*
X137926419Y-83190816D01*
X137942483Y-83208540D01*
X137956733Y-83227753D01*
X137969030Y-83248270D01*
X137979258Y-83269894D01*
X137987316Y-83292416D01*
X137993128Y-83315620D01*
X137996638Y-83339281D01*
X137997812Y-83363173D01*
X137996638Y-83387065D01*
X137993128Y-83410726D01*
X137987316Y-83433930D01*
X137979258Y-83456452D01*
X137969030Y-83478076D01*
X137956733Y-83498593D01*
X137942483Y-83517806D01*
X137926419Y-83535530D01*
X137581704Y-83880245D01*
X137563980Y-83896309D01*
X137544767Y-83910559D01*
X137524250Y-83922856D01*
X137502626Y-83933084D01*
X137480104Y-83941142D01*
X137456900Y-83946954D01*
X137433239Y-83950464D01*
X137409347Y-83951638D01*
X137385455Y-83950464D01*
X137361794Y-83946954D01*
X137338590Y-83941142D01*
X137316068Y-83933084D01*
X137294444Y-83922856D01*
X137273927Y-83910559D01*
X137254714Y-83896309D01*
X137236990Y-83880245D01*
X136591755Y-83235010D01*
X136575691Y-83217286D01*
X136561441Y-83198073D01*
X136549144Y-83177556D01*
X136538916Y-83155932D01*
X136530858Y-83133410D01*
X136525046Y-83110206D01*
X136521536Y-83086545D01*
X136520362Y-83062653D01*
X136521536Y-83038761D01*
X136525046Y-83015100D01*
X136530858Y-82991896D01*
X136538916Y-82969374D01*
X136549144Y-82947750D01*
X136561441Y-82927233D01*
X136575691Y-82908020D01*
X136591755Y-82890296D01*
X136936470Y-82545581D01*
X136954194Y-82529517D01*
X136973407Y-82515267D01*
X136993924Y-82502970D01*
X137015548Y-82492742D01*
X137038070Y-82484684D01*
X137061274Y-82478872D01*
X137084935Y-82475362D01*
X137108827Y-82474188D01*
X137132719Y-82475362D01*
G37*
G04 #@! TD.AperFunction*
G04 #@! TA.AperFunction,SMDPad,CuDef*
G36*
X155674719Y-87809362D02*
G01*
X155698380Y-87812872D01*
X155721584Y-87818684D01*
X155744106Y-87826742D01*
X155765730Y-87836970D01*
X155786247Y-87849267D01*
X155805460Y-87863517D01*
X155823184Y-87879581D01*
X156468419Y-88524816D01*
X156484483Y-88542540D01*
X156498733Y-88561753D01*
X156511030Y-88582270D01*
X156521258Y-88603894D01*
X156529316Y-88626416D01*
X156535128Y-88649620D01*
X156538638Y-88673281D01*
X156539812Y-88697173D01*
X156538638Y-88721065D01*
X156535128Y-88744726D01*
X156529316Y-88767930D01*
X156521258Y-88790452D01*
X156511030Y-88812076D01*
X156498733Y-88832593D01*
X156484483Y-88851806D01*
X156468419Y-88869530D01*
X156123704Y-89214245D01*
X156105980Y-89230309D01*
X156086767Y-89244559D01*
X156066250Y-89256856D01*
X156044626Y-89267084D01*
X156022104Y-89275142D01*
X155998900Y-89280954D01*
X155975239Y-89284464D01*
X155951347Y-89285638D01*
X155927455Y-89284464D01*
X155903794Y-89280954D01*
X155880590Y-89275142D01*
X155858068Y-89267084D01*
X155836444Y-89256856D01*
X155815927Y-89244559D01*
X155796714Y-89230309D01*
X155778990Y-89214245D01*
X155133755Y-88569010D01*
X155117691Y-88551286D01*
X155103441Y-88532073D01*
X155091144Y-88511556D01*
X155080916Y-88489932D01*
X155072858Y-88467410D01*
X155067046Y-88444206D01*
X155063536Y-88420545D01*
X155062362Y-88396653D01*
X155063536Y-88372761D01*
X155067046Y-88349100D01*
X155072858Y-88325896D01*
X155080916Y-88303374D01*
X155091144Y-88281750D01*
X155103441Y-88261233D01*
X155117691Y-88242020D01*
X155133755Y-88224296D01*
X155478470Y-87879581D01*
X155496194Y-87863517D01*
X155515407Y-87849267D01*
X155535924Y-87836970D01*
X155557548Y-87826742D01*
X155580070Y-87818684D01*
X155603274Y-87812872D01*
X155626935Y-87809362D01*
X155650827Y-87808188D01*
X155674719Y-87809362D01*
G37*
G04 #@! TD.AperFunction*
G04 #@! TA.AperFunction,SMDPad,CuDef*
G36*
X157000545Y-86483536D02*
G01*
X157024206Y-86487046D01*
X157047410Y-86492858D01*
X157069932Y-86500916D01*
X157091556Y-86511144D01*
X157112073Y-86523441D01*
X157131286Y-86537691D01*
X157149010Y-86553755D01*
X157794245Y-87198990D01*
X157810309Y-87216714D01*
X157824559Y-87235927D01*
X157836856Y-87256444D01*
X157847084Y-87278068D01*
X157855142Y-87300590D01*
X157860954Y-87323794D01*
X157864464Y-87347455D01*
X157865638Y-87371347D01*
X157864464Y-87395239D01*
X157860954Y-87418900D01*
X157855142Y-87442104D01*
X157847084Y-87464626D01*
X157836856Y-87486250D01*
X157824559Y-87506767D01*
X157810309Y-87525980D01*
X157794245Y-87543704D01*
X157449530Y-87888419D01*
X157431806Y-87904483D01*
X157412593Y-87918733D01*
X157392076Y-87931030D01*
X157370452Y-87941258D01*
X157347930Y-87949316D01*
X157324726Y-87955128D01*
X157301065Y-87958638D01*
X157277173Y-87959812D01*
X157253281Y-87958638D01*
X157229620Y-87955128D01*
X157206416Y-87949316D01*
X157183894Y-87941258D01*
X157162270Y-87931030D01*
X157141753Y-87918733D01*
X157122540Y-87904483D01*
X157104816Y-87888419D01*
X156459581Y-87243184D01*
X156443517Y-87225460D01*
X156429267Y-87206247D01*
X156416970Y-87185730D01*
X156406742Y-87164106D01*
X156398684Y-87141584D01*
X156392872Y-87118380D01*
X156389362Y-87094719D01*
X156388188Y-87070827D01*
X156389362Y-87046935D01*
X156392872Y-87023274D01*
X156398684Y-87000070D01*
X156406742Y-86977548D01*
X156416970Y-86955924D01*
X156429267Y-86935407D01*
X156443517Y-86916194D01*
X156459581Y-86898470D01*
X156804296Y-86553755D01*
X156822020Y-86537691D01*
X156841233Y-86523441D01*
X156861750Y-86511144D01*
X156883374Y-86500916D01*
X156905896Y-86492858D01*
X156929100Y-86487046D01*
X156952761Y-86483536D01*
X156976653Y-86482362D01*
X157000545Y-86483536D01*
G37*
G04 #@! TD.AperFunction*
G04 #@! TA.AperFunction,SMDPad,CuDef*
G36*
X137715152Y-94512449D02*
G01*
X137738813Y-94515959D01*
X137762017Y-94521771D01*
X137784539Y-94529829D01*
X137806163Y-94540057D01*
X137826680Y-94552354D01*
X137845893Y-94566604D01*
X137863617Y-94582668D01*
X138208332Y-94927383D01*
X138224396Y-94945107D01*
X138238646Y-94964320D01*
X138250943Y-94984837D01*
X138261171Y-95006461D01*
X138269229Y-95028983D01*
X138275041Y-95052187D01*
X138278551Y-95075848D01*
X138279725Y-95099740D01*
X138278551Y-95123632D01*
X138275041Y-95147293D01*
X138269229Y-95170497D01*
X138261171Y-95193019D01*
X138250943Y-95214643D01*
X138238646Y-95235160D01*
X138224396Y-95254373D01*
X138208332Y-95272097D01*
X137563097Y-95917332D01*
X137545373Y-95933396D01*
X137526160Y-95947646D01*
X137505643Y-95959943D01*
X137484019Y-95970171D01*
X137461497Y-95978229D01*
X137438293Y-95984041D01*
X137414632Y-95987551D01*
X137390740Y-95988725D01*
X137366848Y-95987551D01*
X137343187Y-95984041D01*
X137319983Y-95978229D01*
X137297461Y-95970171D01*
X137275837Y-95959943D01*
X137255320Y-95947646D01*
X137236107Y-95933396D01*
X137218383Y-95917332D01*
X136873668Y-95572617D01*
X136857604Y-95554893D01*
X136843354Y-95535680D01*
X136831057Y-95515163D01*
X136820829Y-95493539D01*
X136812771Y-95471017D01*
X136806959Y-95447813D01*
X136803449Y-95424152D01*
X136802275Y-95400260D01*
X136803449Y-95376368D01*
X136806959Y-95352707D01*
X136812771Y-95329503D01*
X136820829Y-95306981D01*
X136831057Y-95285357D01*
X136843354Y-95264840D01*
X136857604Y-95245627D01*
X136873668Y-95227903D01*
X137518903Y-94582668D01*
X137536627Y-94566604D01*
X137555840Y-94552354D01*
X137576357Y-94540057D01*
X137597981Y-94529829D01*
X137620503Y-94521771D01*
X137643707Y-94515959D01*
X137667368Y-94512449D01*
X137691260Y-94511275D01*
X137715152Y-94512449D01*
G37*
G04 #@! TD.AperFunction*
G04 #@! TA.AperFunction,SMDPad,CuDef*
G36*
X136389326Y-93186623D02*
G01*
X136412987Y-93190133D01*
X136436191Y-93195945D01*
X136458713Y-93204003D01*
X136480337Y-93214231D01*
X136500854Y-93226528D01*
X136520067Y-93240778D01*
X136537791Y-93256842D01*
X136882506Y-93601557D01*
X136898570Y-93619281D01*
X136912820Y-93638494D01*
X136925117Y-93659011D01*
X136935345Y-93680635D01*
X136943403Y-93703157D01*
X136949215Y-93726361D01*
X136952725Y-93750022D01*
X136953899Y-93773914D01*
X136952725Y-93797806D01*
X136949215Y-93821467D01*
X136943403Y-93844671D01*
X136935345Y-93867193D01*
X136925117Y-93888817D01*
X136912820Y-93909334D01*
X136898570Y-93928547D01*
X136882506Y-93946271D01*
X136237271Y-94591506D01*
X136219547Y-94607570D01*
X136200334Y-94621820D01*
X136179817Y-94634117D01*
X136158193Y-94644345D01*
X136135671Y-94652403D01*
X136112467Y-94658215D01*
X136088806Y-94661725D01*
X136064914Y-94662899D01*
X136041022Y-94661725D01*
X136017361Y-94658215D01*
X135994157Y-94652403D01*
X135971635Y-94644345D01*
X135950011Y-94634117D01*
X135929494Y-94621820D01*
X135910281Y-94607570D01*
X135892557Y-94591506D01*
X135547842Y-94246791D01*
X135531778Y-94229067D01*
X135517528Y-94209854D01*
X135505231Y-94189337D01*
X135495003Y-94167713D01*
X135486945Y-94145191D01*
X135481133Y-94121987D01*
X135477623Y-94098326D01*
X135476449Y-94074434D01*
X135477623Y-94050542D01*
X135481133Y-94026881D01*
X135486945Y-94003677D01*
X135495003Y-93981155D01*
X135505231Y-93959531D01*
X135517528Y-93939014D01*
X135531778Y-93919801D01*
X135547842Y-93902077D01*
X136193077Y-93256842D01*
X136210801Y-93240778D01*
X136230014Y-93226528D01*
X136250531Y-93214231D01*
X136272155Y-93204003D01*
X136294677Y-93195945D01*
X136317881Y-93190133D01*
X136341542Y-93186623D01*
X136365434Y-93185449D01*
X136389326Y-93186623D01*
G37*
G04 #@! TD.AperFunction*
G04 #@! TA.AperFunction,SMDPad,CuDef*
G36*
X133802806Y-96981275D02*
G01*
X133826467Y-96984785D01*
X133849671Y-96990597D01*
X133872193Y-96998655D01*
X133893817Y-97008883D01*
X133914334Y-97021180D01*
X133933547Y-97035430D01*
X133951271Y-97051494D01*
X134596506Y-97696729D01*
X134612570Y-97714453D01*
X134626820Y-97733666D01*
X134639117Y-97754183D01*
X134649345Y-97775807D01*
X134657403Y-97798329D01*
X134663215Y-97821533D01*
X134666725Y-97845194D01*
X134667899Y-97869086D01*
X134666725Y-97892978D01*
X134663215Y-97916639D01*
X134657403Y-97939843D01*
X134649345Y-97962365D01*
X134639117Y-97983989D01*
X134626820Y-98004506D01*
X134612570Y-98023719D01*
X134596506Y-98041443D01*
X134251791Y-98386158D01*
X134234067Y-98402222D01*
X134214854Y-98416472D01*
X134194337Y-98428769D01*
X134172713Y-98438997D01*
X134150191Y-98447055D01*
X134126987Y-98452867D01*
X134103326Y-98456377D01*
X134079434Y-98457551D01*
X134055542Y-98456377D01*
X134031881Y-98452867D01*
X134008677Y-98447055D01*
X133986155Y-98438997D01*
X133964531Y-98428769D01*
X133944014Y-98416472D01*
X133924801Y-98402222D01*
X133907077Y-98386158D01*
X133261842Y-97740923D01*
X133245778Y-97723199D01*
X133231528Y-97703986D01*
X133219231Y-97683469D01*
X133209003Y-97661845D01*
X133200945Y-97639323D01*
X133195133Y-97616119D01*
X133191623Y-97592458D01*
X133190449Y-97568566D01*
X133191623Y-97544674D01*
X133195133Y-97521013D01*
X133200945Y-97497809D01*
X133209003Y-97475287D01*
X133219231Y-97453663D01*
X133231528Y-97433146D01*
X133245778Y-97413933D01*
X133261842Y-97396209D01*
X133606557Y-97051494D01*
X133624281Y-97035430D01*
X133643494Y-97021180D01*
X133664011Y-97008883D01*
X133685635Y-96998655D01*
X133708157Y-96990597D01*
X133731361Y-96984785D01*
X133755022Y-96981275D01*
X133778914Y-96980101D01*
X133802806Y-96981275D01*
G37*
G04 #@! TD.AperFunction*
G04 #@! TA.AperFunction,SMDPad,CuDef*
G36*
X135128632Y-95655449D02*
G01*
X135152293Y-95658959D01*
X135175497Y-95664771D01*
X135198019Y-95672829D01*
X135219643Y-95683057D01*
X135240160Y-95695354D01*
X135259373Y-95709604D01*
X135277097Y-95725668D01*
X135922332Y-96370903D01*
X135938396Y-96388627D01*
X135952646Y-96407840D01*
X135964943Y-96428357D01*
X135975171Y-96449981D01*
X135983229Y-96472503D01*
X135989041Y-96495707D01*
X135992551Y-96519368D01*
X135993725Y-96543260D01*
X135992551Y-96567152D01*
X135989041Y-96590813D01*
X135983229Y-96614017D01*
X135975171Y-96636539D01*
X135964943Y-96658163D01*
X135952646Y-96678680D01*
X135938396Y-96697893D01*
X135922332Y-96715617D01*
X135577617Y-97060332D01*
X135559893Y-97076396D01*
X135540680Y-97090646D01*
X135520163Y-97102943D01*
X135498539Y-97113171D01*
X135476017Y-97121229D01*
X135452813Y-97127041D01*
X135429152Y-97130551D01*
X135405260Y-97131725D01*
X135381368Y-97130551D01*
X135357707Y-97127041D01*
X135334503Y-97121229D01*
X135311981Y-97113171D01*
X135290357Y-97102943D01*
X135269840Y-97090646D01*
X135250627Y-97076396D01*
X135232903Y-97060332D01*
X134587668Y-96415097D01*
X134571604Y-96397373D01*
X134557354Y-96378160D01*
X134545057Y-96357643D01*
X134534829Y-96336019D01*
X134526771Y-96313497D01*
X134520959Y-96290293D01*
X134517449Y-96266632D01*
X134516275Y-96242740D01*
X134517449Y-96218848D01*
X134520959Y-96195187D01*
X134526771Y-96171983D01*
X134534829Y-96149461D01*
X134545057Y-96127837D01*
X134557354Y-96107320D01*
X134571604Y-96088107D01*
X134587668Y-96070383D01*
X134932383Y-95725668D01*
X134950107Y-95709604D01*
X134969320Y-95695354D01*
X134989837Y-95683057D01*
X135011461Y-95672829D01*
X135033983Y-95664771D01*
X135057187Y-95658959D01*
X135080848Y-95655449D01*
X135104740Y-95654275D01*
X135128632Y-95655449D01*
G37*
G04 #@! TD.AperFunction*
G04 #@! TA.AperFunction,SMDPad,CuDef*
G36*
X140843632Y-101116449D02*
G01*
X140867293Y-101119959D01*
X140890497Y-101125771D01*
X140913019Y-101133829D01*
X140934643Y-101144057D01*
X140955160Y-101156354D01*
X140974373Y-101170604D01*
X140992097Y-101186668D01*
X141637332Y-101831903D01*
X141653396Y-101849627D01*
X141667646Y-101868840D01*
X141679943Y-101889357D01*
X141690171Y-101910981D01*
X141698229Y-101933503D01*
X141704041Y-101956707D01*
X141707551Y-101980368D01*
X141708725Y-102004260D01*
X141707551Y-102028152D01*
X141704041Y-102051813D01*
X141698229Y-102075017D01*
X141690171Y-102097539D01*
X141679943Y-102119163D01*
X141667646Y-102139680D01*
X141653396Y-102158893D01*
X141637332Y-102176617D01*
X141292617Y-102521332D01*
X141274893Y-102537396D01*
X141255680Y-102551646D01*
X141235163Y-102563943D01*
X141213539Y-102574171D01*
X141191017Y-102582229D01*
X141167813Y-102588041D01*
X141144152Y-102591551D01*
X141120260Y-102592725D01*
X141096368Y-102591551D01*
X141072707Y-102588041D01*
X141049503Y-102582229D01*
X141026981Y-102574171D01*
X141005357Y-102563943D01*
X140984840Y-102551646D01*
X140965627Y-102537396D01*
X140947903Y-102521332D01*
X140302668Y-101876097D01*
X140286604Y-101858373D01*
X140272354Y-101839160D01*
X140260057Y-101818643D01*
X140249829Y-101797019D01*
X140241771Y-101774497D01*
X140235959Y-101751293D01*
X140232449Y-101727632D01*
X140231275Y-101703740D01*
X140232449Y-101679848D01*
X140235959Y-101656187D01*
X140241771Y-101632983D01*
X140249829Y-101610461D01*
X140260057Y-101588837D01*
X140272354Y-101568320D01*
X140286604Y-101549107D01*
X140302668Y-101531383D01*
X140647383Y-101186668D01*
X140665107Y-101170604D01*
X140684320Y-101156354D01*
X140704837Y-101144057D01*
X140726461Y-101133829D01*
X140748983Y-101125771D01*
X140772187Y-101119959D01*
X140795848Y-101116449D01*
X140819740Y-101115275D01*
X140843632Y-101116449D01*
G37*
G04 #@! TD.AperFunction*
G04 #@! TA.AperFunction,SMDPad,CuDef*
G36*
X139517806Y-102442275D02*
G01*
X139541467Y-102445785D01*
X139564671Y-102451597D01*
X139587193Y-102459655D01*
X139608817Y-102469883D01*
X139629334Y-102482180D01*
X139648547Y-102496430D01*
X139666271Y-102512494D01*
X140311506Y-103157729D01*
X140327570Y-103175453D01*
X140341820Y-103194666D01*
X140354117Y-103215183D01*
X140364345Y-103236807D01*
X140372403Y-103259329D01*
X140378215Y-103282533D01*
X140381725Y-103306194D01*
X140382899Y-103330086D01*
X140381725Y-103353978D01*
X140378215Y-103377639D01*
X140372403Y-103400843D01*
X140364345Y-103423365D01*
X140354117Y-103444989D01*
X140341820Y-103465506D01*
X140327570Y-103484719D01*
X140311506Y-103502443D01*
X139966791Y-103847158D01*
X139949067Y-103863222D01*
X139929854Y-103877472D01*
X139909337Y-103889769D01*
X139887713Y-103899997D01*
X139865191Y-103908055D01*
X139841987Y-103913867D01*
X139818326Y-103917377D01*
X139794434Y-103918551D01*
X139770542Y-103917377D01*
X139746881Y-103913867D01*
X139723677Y-103908055D01*
X139701155Y-103899997D01*
X139679531Y-103889769D01*
X139659014Y-103877472D01*
X139639801Y-103863222D01*
X139622077Y-103847158D01*
X138976842Y-103201923D01*
X138960778Y-103184199D01*
X138946528Y-103164986D01*
X138934231Y-103144469D01*
X138924003Y-103122845D01*
X138915945Y-103100323D01*
X138910133Y-103077119D01*
X138906623Y-103053458D01*
X138905449Y-103029566D01*
X138906623Y-103005674D01*
X138910133Y-102982013D01*
X138915945Y-102958809D01*
X138924003Y-102936287D01*
X138934231Y-102914663D01*
X138946528Y-102894146D01*
X138960778Y-102874933D01*
X138976842Y-102857209D01*
X139321557Y-102512494D01*
X139339281Y-102496430D01*
X139358494Y-102482180D01*
X139379011Y-102469883D01*
X139400635Y-102459655D01*
X139423157Y-102451597D01*
X139446361Y-102445785D01*
X139470022Y-102442275D01*
X139493914Y-102441101D01*
X139517806Y-102442275D01*
G37*
G04 #@! TD.AperFunction*
G04 #@! TA.AperFunction,SMDPad,CuDef*
G36*
X139573632Y-83590449D02*
G01*
X139597293Y-83593959D01*
X139620497Y-83599771D01*
X139643019Y-83607829D01*
X139664643Y-83618057D01*
X139685160Y-83630354D01*
X139704373Y-83644604D01*
X139722097Y-83660668D01*
X140367332Y-84305903D01*
X140383396Y-84323627D01*
X140397646Y-84342840D01*
X140409943Y-84363357D01*
X140420171Y-84384981D01*
X140428229Y-84407503D01*
X140434041Y-84430707D01*
X140437551Y-84454368D01*
X140438725Y-84478260D01*
X140437551Y-84502152D01*
X140434041Y-84525813D01*
X140428229Y-84549017D01*
X140420171Y-84571539D01*
X140409943Y-84593163D01*
X140397646Y-84613680D01*
X140383396Y-84632893D01*
X140367332Y-84650617D01*
X140022617Y-84995332D01*
X140004893Y-85011396D01*
X139985680Y-85025646D01*
X139965163Y-85037943D01*
X139943539Y-85048171D01*
X139921017Y-85056229D01*
X139897813Y-85062041D01*
X139874152Y-85065551D01*
X139850260Y-85066725D01*
X139826368Y-85065551D01*
X139802707Y-85062041D01*
X139779503Y-85056229D01*
X139756981Y-85048171D01*
X139735357Y-85037943D01*
X139714840Y-85025646D01*
X139695627Y-85011396D01*
X139677903Y-84995332D01*
X139032668Y-84350097D01*
X139016604Y-84332373D01*
X139002354Y-84313160D01*
X138990057Y-84292643D01*
X138979829Y-84271019D01*
X138971771Y-84248497D01*
X138965959Y-84225293D01*
X138962449Y-84201632D01*
X138961275Y-84177740D01*
X138962449Y-84153848D01*
X138965959Y-84130187D01*
X138971771Y-84106983D01*
X138979829Y-84084461D01*
X138990057Y-84062837D01*
X139002354Y-84042320D01*
X139016604Y-84023107D01*
X139032668Y-84005383D01*
X139377383Y-83660668D01*
X139395107Y-83644604D01*
X139414320Y-83630354D01*
X139434837Y-83618057D01*
X139456461Y-83607829D01*
X139478983Y-83599771D01*
X139502187Y-83593959D01*
X139525848Y-83590449D01*
X139549740Y-83589275D01*
X139573632Y-83590449D01*
G37*
G04 #@! TD.AperFunction*
G04 #@! TA.AperFunction,SMDPad,CuDef*
G36*
X140899458Y-82264623D02*
G01*
X140923119Y-82268133D01*
X140946323Y-82273945D01*
X140968845Y-82282003D01*
X140990469Y-82292231D01*
X141010986Y-82304528D01*
X141030199Y-82318778D01*
X141047923Y-82334842D01*
X141693158Y-82980077D01*
X141709222Y-82997801D01*
X141723472Y-83017014D01*
X141735769Y-83037531D01*
X141745997Y-83059155D01*
X141754055Y-83081677D01*
X141759867Y-83104881D01*
X141763377Y-83128542D01*
X141764551Y-83152434D01*
X141763377Y-83176326D01*
X141759867Y-83199987D01*
X141754055Y-83223191D01*
X141745997Y-83245713D01*
X141735769Y-83267337D01*
X141723472Y-83287854D01*
X141709222Y-83307067D01*
X141693158Y-83324791D01*
X141348443Y-83669506D01*
X141330719Y-83685570D01*
X141311506Y-83699820D01*
X141290989Y-83712117D01*
X141269365Y-83722345D01*
X141246843Y-83730403D01*
X141223639Y-83736215D01*
X141199978Y-83739725D01*
X141176086Y-83740899D01*
X141152194Y-83739725D01*
X141128533Y-83736215D01*
X141105329Y-83730403D01*
X141082807Y-83722345D01*
X141061183Y-83712117D01*
X141040666Y-83699820D01*
X141021453Y-83685570D01*
X141003729Y-83669506D01*
X140358494Y-83024271D01*
X140342430Y-83006547D01*
X140328180Y-82987334D01*
X140315883Y-82966817D01*
X140305655Y-82945193D01*
X140297597Y-82922671D01*
X140291785Y-82899467D01*
X140288275Y-82875806D01*
X140287101Y-82851914D01*
X140288275Y-82828022D01*
X140291785Y-82804361D01*
X140297597Y-82781157D01*
X140305655Y-82758635D01*
X140315883Y-82737011D01*
X140328180Y-82716494D01*
X140342430Y-82697281D01*
X140358494Y-82679557D01*
X140703209Y-82334842D01*
X140720933Y-82318778D01*
X140740146Y-82304528D01*
X140760663Y-82292231D01*
X140782287Y-82282003D01*
X140804809Y-82273945D01*
X140828013Y-82268133D01*
X140851674Y-82264623D01*
X140875566Y-82263449D01*
X140899458Y-82264623D01*
G37*
G04 #@! TD.AperFunction*
G04 #@! TA.AperFunction,SMDPad,CuDef*
G36*
X149126545Y-98548536D02*
G01*
X149150206Y-98552046D01*
X149173410Y-98557858D01*
X149195932Y-98565916D01*
X149217556Y-98576144D01*
X149238073Y-98588441D01*
X149257286Y-98602691D01*
X149275010Y-98618755D01*
X149920245Y-99263990D01*
X149936309Y-99281714D01*
X149950559Y-99300927D01*
X149962856Y-99321444D01*
X149973084Y-99343068D01*
X149981142Y-99365590D01*
X149986954Y-99388794D01*
X149990464Y-99412455D01*
X149991638Y-99436347D01*
X149990464Y-99460239D01*
X149986954Y-99483900D01*
X149981142Y-99507104D01*
X149973084Y-99529626D01*
X149962856Y-99551250D01*
X149950559Y-99571767D01*
X149936309Y-99590980D01*
X149920245Y-99608704D01*
X149575530Y-99953419D01*
X149557806Y-99969483D01*
X149538593Y-99983733D01*
X149518076Y-99996030D01*
X149496452Y-100006258D01*
X149473930Y-100014316D01*
X149450726Y-100020128D01*
X149427065Y-100023638D01*
X149403173Y-100024812D01*
X149379281Y-100023638D01*
X149355620Y-100020128D01*
X149332416Y-100014316D01*
X149309894Y-100006258D01*
X149288270Y-99996030D01*
X149267753Y-99983733D01*
X149248540Y-99969483D01*
X149230816Y-99953419D01*
X148585581Y-99308184D01*
X148569517Y-99290460D01*
X148555267Y-99271247D01*
X148542970Y-99250730D01*
X148532742Y-99229106D01*
X148524684Y-99206584D01*
X148518872Y-99183380D01*
X148515362Y-99159719D01*
X148514188Y-99135827D01*
X148515362Y-99111935D01*
X148518872Y-99088274D01*
X148524684Y-99065070D01*
X148532742Y-99042548D01*
X148542970Y-99020924D01*
X148555267Y-99000407D01*
X148569517Y-98981194D01*
X148585581Y-98963470D01*
X148930296Y-98618755D01*
X148948020Y-98602691D01*
X148967233Y-98588441D01*
X148987750Y-98576144D01*
X149009374Y-98565916D01*
X149031896Y-98557858D01*
X149055100Y-98552046D01*
X149078761Y-98548536D01*
X149102653Y-98547362D01*
X149126545Y-98548536D01*
G37*
G04 #@! TD.AperFunction*
G04 #@! TA.AperFunction,SMDPad,CuDef*
G36*
X147800719Y-99874362D02*
G01*
X147824380Y-99877872D01*
X147847584Y-99883684D01*
X147870106Y-99891742D01*
X147891730Y-99901970D01*
X147912247Y-99914267D01*
X147931460Y-99928517D01*
X147949184Y-99944581D01*
X148594419Y-100589816D01*
X148610483Y-100607540D01*
X148624733Y-100626753D01*
X148637030Y-100647270D01*
X148647258Y-100668894D01*
X148655316Y-100691416D01*
X148661128Y-100714620D01*
X148664638Y-100738281D01*
X148665812Y-100762173D01*
X148664638Y-100786065D01*
X148661128Y-100809726D01*
X148655316Y-100832930D01*
X148647258Y-100855452D01*
X148637030Y-100877076D01*
X148624733Y-100897593D01*
X148610483Y-100916806D01*
X148594419Y-100934530D01*
X148249704Y-101279245D01*
X148231980Y-101295309D01*
X148212767Y-101309559D01*
X148192250Y-101321856D01*
X148170626Y-101332084D01*
X148148104Y-101340142D01*
X148124900Y-101345954D01*
X148101239Y-101349464D01*
X148077347Y-101350638D01*
X148053455Y-101349464D01*
X148029794Y-101345954D01*
X148006590Y-101340142D01*
X147984068Y-101332084D01*
X147962444Y-101321856D01*
X147941927Y-101309559D01*
X147922714Y-101295309D01*
X147904990Y-101279245D01*
X147259755Y-100634010D01*
X147243691Y-100616286D01*
X147229441Y-100597073D01*
X147217144Y-100576556D01*
X147206916Y-100554932D01*
X147198858Y-100532410D01*
X147193046Y-100509206D01*
X147189536Y-100485545D01*
X147188362Y-100461653D01*
X147189536Y-100437761D01*
X147193046Y-100414100D01*
X147198858Y-100390896D01*
X147206916Y-100368374D01*
X147217144Y-100346750D01*
X147229441Y-100326233D01*
X147243691Y-100307020D01*
X147259755Y-100289296D01*
X147604470Y-99944581D01*
X147622194Y-99928517D01*
X147641407Y-99914267D01*
X147661924Y-99901970D01*
X147683548Y-99891742D01*
X147706070Y-99883684D01*
X147729274Y-99877872D01*
X147752935Y-99874362D01*
X147776827Y-99873188D01*
X147800719Y-99874362D01*
G37*
G04 #@! TD.AperFunction*
D17*
X149352000Y-80899000D03*
X135128000Y-92837000D03*
X138239500Y-105219500D03*
X150864455Y-101334455D03*
X143637000Y-83439000D03*
X141478000Y-84709000D03*
X141771681Y-81642548D03*
X159004000Y-88900000D03*
X156019500Y-85915500D03*
X154559000Y-89408000D03*
X139118439Y-86814561D03*
X160528000Y-113157000D03*
X152920017Y-100341588D03*
X160909000Y-114681000D03*
X154057282Y-100450718D03*
X161925000Y-127000000D03*
X155142849Y-100508151D03*
X163068000Y-128524000D03*
X156210000Y-100457000D03*
X134783048Y-85180952D03*
X134874000Y-86233000D03*
X133731000Y-86233000D03*
X133604000Y-87376000D03*
X132461000Y-88519000D03*
X134112000Y-90043000D03*
X136906000Y-90297000D03*
X140716000Y-98044000D03*
X154813000Y-85979000D03*
X152908000Y-86868000D03*
X153162000Y-85471000D03*
X151638000Y-85852000D03*
X151765000Y-84582000D03*
X150495000Y-84709000D03*
X163068000Y-136144000D03*
X157353000Y-100457000D03*
D18*
X144106250Y-75143750D02*
X144106250Y-76649750D01*
X138661000Y-74947000D02*
X138661000Y-75878000D01*
X133929174Y-97720809D02*
X135992142Y-99783777D01*
X133929174Y-97718826D02*
X133929174Y-97720809D01*
X138749858Y-99430223D02*
X138749858Y-99633858D01*
X140970000Y-102539466D02*
X140970000Y-101854000D01*
X140970000Y-103396216D02*
X140970000Y-102539466D01*
X140057155Y-104309061D02*
X140970000Y-103396216D01*
X138975210Y-104309061D02*
X140057155Y-104309061D01*
X135497167Y-100831018D02*
X138975210Y-104309061D01*
X135497167Y-100278752D02*
X135497167Y-100831018D01*
X135992142Y-99783777D02*
X135497167Y-100278752D01*
X137655444Y-99676109D02*
X137901330Y-99430223D01*
X137901330Y-99430223D02*
X138749858Y-99430223D01*
X136840670Y-99783777D02*
X136948338Y-99676109D01*
X136948338Y-99676109D02*
X137655444Y-99676109D01*
X135992142Y-99783777D02*
X136840670Y-99783777D01*
X140402012Y-94856996D02*
X140951620Y-94307388D01*
X138226466Y-95250000D02*
X138938000Y-95961534D01*
X138938000Y-95961534D02*
X138938000Y-96266000D01*
X137541000Y-95250000D02*
X138226466Y-95250000D01*
X138938000Y-96266000D02*
X140951620Y-94307388D01*
X138612008Y-96647000D02*
X138684000Y-96575008D01*
X133929174Y-96176610D02*
X135248788Y-94856996D01*
X135369996Y-94856996D02*
X137160000Y-96647000D01*
X138684000Y-96575008D02*
X138938000Y-96266000D01*
X135248788Y-94856996D02*
X135369996Y-94856996D01*
X133929174Y-97718826D02*
X133929174Y-96176610D01*
X137160000Y-96647000D02*
X138612008Y-96647000D01*
X147315582Y-100381408D02*
X148054087Y-101119913D01*
X147315582Y-98267186D02*
X147315582Y-100381408D01*
X141478000Y-85641379D02*
X142648677Y-86812056D01*
X148054087Y-102954987D02*
X148054087Y-101119913D01*
X140057155Y-104309061D02*
X146700013Y-104309061D01*
X146700013Y-104309061D02*
X148054087Y-102954987D01*
X143198285Y-87361664D02*
X143198285Y-92060723D01*
X143198285Y-92060723D02*
X140951620Y-94307388D01*
X143198285Y-87361664D02*
X142648677Y-86812056D01*
X145634603Y-87361664D02*
X143198285Y-87361664D01*
X147881267Y-85115000D02*
X145634603Y-87361664D01*
X151666945Y-90190092D02*
X148463031Y-90190092D01*
X148463031Y-90190092D02*
X145634603Y-87361664D01*
X152216554Y-89640483D02*
X151666945Y-90190092D01*
X152406750Y-89640483D02*
X152216554Y-89640483D01*
X141478000Y-85641379D02*
X140759379Y-85641379D01*
X140759379Y-85641379D02*
X139573000Y-84455000D01*
X139573000Y-82875174D02*
X138584913Y-81887087D01*
X139573000Y-84455000D02*
X139573000Y-82875174D01*
X138929627Y-81542373D02*
X138929627Y-80399373D01*
X138584913Y-81887087D02*
X138929627Y-81542373D01*
X138661000Y-75878000D02*
X141097000Y-78232000D01*
X138929627Y-80399373D02*
X141097000Y-78232000D01*
X141097000Y-78232000D02*
X142494000Y-78232000D01*
X142494000Y-78232000D02*
X143256000Y-77470000D01*
X144106250Y-76649750D02*
X143256000Y-77470000D01*
X156491913Y-92682087D02*
X157988000Y-91186000D01*
X157988000Y-91186000D02*
X157988000Y-90043000D01*
X156491913Y-88546913D02*
X155801087Y-88546913D01*
X157988000Y-90043000D02*
X156491913Y-88546913D01*
X155801087Y-88546913D02*
X155306113Y-88051939D01*
X152406750Y-89450287D02*
X152406750Y-89640483D01*
X153805098Y-88051939D02*
X152406750Y-89450287D01*
X155306113Y-88051939D02*
X153805098Y-88051939D01*
X139836326Y-94291311D02*
X140385935Y-93741702D01*
X138124527Y-94291311D02*
X139836326Y-94291311D01*
X137757390Y-93924174D02*
X138124527Y-94291311D01*
X136215174Y-93924174D02*
X137757390Y-93924174D01*
X149379913Y-99200146D02*
X149379913Y-99794087D01*
X147881267Y-97701500D02*
X149379913Y-99200146D01*
X135128000Y-92837000D02*
X136215174Y-93924174D01*
X149379913Y-99794087D02*
X149451087Y-99794087D01*
X146959516Y-105219500D02*
X148822508Y-103356508D01*
X138239500Y-105219500D02*
X146959516Y-105219500D01*
X148842402Y-103356508D02*
X150864455Y-101334455D01*
X148822508Y-103356508D02*
X148842402Y-103356508D01*
X149379913Y-99849913D02*
X150864455Y-101334455D01*
X149379913Y-99794087D02*
X149379913Y-99849913D01*
X141517306Y-87943427D02*
X140388439Y-86814561D01*
X133223000Y-82423000D02*
X133223000Y-79649121D01*
X137487561Y-86814561D02*
X135573549Y-84900549D01*
X133223000Y-79649121D02*
X133223000Y-78486000D01*
X135573549Y-84900549D02*
X135573549Y-84773549D01*
X140388439Y-86814561D02*
X139118439Y-86814561D01*
X135573549Y-84773549D02*
X133223000Y-82423000D01*
X144345733Y-85115000D02*
X143637000Y-84406267D01*
X143637000Y-84406267D02*
X143637000Y-83439000D01*
X141025826Y-83002174D02*
X141025826Y-84256826D01*
X141025826Y-84256826D02*
X141478000Y-84709000D01*
X141025826Y-83002174D02*
X141025826Y-82388403D01*
X141025826Y-82388403D02*
X141771681Y-81642548D01*
X149352000Y-79499000D02*
X149730000Y-79121000D01*
X149352000Y-80899000D02*
X149352000Y-79499000D01*
X158805826Y-88900000D02*
X157126913Y-87221087D01*
X159004000Y-88900000D02*
X158805826Y-88900000D01*
X147315582Y-84160406D02*
X147315582Y-84549314D01*
X156631939Y-86527939D02*
X156019500Y-85915500D01*
X157126913Y-87221087D02*
X156631939Y-86726113D01*
X152989903Y-82885903D02*
X148590085Y-82885903D01*
X156631939Y-86726113D02*
X156631939Y-86527939D01*
X148590085Y-82885903D02*
X147315582Y-84160406D01*
X156019500Y-85915500D02*
X152989903Y-82885903D01*
X153770604Y-89408000D02*
X152972436Y-90206168D01*
X154559000Y-89408000D02*
X153770604Y-89408000D01*
X139118439Y-86814561D02*
X137487561Y-86814561D01*
D19*
X139388191Y-103179826D02*
X139644174Y-103179826D01*
X137194223Y-100985858D02*
X139388191Y-103179826D01*
X139996107Y-99494966D02*
X139996107Y-98594107D01*
X138080951Y-101410122D02*
X139996107Y-99494966D01*
X137194223Y-100985858D02*
X137618487Y-101410122D01*
X137618487Y-101410122D02*
X138080951Y-101410122D01*
X141224000Y-96297750D02*
X142082991Y-95438759D01*
X141224000Y-96297750D02*
X141192250Y-96297750D01*
X141192250Y-96297750D02*
X139700000Y-97790000D01*
X139700000Y-98298000D02*
X139996107Y-98594107D01*
X139700000Y-97790000D02*
X139700000Y-98298000D01*
X137090142Y-98228142D02*
X137547777Y-98228142D01*
X135255000Y-96393000D02*
X137090142Y-98228142D01*
X141517306Y-95107141D02*
X141517306Y-94873073D01*
X138396305Y-98228142D02*
X141517306Y-95107141D01*
X137547777Y-98228142D02*
X138396305Y-98228142D01*
X142082991Y-87377741D02*
X140938250Y-86233000D01*
X140279174Y-86233000D02*
X137259087Y-83212913D01*
X140938250Y-86233000D02*
X140279174Y-86233000D01*
X23971250Y-73501250D02*
X40386000Y-89916000D01*
X123698000Y-103251000D02*
X130304000Y-109857000D01*
X40386000Y-89916000D02*
X119634000Y-89916000D01*
X130304000Y-109857000D02*
X132207000Y-109857000D01*
X119761000Y-89789000D02*
X123698000Y-93726000D01*
X123698000Y-93726000D02*
X123698000Y-103251000D01*
X119634000Y-89916000D02*
X119761000Y-89789000D01*
X132207000Y-113157000D02*
X144272000Y-113157000D01*
X158750000Y-113157000D02*
X144272000Y-113157000D01*
X158750000Y-113157000D02*
X160528000Y-113157000D01*
X152520018Y-99941589D02*
X151252726Y-99941589D01*
X151252726Y-99941589D02*
X148446952Y-97135815D01*
X152920017Y-100341588D02*
X152520018Y-99941589D01*
X144272000Y-118687000D02*
X144272000Y-117983000D01*
X142383959Y-120575041D02*
X144272000Y-118687000D01*
X129211041Y-120575041D02*
X142383959Y-120575041D01*
X38608000Y-107188000D02*
X118364000Y-107188000D01*
X126492000Y-116723038D02*
X126492000Y-117856000D01*
X121412000Y-110236000D02*
X121412000Y-111643038D01*
X23971250Y-92551250D02*
X38608000Y-107188000D01*
X118364000Y-107188000D02*
X121412000Y-110236000D01*
X126492000Y-117856000D02*
X129211041Y-120575041D01*
X121412000Y-111643038D02*
X126492000Y-116723038D01*
X132208000Y-114683000D02*
X132207000Y-114682000D01*
X144272000Y-114683000D02*
X132208000Y-114683000D01*
X144272000Y-114683000D02*
X158750000Y-114683000D01*
X158750000Y-114683000D02*
X160907000Y-114683000D01*
X160907000Y-114683000D02*
X160909000Y-114681000D01*
X154057282Y-100450718D02*
X152666564Y-99060000D01*
X151502508Y-99060000D02*
X149012638Y-96570130D01*
X152666564Y-99060000D02*
X151502508Y-99060000D01*
X36070000Y-123700000D02*
X23971250Y-111601250D01*
X132207000Y-123700000D02*
X36070000Y-123700000D01*
X144272000Y-127000000D02*
X132207000Y-127000000D01*
X144272000Y-127000000D02*
X158750000Y-127000000D01*
X158750000Y-127000000D02*
X161925000Y-127000000D01*
X155142849Y-100508151D02*
X152932698Y-98298000D01*
X151871879Y-98298000D02*
X149578323Y-96004444D01*
X152932698Y-98298000D02*
X151871879Y-98298000D01*
X25096249Y-131776249D02*
X23971250Y-130651250D01*
X33188189Y-139868189D02*
X25096249Y-131776249D01*
X144272000Y-131824000D02*
X144272000Y-132528000D01*
X144272000Y-132528000D02*
X141926000Y-134874000D01*
X141926000Y-134874000D02*
X130429000Y-134874000D01*
X130429000Y-134874000D02*
X125434809Y-139868189D01*
X125434809Y-139868189D02*
X33188189Y-139868189D01*
X144270000Y-128526000D02*
X144272000Y-128524000D01*
X132207000Y-128526000D02*
X144270000Y-128526000D01*
X158750000Y-128524000D02*
X144272000Y-128524000D01*
X158750000Y-128524000D02*
X161036000Y-128524000D01*
X161036000Y-128524000D02*
X163068000Y-128524000D01*
X156210000Y-100457000D02*
X153416000Y-97663000D01*
X152368250Y-97663000D02*
X150144009Y-95438759D01*
X153416000Y-97663000D02*
X152368250Y-97663000D01*
X39084250Y-149701250D02*
X23971250Y-149701250D01*
X41084500Y-147701000D02*
X39084250Y-149701250D01*
X58928000Y-147701000D02*
X41084500Y-147701000D01*
X60198000Y-146685000D02*
X59055000Y-147828000D01*
X124206000Y-145669000D02*
X120777000Y-145669000D01*
X126365000Y-143510000D02*
X124206000Y-145669000D01*
X132207000Y-140589000D02*
X129286000Y-143510000D01*
X112268000Y-143256000D02*
X110236000Y-145288000D01*
X132207000Y-139444000D02*
X132207000Y-140589000D01*
X120777000Y-145669000D02*
X118364000Y-143256000D01*
X79629000Y-145288000D02*
X78232000Y-146685000D01*
X110236000Y-145288000D02*
X79629000Y-145288000D01*
X129286000Y-143510000D02*
X126365000Y-143510000D01*
X118364000Y-143256000D02*
X112268000Y-143256000D01*
X59055000Y-147828000D02*
X58928000Y-147701000D01*
X78232000Y-146685000D02*
X60198000Y-146685000D01*
X43021250Y-73501250D02*
X58981990Y-89461990D01*
X117020991Y-89334991D02*
X117147990Y-89461990D01*
X58981990Y-89461990D02*
X59108989Y-89334991D01*
X59108989Y-89334991D02*
X117020991Y-89334991D01*
X119949057Y-89334991D02*
X117020991Y-89334991D01*
X124152010Y-93537944D02*
X119949057Y-89334991D01*
X134620000Y-109857000D02*
X134620000Y-109153000D01*
X134306000Y-108839000D02*
X129932953Y-108839000D01*
X134620000Y-109153000D02*
X134306000Y-108839000D01*
X129932953Y-108839000D02*
X124152010Y-103058057D01*
X124152010Y-103058057D02*
X124152010Y-93537944D01*
X140423969Y-120121031D02*
X129519031Y-120121031D01*
X141859000Y-117982000D02*
X141859000Y-118686000D01*
X141859000Y-118686000D02*
X140423969Y-120121031D01*
X127635000Y-118237000D02*
X127381000Y-117983000D01*
X129519031Y-120121031D02*
X127635000Y-118237000D01*
X127434991Y-118036991D02*
X127635000Y-118237000D01*
X56134000Y-105664000D02*
X56134000Y-105791000D01*
X43021250Y-92551250D02*
X56134000Y-105664000D01*
X56134000Y-105791000D02*
X57023000Y-106680000D01*
X127434991Y-115616924D02*
X127434991Y-118036991D01*
X118498067Y-106680000D02*
X127434991Y-115616924D01*
X57023000Y-106680000D02*
X118498067Y-106680000D01*
X54342999Y-122922999D02*
X43021250Y-111601250D01*
X134546999Y-122922999D02*
X54342999Y-122922999D01*
X134620000Y-123700000D02*
X134620000Y-122996000D01*
X134620000Y-122996000D02*
X134546999Y-122922999D01*
X130294934Y-134366000D02*
X140589000Y-134366000D01*
X141859000Y-133096000D02*
X141859000Y-132207000D01*
X140589000Y-134366000D02*
X141859000Y-133096000D01*
X129278934Y-135382000D02*
X130294934Y-134366000D01*
X44146249Y-131776249D02*
X43021250Y-130651250D01*
X125246752Y-139414179D02*
X51784179Y-139414179D01*
X51784179Y-139414179D02*
X44146249Y-131776249D01*
X129278934Y-135382000D02*
X125246752Y-139414179D01*
X134620000Y-143002000D02*
X134620000Y-139444000D01*
X79756000Y-146177000D02*
X110363000Y-146177000D01*
X59086750Y-149701250D02*
X61341000Y-147447000D01*
X61341000Y-147447000D02*
X78486000Y-147447000D01*
X112649000Y-143891000D02*
X115951000Y-143891000D01*
X78486000Y-147447000D02*
X79756000Y-146177000D01*
X43021250Y-149701250D02*
X59086750Y-149701250D01*
X115951000Y-143891000D02*
X118745000Y-146685000D01*
X110363000Y-146177000D02*
X112649000Y-143891000D01*
X133096000Y-144526000D02*
X134620000Y-143002000D01*
X124333000Y-146685000D02*
X126492000Y-144526000D01*
X118745000Y-146685000D02*
X124333000Y-146685000D01*
X126492000Y-144526000D02*
X133096000Y-144526000D01*
X137033000Y-109857000D02*
X137033000Y-109153000D01*
X137033000Y-109153000D02*
X136264990Y-108384990D01*
X62071250Y-73501250D02*
X77450981Y-88880981D01*
X77450981Y-88880981D02*
X77978000Y-88880981D01*
X77978000Y-88880981D02*
X116459000Y-88880981D01*
X117209048Y-88880981D02*
X116205000Y-88880981D01*
X130348923Y-108384990D02*
X124606020Y-102642087D01*
X136264990Y-108384990D02*
X130348923Y-108384990D01*
X124606020Y-102642087D02*
X124606020Y-93349887D01*
X124606020Y-93349887D02*
X120137114Y-88880981D01*
X120137114Y-88880981D02*
X117209048Y-88880981D01*
X138464979Y-119667021D02*
X129954021Y-119667021D01*
X139446000Y-117982000D02*
X139446000Y-118686000D01*
X139446000Y-118686000D02*
X138464979Y-119667021D01*
X127952500Y-117665500D02*
X127889000Y-117602000D01*
X129954021Y-119667021D02*
X127952500Y-117665500D01*
X127952500Y-115492367D02*
X127952500Y-117665500D01*
X118632133Y-106172000D02*
X127952500Y-115492367D01*
X75692000Y-106172000D02*
X118632133Y-106172000D01*
X62071250Y-92551250D02*
X75692000Y-106172000D01*
X137033000Y-123700000D02*
X137033000Y-122996000D01*
X72938989Y-122468989D02*
X62071250Y-111601250D01*
X136505989Y-122468989D02*
X72938989Y-122468989D01*
X137033000Y-122996000D02*
X136505989Y-122468989D01*
X139446000Y-131826000D02*
X139446000Y-132530000D01*
X63196249Y-131776249D02*
X62071250Y-130651250D01*
X70380170Y-138960170D02*
X63196249Y-131776249D01*
X139446000Y-131826000D02*
X139446000Y-132695980D01*
X138229990Y-133911990D02*
X130106877Y-133911990D01*
X139446000Y-132695980D02*
X138229990Y-133911990D01*
X130106877Y-133911990D02*
X125058695Y-138960170D01*
X125058695Y-138960170D02*
X70380170Y-138960170D01*
X137033000Y-139444000D02*
X137033000Y-140148000D01*
X137033000Y-140148000D02*
X137033000Y-143256000D01*
X137033000Y-143256000D02*
X137033000Y-143383000D01*
X63757490Y-149606000D02*
X63662240Y-149701250D01*
X80772000Y-147193000D02*
X78359000Y-149606000D01*
X120777000Y-147320000D02*
X118237000Y-149860000D01*
X134747000Y-145542000D02*
X126746000Y-145669000D01*
X125095000Y-147320000D02*
X120777000Y-147320000D01*
X108204000Y-149860000D02*
X108077000Y-149987000D01*
X105082990Y-146992990D02*
X97863010Y-146992990D01*
X63662240Y-149701250D02*
X62071250Y-149701250D01*
X126746000Y-145669000D02*
X125095000Y-147320000D01*
X97863010Y-146992990D02*
X97663000Y-147193000D01*
X118237000Y-149860000D02*
X108204000Y-149860000D01*
X78359000Y-149606000D02*
X63757490Y-149606000D01*
X137033000Y-143256000D02*
X134747000Y-145542000D01*
X108077000Y-149987000D02*
X105082990Y-146992990D01*
X97663000Y-147193000D02*
X80772000Y-147193000D01*
X139446000Y-109153000D02*
X139446000Y-109857000D01*
X138223980Y-107930980D02*
X139446000Y-109153000D01*
X130536979Y-107930980D02*
X138223980Y-107930980D01*
X81121250Y-73501250D02*
X96046971Y-88426971D01*
X96046971Y-88426971D02*
X120325171Y-88426971D01*
X125105599Y-102499600D02*
X130536979Y-107930980D01*
X120325171Y-88426971D02*
X125105599Y-93207401D01*
X125105599Y-93207401D02*
X125105599Y-102499600D01*
X137033000Y-118686000D02*
X137033000Y-117982000D01*
X136505989Y-119213011D02*
X137033000Y-118686000D01*
X81121250Y-92551250D02*
X94287990Y-105717990D01*
X94287990Y-105717990D02*
X118820190Y-105717990D01*
X130389011Y-119213011D02*
X136505989Y-119213011D01*
X118820190Y-105717990D02*
X128651000Y-115548800D01*
X128651000Y-115548800D02*
X128651000Y-117475000D01*
X128651000Y-117475000D02*
X130389011Y-119213011D01*
X91534979Y-122014979D02*
X81121250Y-111601250D01*
X138464979Y-122014979D02*
X91534979Y-122014979D01*
X139446000Y-123700000D02*
X139446000Y-122996000D01*
X139446000Y-122996000D02*
X138464979Y-122014979D01*
X82246249Y-131776249D02*
X81121250Y-130651250D01*
X137033000Y-131826000D02*
X137033000Y-132842000D01*
X137033000Y-132842000D02*
X136417020Y-133457980D01*
X136417020Y-133457980D02*
X129918820Y-133457980D01*
X129918820Y-133457980D02*
X124870638Y-138506160D01*
X88976160Y-138506160D02*
X82246249Y-131776249D01*
X124870638Y-138506160D02*
X88976160Y-138506160D01*
X131191000Y-146558000D02*
X131445000Y-146558000D01*
X141097000Y-144145000D02*
X139446000Y-142494000D01*
X139446000Y-142494000D02*
X139446000Y-139444000D01*
X132207000Y-146558000D02*
X135128000Y-149479000D01*
X135128000Y-149479000D02*
X139573000Y-149479000D01*
X139573000Y-149479000D02*
X141097000Y-147955000D01*
X131191000Y-146558000D02*
X132207000Y-146558000D01*
X141097000Y-147955000D02*
X141097000Y-144145000D01*
X127381000Y-146558000D02*
X131191000Y-146558000D01*
X125349000Y-148590000D02*
X127381000Y-146558000D01*
X102235000Y-147447000D02*
X102235000Y-147527498D01*
X82573251Y-148249249D02*
X98257751Y-148249249D01*
X99060000Y-147447000D02*
X102235000Y-147447000D01*
X102235000Y-147527498D02*
X102956751Y-148249249D01*
X98257751Y-148249249D02*
X99060000Y-147447000D01*
X102956751Y-148249249D02*
X104815249Y-148249249D01*
X107569000Y-151003000D02*
X118491000Y-151003000D01*
X104815249Y-148249249D02*
X107569000Y-151003000D01*
X118491000Y-151003000D02*
X120904000Y-148590000D01*
X81121250Y-149701250D02*
X82573251Y-148249249D01*
X120904000Y-148590000D02*
X125349000Y-148590000D01*
X141859000Y-109153000D02*
X140182970Y-107476970D01*
X141859000Y-109857000D02*
X141859000Y-109153000D01*
X140182970Y-107476970D02*
X138412037Y-107476970D01*
X138412037Y-107476970D02*
X131572000Y-107476970D01*
X131572000Y-107476970D02*
X130725035Y-107476970D01*
X130725035Y-107476970D02*
X126876532Y-103628467D01*
X126876532Y-103628467D02*
X125559609Y-102311544D01*
X125559609Y-102311544D02*
X125559609Y-97663000D01*
X125559609Y-97663000D02*
X125559609Y-93019344D01*
X125559609Y-93019344D02*
X121299132Y-88758867D01*
X121299132Y-88758867D02*
X120513228Y-87972961D01*
X100171250Y-73501250D02*
X114642961Y-87972961D01*
X120513228Y-87972961D02*
X114642961Y-87972961D01*
X130697001Y-118759001D02*
X134546999Y-118759001D01*
X134620000Y-118686000D02*
X134620000Y-117982000D01*
X112883980Y-105263980D02*
X119008247Y-105263980D01*
X129286000Y-117348000D02*
X130697001Y-118759001D01*
X100171250Y-92551250D02*
X112883980Y-105263980D01*
X134546999Y-118759001D02*
X134620000Y-118686000D01*
X119008247Y-105263980D02*
X129286000Y-115541734D01*
X129286000Y-115541734D02*
X129286000Y-117348000D01*
X141859000Y-123190000D02*
X141859000Y-122936000D01*
X141859000Y-123700000D02*
X141859000Y-123190000D01*
X110130969Y-121560969D02*
X100171250Y-111601250D01*
X140991969Y-121560969D02*
X110130969Y-121560969D01*
X141859000Y-123190000D02*
X141859000Y-122428000D01*
X141859000Y-122428000D02*
X140991969Y-121560969D01*
X134146030Y-133003970D02*
X129730763Y-133003970D01*
X134620000Y-131826000D02*
X134620000Y-132530000D01*
X134620000Y-132530000D02*
X134146030Y-133003970D01*
X101296249Y-131776249D02*
X100171250Y-130651250D01*
X107572151Y-138052151D02*
X101296249Y-131776249D01*
X128446366Y-134288366D02*
X124682581Y-138052151D01*
X129730763Y-133003970D02*
X128446366Y-134288366D01*
X124682581Y-138052151D02*
X107572151Y-138052151D01*
X128446366Y-134288366D02*
X127508000Y-135226733D01*
X139954000Y-150622000D02*
X141859000Y-148717000D01*
X134239000Y-150622000D02*
X139954000Y-150622000D01*
X130810000Y-147193000D02*
X134239000Y-150622000D01*
X141859000Y-148717000D02*
X141859000Y-139444000D01*
X128333500Y-147193000D02*
X130810000Y-147193000D01*
X125825250Y-149701250D02*
X128333500Y-147193000D01*
X100171250Y-149701250D02*
X104616250Y-149701250D01*
X104616250Y-149701250D02*
X107061000Y-152146000D01*
X107061000Y-152146000D02*
X118491000Y-152146000D01*
X121031000Y-149606000D02*
X125825250Y-149701250D01*
X118491000Y-152146000D02*
X121031000Y-149606000D01*
X119221250Y-75787250D02*
X119221250Y-73501250D01*
X119888000Y-76454000D02*
X119221250Y-75787250D01*
X119888000Y-86705668D02*
X119888000Y-76454000D01*
X126013619Y-92831287D02*
X119888000Y-86705668D01*
X144272000Y-109857000D02*
X144272000Y-108966000D01*
X142293990Y-106987990D02*
X130878121Y-106987990D01*
X130878121Y-106987990D02*
X126013619Y-102123488D01*
X144272000Y-108966000D02*
X142293990Y-106987990D01*
X126013619Y-102123488D02*
X126013619Y-92831287D01*
X132207000Y-117982000D02*
X130936000Y-117982000D01*
X130936000Y-117982000D02*
X130048000Y-117094000D01*
X130048000Y-117094000D02*
X130048000Y-115570000D01*
X130048000Y-115570000D02*
X122174000Y-107696000D01*
X122174000Y-101473000D02*
X119888000Y-99187000D01*
X122174000Y-107696000D02*
X122174000Y-101473000D01*
X119888000Y-99187000D02*
X119888000Y-94869000D01*
X119221250Y-94202250D02*
X119221250Y-92551250D01*
X119888000Y-94869000D02*
X119221250Y-94202250D01*
X144272000Y-122996000D02*
X144272000Y-123700000D01*
X142382959Y-121106959D02*
X144272000Y-122996000D01*
X128694974Y-121106959D02*
X142382959Y-121106959D01*
X128694974Y-121074974D02*
X119221250Y-111601250D01*
X128694974Y-121106959D02*
X128694974Y-121074974D01*
X123571000Y-135001000D02*
X119221250Y-130651250D01*
X131353000Y-131826000D02*
X130629040Y-132549960D01*
X132207000Y-131826000D02*
X131353000Y-131826000D01*
X126873000Y-135001000D02*
X123571000Y-135001000D01*
X130629040Y-132549960D02*
X129324040Y-132549960D01*
X129324040Y-132549960D02*
X126873000Y-135001000D01*
X144272000Y-150114000D02*
X144272000Y-139446000D01*
X141859000Y-152527000D02*
X144272000Y-150114000D01*
X128746250Y-149701250D02*
X131572000Y-152527000D01*
X131572000Y-152527000D02*
X141859000Y-152527000D01*
X177496249Y-74626249D02*
X176371250Y-73501250D01*
X164066334Y-103487335D02*
X164066334Y-89390331D01*
X166064715Y-87391950D02*
X170926050Y-87391950D01*
X146685000Y-109153000D02*
X148815040Y-107022960D01*
X160530709Y-107022960D02*
X164066334Y-103487335D01*
X177038000Y-81280000D02*
X177038000Y-75565000D01*
X146685000Y-109857000D02*
X146685000Y-109153000D01*
X177038000Y-75565000D02*
X177496249Y-75106751D01*
X164066334Y-89390331D02*
X166064715Y-87391950D01*
X177496249Y-75106751D02*
X177496249Y-74626249D01*
X148815040Y-107022960D02*
X160530709Y-107022960D01*
X170926050Y-87391950D02*
X177038000Y-81280000D01*
X158750000Y-117983000D02*
X158750000Y-118110000D01*
X158750000Y-118110000D02*
X158945991Y-118305991D01*
X159689942Y-118305991D02*
X162179000Y-118305991D01*
X162179000Y-118305991D02*
X162455679Y-118305991D01*
X162455679Y-118305991D02*
X164447335Y-116314335D01*
X164447335Y-116314335D02*
X164861950Y-115899720D01*
X164861950Y-112597715D02*
X171160665Y-106299000D01*
X164861950Y-115899720D02*
X164861950Y-112597715D01*
X171160665Y-106299000D02*
X173482000Y-106299000D01*
X176371250Y-94710250D02*
X176371250Y-92551250D01*
X177038000Y-95377000D02*
X176371250Y-94710250D01*
X173482000Y-106299000D02*
X173609000Y-106299000D01*
X177038000Y-102870000D02*
X177038000Y-95377000D01*
X173609000Y-106299000D02*
X177038000Y-102870000D01*
X159689942Y-118305991D02*
X158623000Y-118305991D01*
X146685000Y-122996000D02*
X148574041Y-121106959D01*
X176911000Y-114300000D02*
X176371250Y-113760250D01*
X146685000Y-123700000D02*
X146685000Y-122996000D01*
X176371250Y-113760250D02*
X176371250Y-111601250D01*
X148574041Y-121106959D02*
X174041041Y-121106959D01*
X174041041Y-121106959D02*
X176911000Y-118237000D01*
X176911000Y-118237000D02*
X176911000Y-114300000D01*
X160776750Y-130651250D02*
X174780260Y-130651250D01*
X159604000Y-131824000D02*
X160776750Y-130651250D01*
X174780260Y-130651250D02*
X176371250Y-130651250D01*
X158750000Y-131824000D02*
X159604000Y-131824000D01*
X146685000Y-140148000D02*
X146685000Y-150241000D01*
X146685000Y-139444000D02*
X146685000Y-140148000D01*
X146685000Y-150241000D02*
X146685000Y-150368000D01*
X146685000Y-150368000D02*
X148717000Y-152400000D01*
X148717000Y-152400000D02*
X156337000Y-152400000D01*
X159416750Y-149701250D02*
X166846250Y-149701250D01*
X156337000Y-152400000D02*
X156718000Y-152400000D01*
X156718000Y-152400000D02*
X159416750Y-149701250D01*
X195421250Y-75406250D02*
X195421250Y-73501250D01*
X195961000Y-75946000D02*
X195421250Y-75406250D01*
X195961000Y-81026000D02*
X195961000Y-75946000D01*
X164553960Y-89544772D02*
X166252772Y-87845960D01*
X149098000Y-109152000D02*
X150773030Y-107476970D01*
X149098000Y-109856000D02*
X149098000Y-109152000D01*
X150773030Y-107476970D02*
X160718765Y-107476970D01*
X189141040Y-87845960D02*
X195961000Y-81026000D01*
X160718765Y-107476970D02*
X164553960Y-103641775D01*
X166252772Y-87845960D02*
X189141040Y-87845960D01*
X164553960Y-103641775D02*
X164553960Y-89544772D01*
X196546249Y-94537751D02*
X196546249Y-93676249D01*
X196546249Y-93676249D02*
X195421250Y-92551250D01*
X195834000Y-99949000D02*
X195834000Y-95250000D01*
X189014040Y-106768960D02*
X195834000Y-99949000D01*
X195834000Y-95250000D02*
X196546249Y-94537751D01*
X171332772Y-106768960D02*
X189014040Y-106768960D01*
X156410001Y-118760001D02*
X162643735Y-118760001D01*
X162643735Y-118760001D02*
X165315960Y-116087776D01*
X165315960Y-116087776D02*
X165315960Y-112785772D01*
X165315960Y-112785772D02*
X171332772Y-106768960D01*
X156337000Y-118687000D02*
X156337000Y-117982000D01*
X156410001Y-118760001D02*
X156337000Y-118687000D01*
X195421250Y-113252250D02*
X195421250Y-111601250D01*
X196215000Y-114046000D02*
X195421250Y-113252250D01*
X149098000Y-122996000D02*
X150533031Y-121560969D01*
X196215000Y-118745000D02*
X196215000Y-114046000D01*
X149098000Y-123700000D02*
X149098000Y-122996000D01*
X150533031Y-121560969D02*
X193399031Y-121560969D01*
X193399031Y-121560969D02*
X196215000Y-118745000D01*
X196546249Y-131776249D02*
X195421250Y-130651250D01*
X196546249Y-132510751D02*
X196546249Y-131776249D01*
X196215000Y-137160000D02*
X196215000Y-132842000D01*
X194818000Y-138557000D02*
X196215000Y-137160000D01*
X156337000Y-131824000D02*
X156337000Y-132528000D01*
X156337000Y-132528000D02*
X156651000Y-132842000D01*
X164083038Y-132842000D02*
X169798038Y-138557000D01*
X169798038Y-138557000D02*
X194818000Y-138557000D01*
X196215000Y-132842000D02*
X196546249Y-132510751D01*
X156651000Y-132842000D02*
X164083038Y-132842000D01*
X195421250Y-149701250D02*
X188245750Y-149701250D01*
X188245750Y-149701250D02*
X185547000Y-152400000D01*
X170942000Y-152400000D02*
X170688000Y-152146000D01*
X185547000Y-152400000D02*
X170942000Y-152400000D01*
X170783250Y-152241250D02*
X170688000Y-152146000D01*
X147828000Y-141605000D02*
X147828000Y-149860000D01*
X149479000Y-151511000D02*
X156210000Y-151511000D01*
X169037000Y-150495000D02*
X170688000Y-152146000D01*
X149098000Y-140335000D02*
X147828000Y-141605000D01*
X163576000Y-148971000D02*
X165100000Y-147447000D01*
X147828000Y-149860000D02*
X149479000Y-151511000D01*
X156210000Y-151511000D02*
X158750000Y-148971000D01*
X149098000Y-139444000D02*
X149098000Y-140335000D01*
X158750000Y-148971000D02*
X163576000Y-148971000D01*
X165100000Y-147447000D02*
X167767000Y-147447000D01*
X167767000Y-147447000D02*
X169037000Y-148717000D01*
X169037000Y-148717000D02*
X169037000Y-150495000D01*
X214471250Y-75533250D02*
X214471250Y-73501250D01*
X215138000Y-76200000D02*
X214471250Y-75533250D01*
X165007970Y-89732829D02*
X166440829Y-88299970D01*
X166440829Y-88299970D02*
X208372030Y-88299970D01*
X151511000Y-109153000D02*
X152733020Y-107930980D01*
X151511000Y-109857000D02*
X151511000Y-109153000D01*
X215138000Y-81534000D02*
X215138000Y-76200000D01*
X152733020Y-107930980D02*
X160906821Y-107930980D01*
X165007970Y-103829831D02*
X165007970Y-89732829D01*
X208372030Y-88299970D02*
X215138000Y-81534000D01*
X160906821Y-107930980D02*
X165007970Y-103829831D01*
X215265000Y-99822000D02*
X215265000Y-94742000D01*
X171520829Y-107222970D02*
X207864030Y-107222970D01*
X215596249Y-93676249D02*
X214471250Y-92551250D01*
X215265000Y-94742000D02*
X215596249Y-94410751D01*
X207864030Y-107222970D02*
X215265000Y-99822000D01*
X153924000Y-118687000D02*
X154451011Y-119214011D01*
X215596249Y-94410751D02*
X215596249Y-93676249D01*
X162831791Y-119214011D02*
X165769970Y-116275832D01*
X154451011Y-119214011D02*
X162831791Y-119214011D01*
X165769970Y-116275832D02*
X165769970Y-112973829D01*
X165769970Y-112973829D02*
X171520829Y-107222970D01*
X153924000Y-118687000D02*
X153924000Y-117983000D01*
X215265000Y-114173000D02*
X214471250Y-113379250D01*
X151511000Y-122996000D02*
X152492021Y-122014979D01*
X151511000Y-123700000D02*
X151511000Y-122996000D01*
X214471250Y-113379250D02*
X214471250Y-111601250D01*
X211614021Y-122014979D02*
X215265000Y-118364000D01*
X215265000Y-118364000D02*
X215265000Y-114173000D01*
X152492021Y-122014979D02*
X211614021Y-122014979D01*
X215138000Y-133477000D02*
X214471250Y-132810250D01*
X215138000Y-137541000D02*
X215138000Y-133477000D01*
X153924000Y-132528000D02*
X154692010Y-133296010D01*
X169609981Y-139011010D02*
X213667990Y-139011010D01*
X214471250Y-132810250D02*
X214471250Y-130651250D01*
X213667990Y-139011010D02*
X215138000Y-137541000D01*
X153924000Y-131824000D02*
X153924000Y-132528000D01*
X154692010Y-133296010D02*
X163894982Y-133296010D01*
X163894982Y-133296010D02*
X169609981Y-139011010D01*
X196723000Y-147574000D02*
X198850250Y-149701250D01*
X194310000Y-147574000D02*
X196723000Y-147574000D01*
X188046751Y-148249249D02*
X193634751Y-148249249D01*
X172847000Y-151130000D02*
X185166000Y-151130000D01*
X151511000Y-139444000D02*
X151511000Y-140148000D01*
X198850250Y-149701250D02*
X214471250Y-149701250D01*
X185166000Y-151130000D02*
X188046751Y-148249249D01*
X151511000Y-140148000D02*
X149479000Y-142240000D01*
X193634751Y-148249249D02*
X194310000Y-147574000D01*
X149479000Y-142240000D02*
X149479000Y-149352000D01*
X149479000Y-149352000D02*
X150368000Y-150241000D01*
X158115000Y-148082000D02*
X163449000Y-148082000D01*
X150368000Y-150241000D02*
X155956000Y-150241000D01*
X164846000Y-146685000D02*
X168529000Y-146685000D01*
X163449000Y-148082000D02*
X164846000Y-146685000D01*
X155956000Y-150241000D02*
X158115000Y-148082000D01*
X168529000Y-146685000D02*
X168529000Y-146812000D01*
X168529000Y-146812000D02*
X172847000Y-151130000D01*
X233521250Y-75152250D02*
X233521250Y-73501250D01*
X234061000Y-75692000D02*
X233521250Y-75152250D01*
X234061000Y-82296000D02*
X234061000Y-75692000D01*
X227603020Y-88753980D02*
X234061000Y-82296000D01*
X165461980Y-89920886D02*
X166628886Y-88753980D01*
X153924000Y-109153000D02*
X154692010Y-108384990D01*
X153924000Y-109857000D02*
X153924000Y-109153000D01*
X154692010Y-108384990D02*
X161094877Y-108384990D01*
X166628886Y-88753980D02*
X227603020Y-88753980D01*
X161094877Y-108384990D02*
X165461980Y-104017887D01*
X165461980Y-104017887D02*
X165461980Y-89920886D01*
X152492021Y-119668021D02*
X163019847Y-119668021D01*
X166223980Y-113161886D02*
X171708886Y-107676980D01*
X208052087Y-107676980D02*
X208160067Y-107569000D01*
X166223980Y-116463888D02*
X166223980Y-113161886D01*
X151511000Y-118687000D02*
X152492021Y-119668021D01*
X171708886Y-107676980D02*
X208052087Y-107676980D01*
X163019847Y-119668021D02*
X166223980Y-116463888D01*
X208052087Y-107676980D02*
X229889020Y-107676980D01*
X233521250Y-95218250D02*
X233521250Y-92551250D01*
X234061000Y-95758000D02*
X233521250Y-95218250D01*
X234061000Y-103505000D02*
X234061000Y-95758000D01*
X229889020Y-107676980D02*
X234061000Y-103505000D01*
X151511000Y-118687000D02*
X151511000Y-117982000D01*
X233521250Y-114776250D02*
X233521250Y-111601250D01*
X233934000Y-115189000D02*
X233521250Y-114776250D01*
X153924000Y-123700000D02*
X153924000Y-122996000D01*
X153924000Y-122996000D02*
X154451011Y-122468989D01*
X154451011Y-122468989D02*
X230337011Y-122468989D01*
X230337011Y-122468989D02*
X233934000Y-118872000D01*
X233934000Y-118872000D02*
X233934000Y-115189000D01*
X234646249Y-131776249D02*
X233521250Y-130651250D01*
X234315000Y-132715000D02*
X234646249Y-132383751D01*
X234646249Y-132383751D02*
X234646249Y-131776249D01*
X234315000Y-137668000D02*
X234315000Y-132715000D01*
X151511000Y-131824000D02*
X151511000Y-132528000D01*
X151511000Y-132528000D02*
X152733020Y-133750020D01*
X152733020Y-133750020D02*
X163706926Y-133750020D01*
X232517980Y-139465020D02*
X234315000Y-137668000D01*
X163706926Y-133750020D02*
X169421924Y-139465020D01*
X169421924Y-139465020D02*
X232517980Y-139465020D01*
X153924000Y-142494000D02*
X153924000Y-139446000D01*
X158242000Y-146685000D02*
X153924000Y-142494000D01*
X163830000Y-146685000D02*
X158242000Y-146685000D01*
X164338000Y-146177000D02*
X163830000Y-146685000D01*
X212471000Y-148717000D02*
X200914000Y-148717000D01*
X170307000Y-146177000D02*
X164338000Y-146177000D01*
X217900250Y-149701250D02*
X215900000Y-147701000D01*
X215900000Y-147701000D02*
X213487000Y-147701000D01*
X213487000Y-147701000D02*
X212471000Y-148717000D01*
X200914000Y-148717000D02*
X199316990Y-147119990D01*
X199316990Y-147119990D02*
X187398010Y-147119990D01*
X233521250Y-149701250D02*
X217900250Y-149701250D01*
X173863000Y-149733000D02*
X170307000Y-146177000D01*
X187398010Y-147119990D02*
X184785000Y-149733000D01*
X184785000Y-149733000D02*
X173863000Y-149733000D01*
X252571250Y-75660250D02*
X252571250Y-73501250D01*
X253365000Y-76454000D02*
X252571250Y-75660250D01*
X161851990Y-108277010D02*
X161851990Y-108269943D01*
X156337000Y-109857000D02*
X156337000Y-109153000D01*
X166816943Y-89207990D02*
X245564010Y-89207990D01*
X253365000Y-81407000D02*
X253365000Y-76454000D01*
X161290000Y-108839000D02*
X161851990Y-108277010D01*
X156651000Y-108839000D02*
X161290000Y-108839000D01*
X156337000Y-109153000D02*
X156651000Y-108839000D01*
X161851990Y-108269943D02*
X165915990Y-104205944D01*
X165915990Y-104205944D02*
X165915990Y-90108943D01*
X165915990Y-90108943D02*
X166816943Y-89207990D01*
X245564010Y-89207990D02*
X253365000Y-81407000D01*
X180520990Y-108130990D02*
X246199010Y-108130990D01*
X180520990Y-108130990D02*
X180721000Y-108130990D01*
X246199010Y-108130990D02*
X253238000Y-101092000D01*
X253238000Y-101092000D02*
X253238000Y-94742000D01*
X253696249Y-93676249D02*
X252571250Y-92551250D01*
X253696249Y-94283751D02*
X253696249Y-93676249D01*
X253238000Y-94742000D02*
X253696249Y-94283751D01*
X171896943Y-108130990D02*
X180520990Y-108130990D01*
X166677990Y-113349943D02*
X171896943Y-108130990D01*
X149098000Y-118685000D02*
X150535031Y-120122031D01*
X166677990Y-116651944D02*
X166677990Y-113349943D01*
X149098000Y-117982000D02*
X149098000Y-118685000D01*
X150535031Y-120122031D02*
X163207903Y-120122031D01*
X163207903Y-120122031D02*
X166677990Y-116651944D01*
X252571250Y-113252250D02*
X252571250Y-111601250D01*
X253238000Y-113919000D02*
X252571250Y-113252250D01*
X156337000Y-123700000D02*
X156337000Y-122996000D01*
X156410001Y-122922999D02*
X249187001Y-122922999D01*
X156337000Y-122996000D02*
X156410001Y-122922999D01*
X249187001Y-122922999D02*
X253238000Y-118872000D01*
X253238000Y-118872000D02*
X253238000Y-113919000D01*
X253696249Y-131776249D02*
X252571250Y-130651250D01*
X253696249Y-132383751D02*
X253696249Y-131776249D01*
X253365000Y-138049000D02*
X253365000Y-132715000D01*
X253365000Y-132715000D02*
X253696249Y-132383751D01*
X251494970Y-139919030D02*
X253365000Y-138049000D01*
X149098000Y-131824000D02*
X149098000Y-132528000D01*
X149098000Y-132528000D02*
X150774030Y-134204030D01*
X150774030Y-134204030D02*
X163518870Y-134204030D01*
X169233870Y-139919030D02*
X251494970Y-139919030D01*
X163518870Y-134204030D02*
X169233870Y-139919030D01*
X156337000Y-139446000D02*
X156337000Y-143256000D01*
X156337000Y-143256000D02*
X158623000Y-145542000D01*
X158623000Y-145542000D02*
X158750000Y-145669000D01*
X158750000Y-145669000D02*
X171450000Y-145669000D01*
X171577000Y-145669000D02*
X171450000Y-145669000D01*
X173609000Y-143637000D02*
X171577000Y-145669000D01*
X178054000Y-143637000D02*
X173609000Y-143637000D01*
X186436000Y-146431000D02*
X185293000Y-147574000D01*
X232410000Y-147574000D02*
X231267000Y-148717000D01*
X201422000Y-147701000D02*
X200152000Y-146431000D01*
X181991000Y-147574000D02*
X178054000Y-143637000D01*
X234569000Y-147574000D02*
X232410000Y-147574000D01*
X236696250Y-149701250D02*
X234569000Y-147574000D01*
X252571250Y-149701250D02*
X236696250Y-149701250D01*
X218440000Y-148717000D02*
X216662000Y-146939000D01*
X185293000Y-147574000D02*
X181991000Y-147574000D01*
X216662000Y-146939000D02*
X212852000Y-146939000D01*
X231267000Y-148717000D02*
X218440000Y-148717000D01*
X200152000Y-146431000D02*
X186436000Y-146431000D01*
X212852000Y-146939000D02*
X212090000Y-147701000D01*
X212090000Y-147701000D02*
X201422000Y-147701000D01*
X272415000Y-82169000D02*
X272415000Y-75946000D01*
X166370000Y-90297000D02*
X167005000Y-89662000D01*
X271621250Y-75152250D02*
X271621250Y-73501250D01*
X264922000Y-89662000D02*
X272415000Y-82169000D01*
X160914066Y-109857000D02*
X162305999Y-108465067D01*
X158750000Y-109857000D02*
X160914066Y-109857000D01*
X167005000Y-89662000D02*
X264922000Y-89662000D01*
X162305999Y-108465067D02*
X162306000Y-108458000D01*
X162306000Y-108458000D02*
X166370000Y-104394000D01*
X272415000Y-75946000D02*
X271621250Y-75152250D01*
X166370000Y-104394000D02*
X166370000Y-90297000D01*
X272415000Y-95377000D02*
X271621250Y-94583250D01*
X263652000Y-108585000D02*
X272415000Y-99822000D01*
X172085000Y-108585000D02*
X263652000Y-108585000D01*
X148574041Y-120576041D02*
X163395959Y-120576041D01*
X146685000Y-118687000D02*
X148574041Y-120576041D01*
X163395959Y-120576041D02*
X167132000Y-116840000D01*
X271621250Y-94583250D02*
X271621250Y-92551250D01*
X272415000Y-99822000D02*
X272415000Y-95377000D01*
X167132000Y-113538000D02*
X172085000Y-108585000D01*
X167132000Y-116840000D02*
X167132000Y-113538000D01*
X146685000Y-117982000D02*
X146685000Y-118687000D01*
X272746249Y-112726249D02*
X271621250Y-111601250D01*
X266952000Y-123700000D02*
X272415000Y-118237000D01*
X272415000Y-113919000D02*
X272746249Y-113587751D01*
X272415000Y-118237000D02*
X272415000Y-113919000D01*
X158750000Y-123700000D02*
X266952000Y-123700000D01*
X272746249Y-113587751D02*
X272746249Y-112726249D01*
X271621250Y-132556250D02*
X271621250Y-130651250D01*
X272161000Y-138684000D02*
X272161000Y-133096000D01*
X270471960Y-140373040D02*
X272161000Y-138684000D01*
X146685000Y-132528000D02*
X148904000Y-134747000D01*
X146685000Y-131824000D02*
X146685000Y-132528000D01*
X272161000Y-133096000D02*
X271621250Y-132556250D01*
X163419774Y-134747000D02*
X169045813Y-140373040D01*
X148904000Y-134747000D02*
X163419774Y-134747000D01*
X169045813Y-140373040D02*
X270471960Y-140373040D01*
X158750000Y-143383000D02*
X158750000Y-139446000D01*
X172974000Y-142875000D02*
X170942000Y-144780000D01*
X179197000Y-142875000D02*
X172974000Y-142875000D01*
X182118000Y-145669000D02*
X179197000Y-142875000D01*
X201549000Y-145669000D02*
X182118000Y-145669000D01*
X202438000Y-146558000D02*
X201549000Y-145669000D01*
X251587000Y-147574000D02*
X250444000Y-148717000D01*
X202511010Y-146484990D02*
X202438000Y-146558000D01*
X256508250Y-149701250D02*
X254381000Y-147574000D01*
X170942000Y-144780000D02*
X160147000Y-144780000D01*
X254381000Y-147574000D02*
X251587000Y-147574000D01*
X250444000Y-148717000D02*
X237744000Y-148717000D01*
X271621250Y-149701250D02*
X256508250Y-149701250D01*
X235585000Y-146558000D02*
X232029000Y-146558000D01*
X232029000Y-146558000D02*
X230886000Y-147701000D01*
X160147000Y-144780000D02*
X158750000Y-143383000D01*
X217858990Y-146484990D02*
X202511010Y-146484990D01*
X230886000Y-147701000D02*
X219075000Y-147701000D01*
X237744000Y-148717000D02*
X235585000Y-146558000D01*
X219075000Y-147701000D02*
X217858990Y-146484990D01*
D18*
X152530000Y-78246000D02*
X152530000Y-79121000D01*
X147306250Y-76649750D02*
X148511990Y-77855490D01*
X152139490Y-77855490D02*
X152530000Y-78246000D01*
X148511990Y-77855490D02*
X152139490Y-77855490D01*
X147306250Y-75143750D02*
X147306250Y-76649750D01*
D19*
X135289999Y-85505999D02*
X137340990Y-87556990D01*
X135035999Y-85505999D02*
X135289999Y-85505999D01*
X134783048Y-85180952D02*
X134783048Y-85253048D01*
X134783048Y-85253048D02*
X135035999Y-85505999D01*
X139999498Y-87556990D02*
X140951620Y-88509112D01*
X137340990Y-87556990D02*
X139999498Y-87556990D01*
X134874000Y-86233000D02*
X136652000Y-88011000D01*
X139322137Y-88011000D02*
X140385935Y-89074798D01*
X136652000Y-88011000D02*
X139322137Y-88011000D01*
X133731000Y-86233000D02*
X136144000Y-88646000D01*
X138825767Y-88646000D02*
X139820250Y-89640483D01*
X136144000Y-88646000D02*
X138825767Y-88646000D01*
X133604000Y-87376000D02*
X135763000Y-89535000D01*
X136398000Y-89535000D02*
X138049000Y-89535000D01*
X139254564Y-90206168D02*
X138865656Y-90206168D01*
X138194488Y-89535000D02*
X136017000Y-89535000D01*
X138865656Y-90206168D02*
X138194488Y-89535000D01*
X135763000Y-89535000D02*
X136017000Y-89535000D01*
X136017000Y-89535000D02*
X136398000Y-89535000D01*
X139219332Y-92610332D02*
X139254564Y-92610332D01*
X136906000Y-90297000D02*
X139219332Y-92610332D01*
X132588000Y-88519000D02*
X134112000Y-90043000D01*
X132461000Y-88519000D02*
X132588000Y-88519000D01*
X142648677Y-96111323D02*
X142648677Y-96004444D01*
X140716000Y-98044000D02*
X142648677Y-96111323D01*
X151841065Y-89074798D02*
X154813000Y-86102863D01*
X154813000Y-86102863D02*
X154813000Y-85979000D01*
X151275380Y-88509112D02*
X151275380Y-88500620D01*
X151275380Y-88500620D02*
X152908000Y-86868000D01*
X150709694Y-87943427D02*
X150709694Y-87923306D01*
X150709694Y-87923306D02*
X153162000Y-85471000D01*
X150144009Y-87377741D02*
X150144009Y-87345991D01*
X150144009Y-87345991D02*
X151638000Y-85852000D01*
X149578323Y-86812056D02*
X149578323Y-86768677D01*
X149578323Y-86768677D02*
X151765000Y-84582000D01*
X149012638Y-86246370D02*
X149012638Y-86191362D01*
X149012638Y-86191362D02*
X150495000Y-84709000D01*
X146506250Y-77496750D02*
X147193000Y-78183500D01*
X146506250Y-75143750D02*
X146506250Y-77496750D01*
X147193000Y-80058500D02*
X146098500Y-81153000D01*
X142909999Y-82642001D02*
X144399000Y-81153000D01*
X142909999Y-84810636D02*
X142909999Y-82642001D01*
X143780048Y-85680685D02*
X142909999Y-84810636D01*
X146098500Y-81153000D02*
X144399000Y-81153000D01*
X145706250Y-77462750D02*
X145034000Y-78135000D01*
X145706250Y-75143750D02*
X145706250Y-77462750D01*
X144334000Y-80010000D02*
X145034000Y-80010000D01*
X142455989Y-81888011D02*
X144334000Y-80010000D01*
X142455989Y-85207998D02*
X142455989Y-81888011D01*
X143214362Y-85966371D02*
X142455989Y-85207998D01*
X143214362Y-86246370D02*
X143214362Y-85966371D01*
X130862473Y-73649527D02*
X130862473Y-78000473D01*
X132461000Y-72051000D02*
X130862473Y-73649527D01*
X130862473Y-78000473D02*
X131348000Y-78486000D01*
X132461000Y-71247000D02*
X132461000Y-72051000D01*
X138783234Y-93662126D02*
X139334141Y-93662126D01*
X139334141Y-93662126D02*
X139820250Y-93176017D01*
X131833527Y-86712419D02*
X138783234Y-93662126D01*
X131833527Y-78971527D02*
X131833527Y-86712419D01*
X131348000Y-78486000D02*
X131833527Y-78971527D01*
X153768506Y-92610332D02*
X152972436Y-92610332D01*
X155166087Y-94007913D02*
X153768506Y-92610332D01*
X158748000Y-136144000D02*
X158750000Y-136146000D01*
X132207000Y-136144000D02*
X158748000Y-136144000D01*
X158750000Y-136146000D02*
X160526000Y-136146000D01*
X160526000Y-136146000D02*
X160528000Y-136144000D01*
X160526000Y-136146000D02*
X163066000Y-136146000D01*
X163066000Y-136146000D02*
X163068000Y-136144000D01*
X157353000Y-100457000D02*
X153924000Y-97028000D01*
X152864621Y-97028000D02*
X150709694Y-94873073D01*
X153924000Y-97028000D02*
X152864621Y-97028000D01*
G36*
X140592737Y-69852639D02*
G01*
X140571250Y-70070800D01*
X140571250Y-71216699D01*
X140592737Y-71434860D01*
X140677651Y-71714783D01*
X140815544Y-71972763D01*
X141001116Y-72198884D01*
X141227236Y-72384456D01*
X141485216Y-72522349D01*
X141765139Y-72607263D01*
X142056250Y-72635935D01*
X142347360Y-72607263D01*
X142627283Y-72522349D01*
X142885263Y-72384456D01*
X143111384Y-72198884D01*
X143296956Y-71972764D01*
X143434849Y-71714784D01*
X143519763Y-71434861D01*
X143541250Y-71216700D01*
X143541250Y-70070800D01*
X143519763Y-69852639D01*
X143518962Y-69850000D01*
X147893538Y-69850000D01*
X147892737Y-69852639D01*
X147871250Y-70070800D01*
X147871250Y-71216699D01*
X147892737Y-71434860D01*
X147977651Y-71714783D01*
X148115544Y-71972763D01*
X148301116Y-72198884D01*
X148527236Y-72384456D01*
X148785216Y-72522349D01*
X149065139Y-72607263D01*
X149356250Y-72635935D01*
X149647360Y-72607263D01*
X149927283Y-72522349D01*
X150185263Y-72384456D01*
X150411384Y-72198884D01*
X150596956Y-71972764D01*
X150734849Y-71714784D01*
X150819763Y-71434861D01*
X150841250Y-71216700D01*
X150841250Y-70070800D01*
X150819763Y-69852639D01*
X150818962Y-69850000D01*
X163703000Y-69850000D01*
X163703000Y-88676035D01*
X163553983Y-88825052D01*
X163524913Y-88848909D01*
X163501056Y-88877979D01*
X163501055Y-88877980D01*
X163429689Y-88964939D01*
X163358933Y-89097316D01*
X163315361Y-89240953D01*
X163300648Y-89390331D01*
X163304335Y-89427764D01*
X163304334Y-103171704D01*
X160215079Y-106260960D01*
X148852462Y-106260960D01*
X148815039Y-106257274D01*
X148777616Y-106260960D01*
X148777614Y-106260960D01*
X148665662Y-106271986D01*
X148522025Y-106315558D01*
X148389648Y-106386315D01*
X148273618Y-106481538D01*
X148249761Y-106510608D01*
X146172649Y-108587721D01*
X146143579Y-108611578D01*
X146119722Y-108640648D01*
X146119721Y-108640649D01*
X146048355Y-108727608D01*
X146023006Y-108775034D01*
X145960518Y-108781188D01*
X145840820Y-108817498D01*
X145730506Y-108876463D01*
X145633815Y-108955815D01*
X145554463Y-109052506D01*
X145495498Y-109162820D01*
X145478500Y-109218855D01*
X145461502Y-109162820D01*
X145402537Y-109052506D01*
X145323185Y-108955815D01*
X145226494Y-108876463D01*
X145116180Y-108817498D01*
X145013821Y-108786448D01*
X144979402Y-108672985D01*
X144944334Y-108607378D01*
X144908645Y-108540607D01*
X144872249Y-108496259D01*
X144813422Y-108424578D01*
X144784346Y-108400716D01*
X142859274Y-106475644D01*
X142835412Y-106446568D01*
X142719382Y-106351345D01*
X142587005Y-106280588D01*
X142443368Y-106237016D01*
X142331416Y-106225990D01*
X142331413Y-106225990D01*
X142293990Y-106222304D01*
X142256567Y-106225990D01*
X138484770Y-106225990D01*
X138541398Y-106214726D01*
X138729756Y-106136705D01*
X138867003Y-106045000D01*
X146918966Y-106045000D01*
X146959516Y-106048994D01*
X147000066Y-106045000D01*
X147000069Y-106045000D01*
X147121342Y-106033056D01*
X147276950Y-105985853D01*
X147420358Y-105909199D01*
X147546057Y-105806041D01*
X147571914Y-105774534D01*
X149296797Y-104049653D01*
X149303244Y-104046207D01*
X149428943Y-103943049D01*
X149454800Y-103911542D01*
X151004460Y-102361883D01*
X151166353Y-102329681D01*
X151354711Y-102251660D01*
X151524229Y-102138392D01*
X151668392Y-101994229D01*
X151781660Y-101824711D01*
X151859681Y-101636353D01*
X151899455Y-101436394D01*
X151899455Y-101232516D01*
X151859681Y-101032557D01*
X151781660Y-100844199D01*
X151687708Y-100703589D01*
X151949687Y-100703589D01*
X152002812Y-100831844D01*
X152116080Y-101001362D01*
X152260243Y-101145525D01*
X152429761Y-101258793D01*
X152618119Y-101336814D01*
X152818078Y-101376588D01*
X153021956Y-101376588D01*
X153221915Y-101336814D01*
X153406216Y-101260473D01*
X153567026Y-101367923D01*
X153755384Y-101445944D01*
X153955343Y-101485718D01*
X154159221Y-101485718D01*
X154359180Y-101445944D01*
X154547538Y-101367923D01*
X154557088Y-101361542D01*
X154652593Y-101425356D01*
X154840951Y-101503377D01*
X155040910Y-101543151D01*
X155244788Y-101543151D01*
X155444747Y-101503377D01*
X155633105Y-101425356D01*
X155714701Y-101370835D01*
X155719744Y-101374205D01*
X155908102Y-101452226D01*
X156108061Y-101492000D01*
X156311939Y-101492000D01*
X156511898Y-101452226D01*
X156700256Y-101374205D01*
X156781500Y-101319920D01*
X156862744Y-101374205D01*
X157051102Y-101452226D01*
X157251061Y-101492000D01*
X157454939Y-101492000D01*
X157654898Y-101452226D01*
X157843256Y-101374205D01*
X158012774Y-101260937D01*
X158156937Y-101116774D01*
X158270205Y-100947256D01*
X158348226Y-100758898D01*
X158388000Y-100558939D01*
X158388000Y-100355061D01*
X158348226Y-100155102D01*
X158270205Y-99966744D01*
X158156937Y-99797226D01*
X158012774Y-99653063D01*
X157843256Y-99539795D01*
X157654898Y-99461774D01*
X157454939Y-99422000D01*
X157395631Y-99422000D01*
X154489284Y-96515654D01*
X154465422Y-96486578D01*
X154349392Y-96391355D01*
X154217015Y-96320598D01*
X154073378Y-96277026D01*
X153961426Y-96266000D01*
X153961423Y-96266000D01*
X153924000Y-96262314D01*
X153886577Y-96266000D01*
X153180252Y-96266000D01*
X152230025Y-95315773D01*
X152451349Y-95094449D01*
X152530701Y-94997758D01*
X152530957Y-94997278D01*
X152531435Y-94997023D01*
X152628126Y-94917671D01*
X153017034Y-94528763D01*
X153096386Y-94432072D01*
X153096642Y-94431594D01*
X153097120Y-94431338D01*
X153193811Y-94351986D01*
X153582719Y-93963078D01*
X153662071Y-93866387D01*
X153662326Y-93865909D01*
X153662806Y-93865653D01*
X153759497Y-93786301D01*
X153800340Y-93745458D01*
X153789290Y-93857653D01*
X153806234Y-94029688D01*
X153856415Y-94195112D01*
X153937904Y-94347567D01*
X154047570Y-94481195D01*
X154692805Y-95126430D01*
X154826433Y-95236096D01*
X154978888Y-95317585D01*
X155144312Y-95367766D01*
X155316347Y-95384710D01*
X155488382Y-95367766D01*
X155653806Y-95317585D01*
X155806261Y-95236096D01*
X155939889Y-95126430D01*
X156284604Y-94781715D01*
X156394270Y-94648087D01*
X156475759Y-94495632D01*
X156525940Y-94330208D01*
X156542884Y-94158173D01*
X156542078Y-94149990D01*
X156642173Y-94159848D01*
X156766654Y-94147588D01*
X156886353Y-94111278D01*
X156996667Y-94052314D01*
X157093358Y-93972961D01*
X157233845Y-93828130D01*
X157233845Y-93603624D01*
X156491913Y-92861692D01*
X156477771Y-92875835D01*
X156298166Y-92696230D01*
X156312308Y-92682087D01*
X156671518Y-92682087D01*
X157413450Y-93424019D01*
X157637956Y-93424019D01*
X157782787Y-93283532D01*
X157862140Y-93186841D01*
X157921104Y-93076527D01*
X157957414Y-92956828D01*
X157969674Y-92832347D01*
X157957414Y-92707866D01*
X157921104Y-92588168D01*
X157862140Y-92477853D01*
X157782787Y-92381162D01*
X157487696Y-92090415D01*
X157263190Y-92090415D01*
X156671518Y-92682087D01*
X156312308Y-92682087D01*
X155570376Y-91940155D01*
X155345870Y-91940155D01*
X155201039Y-92080642D01*
X155121686Y-92177333D01*
X155062722Y-92287647D01*
X155026412Y-92407346D01*
X155014152Y-92531827D01*
X155024010Y-92631922D01*
X155015827Y-92631116D01*
X154880271Y-92644467D01*
X154333790Y-92097986D01*
X154309928Y-92068910D01*
X154193898Y-91973687D01*
X154061521Y-91902930D01*
X153917884Y-91859358D01*
X153805932Y-91848332D01*
X153805929Y-91848332D01*
X153768506Y-91844646D01*
X153731083Y-91848332D01*
X153501714Y-91848332D01*
X153189426Y-91536044D01*
X155749981Y-91536044D01*
X155749981Y-91760550D01*
X156491913Y-92502482D01*
X157083585Y-91910810D01*
X157083585Y-91686304D01*
X156792838Y-91391213D01*
X156696147Y-91311860D01*
X156585832Y-91252896D01*
X156466134Y-91216586D01*
X156341653Y-91204326D01*
X156217172Y-91216586D01*
X156097473Y-91252896D01*
X155987159Y-91311860D01*
X155890468Y-91391213D01*
X155749981Y-91536044D01*
X153189426Y-91536044D01*
X153087745Y-91434363D01*
X153055926Y-91408250D01*
X153087745Y-91382137D01*
X154122437Y-90347445D01*
X154257102Y-90403226D01*
X154457061Y-90443000D01*
X154660939Y-90443000D01*
X154860898Y-90403226D01*
X155049256Y-90325205D01*
X155218774Y-90211937D01*
X155362937Y-90067774D01*
X155476205Y-89898256D01*
X155500976Y-89838455D01*
X155596853Y-89917140D01*
X155707168Y-89976104D01*
X155826866Y-90012414D01*
X155951347Y-90024674D01*
X156075828Y-90012414D01*
X156195527Y-89976104D01*
X156305841Y-89917140D01*
X156402532Y-89837787D01*
X156543019Y-89692956D01*
X156543019Y-89468450D01*
X155801087Y-88726518D01*
X155786945Y-88740661D01*
X155607340Y-88561056D01*
X155621482Y-88546913D01*
X154879550Y-87804981D01*
X154655044Y-87804981D01*
X154510213Y-87945468D01*
X154430860Y-88042159D01*
X154371896Y-88152473D01*
X154335586Y-88272172D01*
X154323326Y-88396653D01*
X154323611Y-88399545D01*
X154257102Y-88412774D01*
X154068744Y-88490795D01*
X153931497Y-88582500D01*
X153811154Y-88582500D01*
X153770603Y-88578506D01*
X153730053Y-88582500D01*
X153730051Y-88582500D01*
X153608778Y-88594444D01*
X153481260Y-88633126D01*
X153453170Y-88641647D01*
X153309761Y-88718301D01*
X153266645Y-88753686D01*
X153196823Y-88810987D01*
X153198388Y-88795106D01*
X154995523Y-86997971D01*
X155114898Y-86974226D01*
X155303256Y-86896205D01*
X155463767Y-86788955D01*
X155529244Y-86832705D01*
X155717602Y-86910726D01*
X155764957Y-86920145D01*
X155750116Y-87070827D01*
X155750922Y-87079010D01*
X155650827Y-87069152D01*
X155526346Y-87081412D01*
X155406647Y-87117722D01*
X155296333Y-87176686D01*
X155199642Y-87256039D01*
X155059155Y-87400870D01*
X155059155Y-87625376D01*
X155801087Y-88367308D01*
X155815230Y-88353166D01*
X155994835Y-88532771D01*
X155980692Y-88546913D01*
X156722624Y-89288845D01*
X156947130Y-89288845D01*
X157091961Y-89148358D01*
X157171314Y-89051667D01*
X157230278Y-88941353D01*
X157266588Y-88821654D01*
X157278848Y-88697173D01*
X157268990Y-88597078D01*
X157277173Y-88597884D01*
X157330978Y-88592585D01*
X158057200Y-89318808D01*
X158086795Y-89390256D01*
X158200063Y-89559774D01*
X158344226Y-89703937D01*
X158513744Y-89817205D01*
X158702102Y-89895226D01*
X158902061Y-89935000D01*
X159105939Y-89935000D01*
X159305898Y-89895226D01*
X159494256Y-89817205D01*
X159663774Y-89703937D01*
X159807937Y-89559774D01*
X159921205Y-89390256D01*
X159999226Y-89201898D01*
X160039000Y-89001939D01*
X160039000Y-88798061D01*
X159999226Y-88598102D01*
X159921205Y-88409744D01*
X159807937Y-88240226D01*
X159663774Y-88096063D01*
X159494256Y-87982795D01*
X159305898Y-87904774D01*
X159105939Y-87865000D01*
X158938259Y-87865000D01*
X158498411Y-87425152D01*
X158503710Y-87371347D01*
X158486766Y-87199312D01*
X158436585Y-87033888D01*
X158355096Y-86881433D01*
X158245430Y-86747805D01*
X157600195Y-86102570D01*
X157466567Y-85992904D01*
X157314112Y-85911415D01*
X157148688Y-85861234D01*
X157130917Y-85859484D01*
X157046928Y-85775495D01*
X157014726Y-85613602D01*
X156936705Y-85425244D01*
X156823437Y-85255726D01*
X156679274Y-85111563D01*
X156509756Y-84998295D01*
X156321398Y-84920274D01*
X156159504Y-84888072D01*
X153602301Y-82330869D01*
X153576444Y-82299362D01*
X153450745Y-82196204D01*
X153307337Y-82119550D01*
X153151729Y-82072347D01*
X153030456Y-82060403D01*
X153030453Y-82060403D01*
X152989903Y-82056409D01*
X152949353Y-82060403D01*
X148630627Y-82060403D01*
X148590084Y-82056410D01*
X148549541Y-82060403D01*
X148549532Y-82060403D01*
X148428259Y-82072347D01*
X148272651Y-82119550D01*
X148173253Y-82172680D01*
X148129241Y-82196205D01*
X148104379Y-82216609D01*
X148003544Y-82299362D01*
X147977691Y-82330864D01*
X146760548Y-83548008D01*
X146729041Y-83573865D01*
X146664708Y-83652256D01*
X146625883Y-83699564D01*
X146575472Y-83793876D01*
X146549229Y-83842973D01*
X146502026Y-83998581D01*
X146494050Y-84079568D01*
X146139613Y-84434005D01*
X146113500Y-84465824D01*
X146087387Y-84434005D01*
X145026727Y-83373345D01*
X144930036Y-83293993D01*
X144819722Y-83235028D01*
X144700024Y-83198718D01*
X144643372Y-83193138D01*
X144632226Y-83137102D01*
X144554205Y-82948744D01*
X144440937Y-82779226D01*
X144296774Y-82635063D01*
X144127256Y-82521795D01*
X144113524Y-82516107D01*
X144714631Y-81915000D01*
X146061077Y-81915000D01*
X146098500Y-81918686D01*
X146135923Y-81915000D01*
X146135926Y-81915000D01*
X146247878Y-81903974D01*
X146391515Y-81860402D01*
X146523892Y-81789645D01*
X146639922Y-81694422D01*
X146663784Y-81665346D01*
X147145058Y-81184072D01*
X147649250Y-81184072D01*
X147821285Y-81167128D01*
X147986709Y-81116947D01*
X148139164Y-81035458D01*
X148272792Y-80925792D01*
X148317000Y-80871925D01*
X148317000Y-81000939D01*
X148356774Y-81200898D01*
X148434795Y-81389256D01*
X148548063Y-81558774D01*
X148692226Y-81702937D01*
X148861744Y-81816205D01*
X149050102Y-81894226D01*
X149250061Y-81934000D01*
X149453939Y-81934000D01*
X149653898Y-81894226D01*
X149842256Y-81816205D01*
X150011774Y-81702937D01*
X150155937Y-81558774D01*
X150269205Y-81389256D01*
X150347226Y-81200898D01*
X150387000Y-81000939D01*
X150387000Y-80797061D01*
X150347226Y-80597102D01*
X150346852Y-80596199D01*
X150444850Y-80566472D01*
X150598386Y-80484405D01*
X150732962Y-80373962D01*
X150843405Y-80239386D01*
X150925472Y-80085850D01*
X150976008Y-79919254D01*
X150993072Y-79746000D01*
X150993072Y-78680990D01*
X151266928Y-78680990D01*
X151266928Y-79746000D01*
X151283992Y-79919254D01*
X151334528Y-80085850D01*
X151416595Y-80239386D01*
X151527038Y-80373962D01*
X151661614Y-80484405D01*
X151815150Y-80566472D01*
X151981746Y-80617008D01*
X152155000Y-80634072D01*
X152905000Y-80634072D01*
X153078254Y-80617008D01*
X153244850Y-80566472D01*
X153398386Y-80484405D01*
X153532962Y-80373962D01*
X153643405Y-80239386D01*
X153725472Y-80085850D01*
X153776008Y-79919254D01*
X153793072Y-79746000D01*
X153793072Y-78496000D01*
X153776008Y-78322746D01*
X153725472Y-78156150D01*
X153643405Y-78002614D01*
X153532962Y-77868038D01*
X153398386Y-77757595D01*
X153244850Y-77675528D01*
X153078254Y-77624992D01*
X153076225Y-77624792D01*
X152751887Y-77300455D01*
X152726031Y-77268949D01*
X152600332Y-77165791D01*
X152456924Y-77089137D01*
X152301316Y-77041934D01*
X152180043Y-77029990D01*
X152180040Y-77029990D01*
X152139490Y-77025996D01*
X152098940Y-77029990D01*
X149902094Y-77029990D01*
X149927283Y-77022349D01*
X150185263Y-76884456D01*
X150411384Y-76698884D01*
X150596956Y-76472764D01*
X150734849Y-76214784D01*
X150819763Y-75934861D01*
X150841250Y-75716700D01*
X150841250Y-74570800D01*
X150819763Y-74352639D01*
X150734849Y-74072716D01*
X150596956Y-73814736D01*
X150411384Y-73588616D01*
X150185264Y-73403044D01*
X149927284Y-73265151D01*
X149647361Y-73180237D01*
X149356250Y-73151565D01*
X149065140Y-73180237D01*
X148785217Y-73265151D01*
X148527237Y-73403044D01*
X148301117Y-73588616D01*
X148146496Y-73777022D01*
X148145752Y-73774570D01*
X148086787Y-73664256D01*
X148007435Y-73567565D01*
X147910744Y-73488213D01*
X147800430Y-73429248D01*
X147680732Y-73392938D01*
X147556250Y-73380678D01*
X147056250Y-73380678D01*
X146931768Y-73392938D01*
X146906250Y-73400679D01*
X146880732Y-73392938D01*
X146756250Y-73380678D01*
X146256250Y-73380678D01*
X146131768Y-73392938D01*
X146106250Y-73400679D01*
X146080732Y-73392938D01*
X145956250Y-73380678D01*
X145456250Y-73380678D01*
X145331768Y-73392938D01*
X145306250Y-73400679D01*
X145280732Y-73392938D01*
X145156250Y-73380678D01*
X144656250Y-73380678D01*
X144531768Y-73392938D01*
X144506984Y-73400456D01*
X144487611Y-73394346D01*
X144388000Y-73383750D01*
X144229250Y-73542500D01*
X144229250Y-73547717D01*
X144205065Y-73567565D01*
X144125713Y-73664256D01*
X144066748Y-73774570D01*
X144030438Y-73894268D01*
X144018178Y-74018750D01*
X144018178Y-76268750D01*
X144030438Y-76393232D01*
X144066748Y-76512930D01*
X144125713Y-76623244D01*
X144205065Y-76719935D01*
X144229250Y-76739783D01*
X144229250Y-76745000D01*
X144388000Y-76903750D01*
X144487611Y-76893154D01*
X144506984Y-76887044D01*
X144531768Y-76894562D01*
X144656250Y-76906822D01*
X144944251Y-76906822D01*
X144944251Y-77009428D01*
X144577750Y-77009428D01*
X144405715Y-77026372D01*
X144240291Y-77076553D01*
X144087836Y-77158042D01*
X143954208Y-77267708D01*
X143844542Y-77401336D01*
X143763053Y-77553791D01*
X143712872Y-77719215D01*
X143695928Y-77891250D01*
X143695928Y-78378750D01*
X143712872Y-78550785D01*
X143763053Y-78716209D01*
X143844542Y-78868664D01*
X143954208Y-79002292D01*
X144039756Y-79072500D01*
X143954208Y-79142708D01*
X143844542Y-79276336D01*
X143763053Y-79428791D01*
X143730602Y-79535768D01*
X142429239Y-80837131D01*
X142261937Y-80725343D01*
X142073579Y-80647322D01*
X141873620Y-80607548D01*
X141669742Y-80607548D01*
X141469783Y-80647322D01*
X141281425Y-80725343D01*
X141111907Y-80838611D01*
X140967744Y-80982774D01*
X140854476Y-81152292D01*
X140776455Y-81340650D01*
X140744253Y-81502544D01*
X140561344Y-81685453D01*
X140538107Y-81692502D01*
X140385652Y-81773991D01*
X140252024Y-81883657D01*
X140058778Y-82076903D01*
X140062674Y-82037347D01*
X140050414Y-81912866D01*
X140014104Y-81793168D01*
X139955140Y-81682853D01*
X139875787Y-81586162D01*
X139580696Y-81295415D01*
X139356190Y-81295415D01*
X138764518Y-81887087D01*
X139506450Y-82629019D01*
X139681401Y-82629019D01*
X139665973Y-82679879D01*
X139649029Y-82851914D01*
X139649835Y-82860097D01*
X139549740Y-82850239D01*
X139425259Y-82862499D01*
X139326845Y-82892352D01*
X139326845Y-82808624D01*
X138584913Y-82066692D01*
X138570771Y-82080835D01*
X138391166Y-81901230D01*
X138405308Y-81887087D01*
X137663376Y-81145155D01*
X137438870Y-81145155D01*
X137294039Y-81285642D01*
X137214686Y-81382333D01*
X137155722Y-81492647D01*
X137119412Y-81612346D01*
X137107152Y-81736827D01*
X137117010Y-81836922D01*
X137108827Y-81836116D01*
X136936792Y-81853060D01*
X136771368Y-81903241D01*
X136618913Y-81984730D01*
X136485285Y-82094396D01*
X136140570Y-82439111D01*
X136030904Y-82572739D01*
X135949415Y-82725194D01*
X135899234Y-82890618D01*
X135882290Y-83062653D01*
X135899234Y-83234688D01*
X135949415Y-83400112D01*
X136030904Y-83552567D01*
X136140570Y-83686195D01*
X136785805Y-84331430D01*
X136919433Y-84441096D01*
X137071888Y-84522585D01*
X137237312Y-84572766D01*
X137409347Y-84589710D01*
X137544903Y-84576359D01*
X138796273Y-85827730D01*
X138628183Y-85897356D01*
X138490936Y-85989061D01*
X137829495Y-85989061D01*
X136358780Y-84518347D01*
X136339902Y-84456116D01*
X136298667Y-84378971D01*
X136263248Y-84312706D01*
X136210274Y-84248158D01*
X136160090Y-84187008D01*
X136128588Y-84161155D01*
X134048500Y-82081068D01*
X134048500Y-80741044D01*
X137842981Y-80741044D01*
X137842981Y-80965550D01*
X138584913Y-81707482D01*
X139176585Y-81115810D01*
X139176585Y-80891304D01*
X138885838Y-80596213D01*
X138789147Y-80516860D01*
X138678832Y-80457896D01*
X138559134Y-80421586D01*
X138434653Y-80409326D01*
X138310172Y-80421586D01*
X138190473Y-80457896D01*
X138080159Y-80516860D01*
X137983468Y-80596213D01*
X137842981Y-80741044D01*
X134048500Y-80741044D01*
X134048500Y-79600090D01*
X134090292Y-79565792D01*
X134199958Y-79432164D01*
X134281447Y-79279709D01*
X134331628Y-79114285D01*
X134348572Y-78942250D01*
X134348572Y-78029750D01*
X134331628Y-77857715D01*
X134281447Y-77692291D01*
X134199958Y-77539836D01*
X134090292Y-77406208D01*
X133956664Y-77296542D01*
X133804209Y-77215053D01*
X133638785Y-77164872D01*
X133466750Y-77147928D01*
X132979250Y-77147928D01*
X132807215Y-77164872D01*
X132641791Y-77215053D01*
X132489336Y-77296542D01*
X132355708Y-77406208D01*
X132285500Y-77491756D01*
X132215292Y-77406208D01*
X132081664Y-77296542D01*
X131929209Y-77215053D01*
X131763785Y-77164872D01*
X131624473Y-77151151D01*
X131624473Y-76135072D01*
X133361000Y-76135072D01*
X133485482Y-76122812D01*
X133605180Y-76086502D01*
X133715494Y-76027537D01*
X133812185Y-75948185D01*
X133891537Y-75851494D01*
X133950502Y-75741180D01*
X133986812Y-75621482D01*
X133999072Y-75497000D01*
X137122928Y-75497000D01*
X137135188Y-75621482D01*
X137171498Y-75741180D01*
X137230463Y-75851494D01*
X137309815Y-75948185D01*
X137406506Y-76027537D01*
X137516820Y-76086502D01*
X137636518Y-76122812D01*
X137761000Y-76135072D01*
X138375250Y-76132000D01*
X138534000Y-75973250D01*
X138534000Y-75074000D01*
X138788000Y-75074000D01*
X138788000Y-75973250D01*
X138946750Y-76132000D01*
X139561000Y-76135072D01*
X139685482Y-76122812D01*
X139805180Y-76086502D01*
X139915494Y-76027537D01*
X140012185Y-75948185D01*
X140091537Y-75851494D01*
X140150502Y-75741180D01*
X140186812Y-75621482D01*
X140199072Y-75497000D01*
X140196000Y-75232750D01*
X140037250Y-75074000D01*
X138788000Y-75074000D01*
X138534000Y-75074000D01*
X137284750Y-75074000D01*
X137126000Y-75232750D01*
X137122928Y-75497000D01*
X133999072Y-75497000D01*
X133999072Y-74397000D01*
X137122928Y-74397000D01*
X137126000Y-74661250D01*
X137284750Y-74820000D01*
X138534000Y-74820000D01*
X138534000Y-73920750D01*
X138788000Y-73920750D01*
X138788000Y-74820000D01*
X140037250Y-74820000D01*
X140196000Y-74661250D01*
X140197051Y-74570800D01*
X140571250Y-74570800D01*
X140571250Y-75716699D01*
X140592737Y-75934860D01*
X140677651Y-76214783D01*
X140815544Y-76472763D01*
X141001116Y-76698884D01*
X141227236Y-76884456D01*
X141485216Y-77022349D01*
X141765139Y-77107263D01*
X142056250Y-77135935D01*
X142347360Y-77107263D01*
X142627283Y-77022349D01*
X142885263Y-76884456D01*
X143111384Y-76698884D01*
X143266127Y-76510329D01*
X143321844Y-76617384D01*
X143400127Y-76714943D01*
X143495939Y-76795354D01*
X143605598Y-76855529D01*
X143724889Y-76893154D01*
X143824500Y-76903750D01*
X143983250Y-76745000D01*
X143983250Y-75270750D01*
X143959250Y-75270750D01*
X143959250Y-75016750D01*
X143983250Y-75016750D01*
X143983250Y-73542500D01*
X143824500Y-73383750D01*
X143724889Y-73394346D01*
X143605598Y-73431971D01*
X143495939Y-73492146D01*
X143400127Y-73572557D01*
X143321844Y-73670116D01*
X143266127Y-73777171D01*
X143111384Y-73588616D01*
X142885264Y-73403044D01*
X142627284Y-73265151D01*
X142347361Y-73180237D01*
X142056250Y-73151565D01*
X141765140Y-73180237D01*
X141485217Y-73265151D01*
X141227237Y-73403044D01*
X141001117Y-73588616D01*
X140815544Y-73814736D01*
X140677651Y-74072716D01*
X140592737Y-74352639D01*
X140571250Y-74570800D01*
X140197051Y-74570800D01*
X140199072Y-74397000D01*
X140186812Y-74272518D01*
X140150502Y-74152820D01*
X140091537Y-74042506D01*
X140012185Y-73945815D01*
X139915494Y-73866463D01*
X139805180Y-73807498D01*
X139685482Y-73771188D01*
X139561000Y-73758928D01*
X138946750Y-73762000D01*
X138788000Y-73920750D01*
X138534000Y-73920750D01*
X138375250Y-73762000D01*
X137761000Y-73758928D01*
X137636518Y-73771188D01*
X137516820Y-73807498D01*
X137406506Y-73866463D01*
X137309815Y-73945815D01*
X137230463Y-74042506D01*
X137171498Y-74152820D01*
X137135188Y-74272518D01*
X137122928Y-74397000D01*
X133999072Y-74397000D01*
X133986812Y-74272518D01*
X133950502Y-74152820D01*
X133891537Y-74042506D01*
X133812185Y-73945815D01*
X133715494Y-73866463D01*
X133605180Y-73807498D01*
X133485482Y-73771188D01*
X133361000Y-73758928D01*
X131830702Y-73758928D01*
X132973346Y-72616284D01*
X133002422Y-72592422D01*
X133062857Y-72518781D01*
X133097645Y-72476393D01*
X133119731Y-72435072D01*
X133361000Y-72435072D01*
X133485482Y-72422812D01*
X133605180Y-72386502D01*
X133715494Y-72327537D01*
X133812185Y-72248185D01*
X133891537Y-72151494D01*
X133950502Y-72041180D01*
X133986812Y-71921482D01*
X133999072Y-71797000D01*
X133999072Y-70697000D01*
X137122928Y-70697000D01*
X137122928Y-71797000D01*
X137135188Y-71921482D01*
X137171498Y-72041180D01*
X137230463Y-72151494D01*
X137309815Y-72248185D01*
X137406506Y-72327537D01*
X137516820Y-72386502D01*
X137636518Y-72422812D01*
X137761000Y-72435072D01*
X139561000Y-72435072D01*
X139685482Y-72422812D01*
X139805180Y-72386502D01*
X139915494Y-72327537D01*
X140012185Y-72248185D01*
X140091537Y-72151494D01*
X140150502Y-72041180D01*
X140186812Y-71921482D01*
X140199072Y-71797000D01*
X140199072Y-70697000D01*
X140186812Y-70572518D01*
X140150502Y-70452820D01*
X140091537Y-70342506D01*
X140012185Y-70245815D01*
X139915494Y-70166463D01*
X139805180Y-70107498D01*
X139685482Y-70071188D01*
X139561000Y-70058928D01*
X137761000Y-70058928D01*
X137636518Y-70071188D01*
X137516820Y-70107498D01*
X137406506Y-70166463D01*
X137309815Y-70245815D01*
X137230463Y-70342506D01*
X137171498Y-70452820D01*
X137135188Y-70572518D01*
X137122928Y-70697000D01*
X133999072Y-70697000D01*
X133986812Y-70572518D01*
X133950502Y-70452820D01*
X133891537Y-70342506D01*
X133812185Y-70245815D01*
X133715494Y-70166463D01*
X133605180Y-70107498D01*
X133485482Y-70071188D01*
X133361000Y-70058928D01*
X131561000Y-70058928D01*
X131436518Y-70071188D01*
X131316820Y-70107498D01*
X131206506Y-70166463D01*
X131109815Y-70245815D01*
X131030463Y-70342506D01*
X130971498Y-70452820D01*
X130935188Y-70572518D01*
X130922928Y-70697000D01*
X130922928Y-71797000D01*
X130935188Y-71921482D01*
X130971498Y-72041180D01*
X131030463Y-72151494D01*
X131109815Y-72248185D01*
X131151761Y-72282609D01*
X130350127Y-73084243D01*
X130321051Y-73108105D01*
X130285385Y-73151565D01*
X130225828Y-73224135D01*
X130203905Y-73265151D01*
X130155071Y-73356513D01*
X130111499Y-73500150D01*
X130104368Y-73572557D01*
X130096787Y-73649527D01*
X130100473Y-73686950D01*
X130100474Y-77963040D01*
X130096787Y-78000473D01*
X130111500Y-78149851D01*
X130155072Y-78293488D01*
X130222428Y-78419504D01*
X130222428Y-78942250D01*
X130239372Y-79114285D01*
X130289553Y-79279709D01*
X130371042Y-79432164D01*
X130480708Y-79565792D01*
X130614336Y-79675458D01*
X130766791Y-79756947D01*
X130932215Y-79807128D01*
X131071527Y-79820849D01*
X131071528Y-86674986D01*
X131067841Y-86712419D01*
X131082554Y-86861797D01*
X131126126Y-87005434D01*
X131196882Y-87137811D01*
X131268248Y-87224770D01*
X131292106Y-87253841D01*
X131321176Y-87277698D01*
X131779883Y-87736406D01*
X131657063Y-87859226D01*
X131543795Y-88028744D01*
X131465774Y-88217102D01*
X131426000Y-88417061D01*
X131426000Y-88620939D01*
X131465774Y-88820898D01*
X131543795Y-89009256D01*
X131657063Y-89178774D01*
X131801226Y-89322937D01*
X131970744Y-89436205D01*
X132159102Y-89514226D01*
X132359061Y-89554000D01*
X132545370Y-89554000D01*
X133077000Y-90085631D01*
X133077000Y-90144939D01*
X133116774Y-90344898D01*
X133194795Y-90533256D01*
X133308063Y-90702774D01*
X133452226Y-90846937D01*
X133621744Y-90960205D01*
X133810102Y-91038226D01*
X134010061Y-91078000D01*
X134213939Y-91078000D01*
X134413898Y-91038226D01*
X134602256Y-90960205D01*
X134771774Y-90846937D01*
X134831094Y-90787617D01*
X136638422Y-92594945D01*
X136537469Y-92564321D01*
X136365434Y-92547377D01*
X136193399Y-92564321D01*
X136132700Y-92582734D01*
X136123226Y-92535102D01*
X136045205Y-92346744D01*
X135931937Y-92177226D01*
X135787774Y-92033063D01*
X135618256Y-91919795D01*
X135429898Y-91841774D01*
X135229939Y-91802000D01*
X135026061Y-91802000D01*
X134826102Y-91841774D01*
X134637744Y-91919795D01*
X134468226Y-92033063D01*
X134324063Y-92177226D01*
X134210795Y-92346744D01*
X134132774Y-92535102D01*
X134093000Y-92735061D01*
X134093000Y-92938939D01*
X134132774Y-93138898D01*
X134210795Y-93327256D01*
X134324063Y-93496774D01*
X134468226Y-93640937D01*
X134637744Y-93754205D01*
X134826102Y-93832226D01*
X134873734Y-93841700D01*
X134855321Y-93902399D01*
X134838377Y-94074434D01*
X134855321Y-94246469D01*
X134905502Y-94411893D01*
X134986991Y-94564348D01*
X135096657Y-94697976D01*
X135441372Y-95042691D01*
X135575000Y-95152357D01*
X135727455Y-95233846D01*
X135892879Y-95284027D01*
X136064914Y-95300971D01*
X136073097Y-95300165D01*
X136063239Y-95400260D01*
X136075499Y-95524741D01*
X136111809Y-95644440D01*
X136127391Y-95673592D01*
X135728282Y-95274483D01*
X135594654Y-95164817D01*
X135442199Y-95083328D01*
X135276775Y-95033147D01*
X135104740Y-95016203D01*
X134932705Y-95033147D01*
X134767281Y-95083328D01*
X134614826Y-95164817D01*
X134481198Y-95274483D01*
X134136483Y-95619198D01*
X134026817Y-95752826D01*
X133945328Y-95905281D01*
X133895147Y-96070705D01*
X133878203Y-96242740D01*
X133879009Y-96250923D01*
X133778914Y-96241065D01*
X133654433Y-96253325D01*
X133534734Y-96289635D01*
X133424420Y-96348599D01*
X133327729Y-96427952D01*
X133187242Y-96572783D01*
X133187242Y-96797289D01*
X133929174Y-97539221D01*
X133943317Y-97525079D01*
X134122922Y-97704684D01*
X134108779Y-97718826D01*
X134850711Y-98460758D01*
X135075217Y-98460758D01*
X135220048Y-98320271D01*
X135299401Y-98223580D01*
X135358365Y-98113266D01*
X135394675Y-97993567D01*
X135406935Y-97869086D01*
X135397077Y-97768991D01*
X135405260Y-97769797D01*
X135540816Y-97756446D01*
X135998782Y-98214412D01*
X135996956Y-98232957D01*
X135938371Y-98238727D01*
X135818673Y-98275036D01*
X135708359Y-98334000D01*
X135611668Y-98413353D01*
X135320921Y-98708444D01*
X135320921Y-98932951D01*
X135992142Y-99604172D01*
X136006285Y-99590030D01*
X136185890Y-99769635D01*
X136171747Y-99783777D01*
X136185890Y-99797920D01*
X136006285Y-99977525D01*
X135992142Y-99963382D01*
X135250210Y-100705314D01*
X135250210Y-100929820D01*
X135470246Y-101154201D01*
X135566937Y-101233554D01*
X135677252Y-101292518D01*
X135683566Y-101294433D01*
X135685482Y-101300749D01*
X135744447Y-101411063D01*
X135823799Y-101507754D01*
X136672327Y-102356282D01*
X136769018Y-102435634D01*
X136879332Y-102494599D01*
X136999030Y-102530909D01*
X137123512Y-102543169D01*
X137247994Y-102530909D01*
X137367692Y-102494599D01*
X137478006Y-102435634D01*
X137526539Y-102395804D01*
X138279075Y-103148341D01*
X138284321Y-103201601D01*
X138334502Y-103367025D01*
X138415991Y-103519480D01*
X138525657Y-103653108D01*
X139170892Y-104298343D01*
X139287450Y-104394000D01*
X138867003Y-104394000D01*
X138729756Y-104302295D01*
X138541398Y-104224274D01*
X138341439Y-104184500D01*
X138137561Y-104184500D01*
X137937602Y-104224274D01*
X137749244Y-104302295D01*
X137579726Y-104415563D01*
X137435563Y-104559726D01*
X137322295Y-104729244D01*
X137244274Y-104917602D01*
X137204500Y-105117561D01*
X137204500Y-105321439D01*
X137244274Y-105521398D01*
X137322295Y-105709756D01*
X137435563Y-105879274D01*
X137579726Y-106023437D01*
X137749244Y-106136705D01*
X137937602Y-106214726D01*
X137994230Y-106225990D01*
X131193751Y-106225990D01*
X126775619Y-101807858D01*
X126775619Y-99854488D01*
X134434831Y-99854488D01*
X134447092Y-99978969D01*
X134483401Y-100098667D01*
X134542365Y-100208982D01*
X134621718Y-100305673D01*
X134846099Y-100525709D01*
X135070605Y-100525709D01*
X135812537Y-99783777D01*
X135141316Y-99112556D01*
X134916809Y-99112556D01*
X134621718Y-99403303D01*
X134542365Y-99499994D01*
X134483401Y-99610308D01*
X134447092Y-99730006D01*
X134434831Y-99854488D01*
X126775619Y-99854488D01*
X126775619Y-98490103D01*
X133337502Y-98490103D01*
X133337502Y-98714609D01*
X133628249Y-99009700D01*
X133724940Y-99089053D01*
X133835255Y-99148017D01*
X133954953Y-99184327D01*
X134079434Y-99196587D01*
X134203915Y-99184327D01*
X134323614Y-99148017D01*
X134433928Y-99089053D01*
X134530619Y-99009700D01*
X134671106Y-98864869D01*
X134671106Y-98640363D01*
X133929174Y-97898431D01*
X133337502Y-98490103D01*
X126775619Y-98490103D01*
X126775619Y-97568566D01*
X132451413Y-97568566D01*
X132463673Y-97693047D01*
X132499983Y-97812745D01*
X132558947Y-97923060D01*
X132638300Y-98019751D01*
X132933391Y-98310498D01*
X133157897Y-98310498D01*
X133749569Y-97718826D01*
X133007637Y-96976894D01*
X132783131Y-96976894D01*
X132638300Y-97117381D01*
X132558947Y-97214072D01*
X132499983Y-97324386D01*
X132463673Y-97444085D01*
X132451413Y-97568566D01*
X126775619Y-97568566D01*
X126775619Y-92868709D01*
X126779305Y-92831286D01*
X126773860Y-92776006D01*
X126764593Y-92681909D01*
X126746000Y-92620616D01*
X126746000Y-69850000D01*
X140593538Y-69850000D01*
X140592737Y-69852639D01*
G37*
X140592737Y-69852639D02*
X140571250Y-70070800D01*
X140571250Y-71216699D01*
X140592737Y-71434860D01*
X140677651Y-71714783D01*
X140815544Y-71972763D01*
X141001116Y-72198884D01*
X141227236Y-72384456D01*
X141485216Y-72522349D01*
X141765139Y-72607263D01*
X142056250Y-72635935D01*
X142347360Y-72607263D01*
X142627283Y-72522349D01*
X142885263Y-72384456D01*
X143111384Y-72198884D01*
X143296956Y-71972764D01*
X143434849Y-71714784D01*
X143519763Y-71434861D01*
X143541250Y-71216700D01*
X143541250Y-70070800D01*
X143519763Y-69852639D01*
X143518962Y-69850000D01*
X147893538Y-69850000D01*
X147892737Y-69852639D01*
X147871250Y-70070800D01*
X147871250Y-71216699D01*
X147892737Y-71434860D01*
X147977651Y-71714783D01*
X148115544Y-71972763D01*
X148301116Y-72198884D01*
X148527236Y-72384456D01*
X148785216Y-72522349D01*
X149065139Y-72607263D01*
X149356250Y-72635935D01*
X149647360Y-72607263D01*
X149927283Y-72522349D01*
X150185263Y-72384456D01*
X150411384Y-72198884D01*
X150596956Y-71972764D01*
X150734849Y-71714784D01*
X150819763Y-71434861D01*
X150841250Y-71216700D01*
X150841250Y-70070800D01*
X150819763Y-69852639D01*
X150818962Y-69850000D01*
X163703000Y-69850000D01*
X163703000Y-88676035D01*
X163553983Y-88825052D01*
X163524913Y-88848909D01*
X163501056Y-88877979D01*
X163501055Y-88877980D01*
X163429689Y-88964939D01*
X163358933Y-89097316D01*
X163315361Y-89240953D01*
X163300648Y-89390331D01*
X163304335Y-89427764D01*
X163304334Y-103171704D01*
X160215079Y-106260960D01*
X148852462Y-106260960D01*
X148815039Y-106257274D01*
X148777616Y-106260960D01*
X148777614Y-106260960D01*
X148665662Y-106271986D01*
X148522025Y-106315558D01*
X148389648Y-106386315D01*
X148273618Y-106481538D01*
X148249761Y-106510608D01*
X146172649Y-108587721D01*
X146143579Y-108611578D01*
X146119722Y-108640648D01*
X146119721Y-108640649D01*
X146048355Y-108727608D01*
X146023006Y-108775034D01*
X145960518Y-108781188D01*
X145840820Y-108817498D01*
X145730506Y-108876463D01*
X145633815Y-108955815D01*
X145554463Y-109052506D01*
X145495498Y-109162820D01*
X145478500Y-109218855D01*
X145461502Y-109162820D01*
X145402537Y-109052506D01*
X145323185Y-108955815D01*
X145226494Y-108876463D01*
X145116180Y-108817498D01*
X145013821Y-108786448D01*
X144979402Y-108672985D01*
X144944334Y-108607378D01*
X144908645Y-108540607D01*
X144872249Y-108496259D01*
X144813422Y-108424578D01*
X144784346Y-108400716D01*
X142859274Y-106475644D01*
X142835412Y-106446568D01*
X142719382Y-106351345D01*
X142587005Y-106280588D01*
X142443368Y-106237016D01*
X142331416Y-106225990D01*
X142331413Y-106225990D01*
X142293990Y-106222304D01*
X142256567Y-106225990D01*
X138484770Y-106225990D01*
X138541398Y-106214726D01*
X138729756Y-106136705D01*
X138867003Y-106045000D01*
X146918966Y-106045000D01*
X146959516Y-106048994D01*
X147000066Y-106045000D01*
X147000069Y-106045000D01*
X147121342Y-106033056D01*
X147276950Y-105985853D01*
X147420358Y-105909199D01*
X147546057Y-105806041D01*
X147571914Y-105774534D01*
X149296797Y-104049653D01*
X149303244Y-104046207D01*
X149428943Y-103943049D01*
X149454800Y-103911542D01*
X151004460Y-102361883D01*
X151166353Y-102329681D01*
X151354711Y-102251660D01*
X151524229Y-102138392D01*
X151668392Y-101994229D01*
X151781660Y-101824711D01*
X151859681Y-101636353D01*
X151899455Y-101436394D01*
X151899455Y-101232516D01*
X151859681Y-101032557D01*
X151781660Y-100844199D01*
X151687708Y-100703589D01*
X151949687Y-100703589D01*
X152002812Y-100831844D01*
X152116080Y-101001362D01*
X152260243Y-101145525D01*
X152429761Y-101258793D01*
X152618119Y-101336814D01*
X152818078Y-101376588D01*
X153021956Y-101376588D01*
X153221915Y-101336814D01*
X153406216Y-101260473D01*
X153567026Y-101367923D01*
X153755384Y-101445944D01*
X153955343Y-101485718D01*
X154159221Y-101485718D01*
X154359180Y-101445944D01*
X154547538Y-101367923D01*
X154557088Y-101361542D01*
X154652593Y-101425356D01*
X154840951Y-101503377D01*
X155040910Y-101543151D01*
X155244788Y-101543151D01*
X155444747Y-101503377D01*
X155633105Y-101425356D01*
X155714701Y-101370835D01*
X155719744Y-101374205D01*
X155908102Y-101452226D01*
X156108061Y-101492000D01*
X156311939Y-101492000D01*
X156511898Y-101452226D01*
X156700256Y-101374205D01*
X156781500Y-101319920D01*
X156862744Y-101374205D01*
X157051102Y-101452226D01*
X157251061Y-101492000D01*
X157454939Y-101492000D01*
X157654898Y-101452226D01*
X157843256Y-101374205D01*
X158012774Y-101260937D01*
X158156937Y-101116774D01*
X158270205Y-100947256D01*
X158348226Y-100758898D01*
X158388000Y-100558939D01*
X158388000Y-100355061D01*
X158348226Y-100155102D01*
X158270205Y-99966744D01*
X158156937Y-99797226D01*
X158012774Y-99653063D01*
X157843256Y-99539795D01*
X157654898Y-99461774D01*
X157454939Y-99422000D01*
X157395631Y-99422000D01*
X154489284Y-96515654D01*
X154465422Y-96486578D01*
X154349392Y-96391355D01*
X154217015Y-96320598D01*
X154073378Y-96277026D01*
X153961426Y-96266000D01*
X153961423Y-96266000D01*
X153924000Y-96262314D01*
X153886577Y-96266000D01*
X153180252Y-96266000D01*
X152230025Y-95315773D01*
X152451349Y-95094449D01*
X152530701Y-94997758D01*
X152530957Y-94997278D01*
X152531435Y-94997023D01*
X152628126Y-94917671D01*
X153017034Y-94528763D01*
X153096386Y-94432072D01*
X153096642Y-94431594D01*
X153097120Y-94431338D01*
X153193811Y-94351986D01*
X153582719Y-93963078D01*
X153662071Y-93866387D01*
X153662326Y-93865909D01*
X153662806Y-93865653D01*
X153759497Y-93786301D01*
X153800340Y-93745458D01*
X153789290Y-93857653D01*
X153806234Y-94029688D01*
X153856415Y-94195112D01*
X153937904Y-94347567D01*
X154047570Y-94481195D01*
X154692805Y-95126430D01*
X154826433Y-95236096D01*
X154978888Y-95317585D01*
X155144312Y-95367766D01*
X155316347Y-95384710D01*
X155488382Y-95367766D01*
X155653806Y-95317585D01*
X155806261Y-95236096D01*
X155939889Y-95126430D01*
X156284604Y-94781715D01*
X156394270Y-94648087D01*
X156475759Y-94495632D01*
X156525940Y-94330208D01*
X156542884Y-94158173D01*
X156542078Y-94149990D01*
X156642173Y-94159848D01*
X156766654Y-94147588D01*
X156886353Y-94111278D01*
X156996667Y-94052314D01*
X157093358Y-93972961D01*
X157233845Y-93828130D01*
X157233845Y-93603624D01*
X156491913Y-92861692D01*
X156477771Y-92875835D01*
X156298166Y-92696230D01*
X156312308Y-92682087D01*
X156671518Y-92682087D01*
X157413450Y-93424019D01*
X157637956Y-93424019D01*
X157782787Y-93283532D01*
X157862140Y-93186841D01*
X157921104Y-93076527D01*
X157957414Y-92956828D01*
X157969674Y-92832347D01*
X157957414Y-92707866D01*
X157921104Y-92588168D01*
X157862140Y-92477853D01*
X157782787Y-92381162D01*
X157487696Y-92090415D01*
X157263190Y-92090415D01*
X156671518Y-92682087D01*
X156312308Y-92682087D01*
X155570376Y-91940155D01*
X155345870Y-91940155D01*
X155201039Y-92080642D01*
X155121686Y-92177333D01*
X155062722Y-92287647D01*
X155026412Y-92407346D01*
X155014152Y-92531827D01*
X155024010Y-92631922D01*
X155015827Y-92631116D01*
X154880271Y-92644467D01*
X154333790Y-92097986D01*
X154309928Y-92068910D01*
X154193898Y-91973687D01*
X154061521Y-91902930D01*
X153917884Y-91859358D01*
X153805932Y-91848332D01*
X153805929Y-91848332D01*
X153768506Y-91844646D01*
X153731083Y-91848332D01*
X153501714Y-91848332D01*
X153189426Y-91536044D01*
X155749981Y-91536044D01*
X155749981Y-91760550D01*
X156491913Y-92502482D01*
X157083585Y-91910810D01*
X157083585Y-91686304D01*
X156792838Y-91391213D01*
X156696147Y-91311860D01*
X156585832Y-91252896D01*
X156466134Y-91216586D01*
X156341653Y-91204326D01*
X156217172Y-91216586D01*
X156097473Y-91252896D01*
X155987159Y-91311860D01*
X155890468Y-91391213D01*
X155749981Y-91536044D01*
X153189426Y-91536044D01*
X153087745Y-91434363D01*
X153055926Y-91408250D01*
X153087745Y-91382137D01*
X154122437Y-90347445D01*
X154257102Y-90403226D01*
X154457061Y-90443000D01*
X154660939Y-90443000D01*
X154860898Y-90403226D01*
X155049256Y-90325205D01*
X155218774Y-90211937D01*
X155362937Y-90067774D01*
X155476205Y-89898256D01*
X155500976Y-89838455D01*
X155596853Y-89917140D01*
X155707168Y-89976104D01*
X155826866Y-90012414D01*
X155951347Y-90024674D01*
X156075828Y-90012414D01*
X156195527Y-89976104D01*
X156305841Y-89917140D01*
X156402532Y-89837787D01*
X156543019Y-89692956D01*
X156543019Y-89468450D01*
X155801087Y-88726518D01*
X155786945Y-88740661D01*
X155607340Y-88561056D01*
X155621482Y-88546913D01*
X154879550Y-87804981D01*
X154655044Y-87804981D01*
X154510213Y-87945468D01*
X154430860Y-88042159D01*
X154371896Y-88152473D01*
X154335586Y-88272172D01*
X154323326Y-88396653D01*
X154323611Y-88399545D01*
X154257102Y-88412774D01*
X154068744Y-88490795D01*
X153931497Y-88582500D01*
X153811154Y-88582500D01*
X153770603Y-88578506D01*
X153730053Y-88582500D01*
X153730051Y-88582500D01*
X153608778Y-88594444D01*
X153481260Y-88633126D01*
X153453170Y-88641647D01*
X153309761Y-88718301D01*
X153266645Y-88753686D01*
X153196823Y-88810987D01*
X153198388Y-88795106D01*
X154995523Y-86997971D01*
X155114898Y-86974226D01*
X155303256Y-86896205D01*
X155463767Y-86788955D01*
X155529244Y-86832705D01*
X155717602Y-86910726D01*
X155764957Y-86920145D01*
X155750116Y-87070827D01*
X155750922Y-87079010D01*
X155650827Y-87069152D01*
X155526346Y-87081412D01*
X155406647Y-87117722D01*
X155296333Y-87176686D01*
X155199642Y-87256039D01*
X155059155Y-87400870D01*
X155059155Y-87625376D01*
X155801087Y-88367308D01*
X155815230Y-88353166D01*
X155994835Y-88532771D01*
X155980692Y-88546913D01*
X156722624Y-89288845D01*
X156947130Y-89288845D01*
X157091961Y-89148358D01*
X157171314Y-89051667D01*
X157230278Y-88941353D01*
X157266588Y-88821654D01*
X157278848Y-88697173D01*
X157268990Y-88597078D01*
X157277173Y-88597884D01*
X157330978Y-88592585D01*
X158057200Y-89318808D01*
X158086795Y-89390256D01*
X158200063Y-89559774D01*
X158344226Y-89703937D01*
X158513744Y-89817205D01*
X158702102Y-89895226D01*
X158902061Y-89935000D01*
X159105939Y-89935000D01*
X159305898Y-89895226D01*
X159494256Y-89817205D01*
X159663774Y-89703937D01*
X159807937Y-89559774D01*
X159921205Y-89390256D01*
X159999226Y-89201898D01*
X160039000Y-89001939D01*
X160039000Y-88798061D01*
X159999226Y-88598102D01*
X159921205Y-88409744D01*
X159807937Y-88240226D01*
X159663774Y-88096063D01*
X159494256Y-87982795D01*
X159305898Y-87904774D01*
X159105939Y-87865000D01*
X158938259Y-87865000D01*
X158498411Y-87425152D01*
X158503710Y-87371347D01*
X158486766Y-87199312D01*
X158436585Y-87033888D01*
X158355096Y-86881433D01*
X158245430Y-86747805D01*
X157600195Y-86102570D01*
X157466567Y-85992904D01*
X157314112Y-85911415D01*
X157148688Y-85861234D01*
X157130917Y-85859484D01*
X157046928Y-85775495D01*
X157014726Y-85613602D01*
X156936705Y-85425244D01*
X156823437Y-85255726D01*
X156679274Y-85111563D01*
X156509756Y-84998295D01*
X156321398Y-84920274D01*
X156159504Y-84888072D01*
X153602301Y-82330869D01*
X153576444Y-82299362D01*
X153450745Y-82196204D01*
X153307337Y-82119550D01*
X153151729Y-82072347D01*
X153030456Y-82060403D01*
X153030453Y-82060403D01*
X152989903Y-82056409D01*
X152949353Y-82060403D01*
X148630627Y-82060403D01*
X148590084Y-82056410D01*
X148549541Y-82060403D01*
X148549532Y-82060403D01*
X148428259Y-82072347D01*
X148272651Y-82119550D01*
X148173253Y-82172680D01*
X148129241Y-82196205D01*
X148104379Y-82216609D01*
X148003544Y-82299362D01*
X147977691Y-82330864D01*
X146760548Y-83548008D01*
X146729041Y-83573865D01*
X146664708Y-83652256D01*
X146625883Y-83699564D01*
X146575472Y-83793876D01*
X146549229Y-83842973D01*
X146502026Y-83998581D01*
X146494050Y-84079568D01*
X146139613Y-84434005D01*
X146113500Y-84465824D01*
X146087387Y-84434005D01*
X145026727Y-83373345D01*
X144930036Y-83293993D01*
X144819722Y-83235028D01*
X144700024Y-83198718D01*
X144643372Y-83193138D01*
X144632226Y-83137102D01*
X144554205Y-82948744D01*
X144440937Y-82779226D01*
X144296774Y-82635063D01*
X144127256Y-82521795D01*
X144113524Y-82516107D01*
X144714631Y-81915000D01*
X146061077Y-81915000D01*
X146098500Y-81918686D01*
X146135923Y-81915000D01*
X146135926Y-81915000D01*
X146247878Y-81903974D01*
X146391515Y-81860402D01*
X146523892Y-81789645D01*
X146639922Y-81694422D01*
X146663784Y-81665346D01*
X147145058Y-81184072D01*
X147649250Y-81184072D01*
X147821285Y-81167128D01*
X147986709Y-81116947D01*
X148139164Y-81035458D01*
X148272792Y-80925792D01*
X148317000Y-80871925D01*
X148317000Y-81000939D01*
X148356774Y-81200898D01*
X148434795Y-81389256D01*
X148548063Y-81558774D01*
X148692226Y-81702937D01*
X148861744Y-81816205D01*
X149050102Y-81894226D01*
X149250061Y-81934000D01*
X149453939Y-81934000D01*
X149653898Y-81894226D01*
X149842256Y-81816205D01*
X150011774Y-81702937D01*
X150155937Y-81558774D01*
X150269205Y-81389256D01*
X150347226Y-81200898D01*
X150387000Y-81000939D01*
X150387000Y-80797061D01*
X150347226Y-80597102D01*
X150346852Y-80596199D01*
X150444850Y-80566472D01*
X150598386Y-80484405D01*
X150732962Y-80373962D01*
X150843405Y-80239386D01*
X150925472Y-80085850D01*
X150976008Y-79919254D01*
X150993072Y-79746000D01*
X150993072Y-78680990D01*
X151266928Y-78680990D01*
X151266928Y-79746000D01*
X151283992Y-79919254D01*
X151334528Y-80085850D01*
X151416595Y-80239386D01*
X151527038Y-80373962D01*
X151661614Y-80484405D01*
X151815150Y-80566472D01*
X151981746Y-80617008D01*
X152155000Y-80634072D01*
X152905000Y-80634072D01*
X153078254Y-80617008D01*
X153244850Y-80566472D01*
X153398386Y-80484405D01*
X153532962Y-80373962D01*
X153643405Y-80239386D01*
X153725472Y-80085850D01*
X153776008Y-79919254D01*
X153793072Y-79746000D01*
X153793072Y-78496000D01*
X153776008Y-78322746D01*
X153725472Y-78156150D01*
X153643405Y-78002614D01*
X153532962Y-77868038D01*
X153398386Y-77757595D01*
X153244850Y-77675528D01*
X153078254Y-77624992D01*
X153076225Y-77624792D01*
X152751887Y-77300455D01*
X152726031Y-77268949D01*
X152600332Y-77165791D01*
X152456924Y-77089137D01*
X152301316Y-77041934D01*
X152180043Y-77029990D01*
X152180040Y-77029990D01*
X152139490Y-77025996D01*
X152098940Y-77029990D01*
X149902094Y-77029990D01*
X149927283Y-77022349D01*
X150185263Y-76884456D01*
X150411384Y-76698884D01*
X150596956Y-76472764D01*
X150734849Y-76214784D01*
X150819763Y-75934861D01*
X150841250Y-75716700D01*
X150841250Y-74570800D01*
X150819763Y-74352639D01*
X150734849Y-74072716D01*
X150596956Y-73814736D01*
X150411384Y-73588616D01*
X150185264Y-73403044D01*
X149927284Y-73265151D01*
X149647361Y-73180237D01*
X149356250Y-73151565D01*
X149065140Y-73180237D01*
X148785217Y-73265151D01*
X148527237Y-73403044D01*
X148301117Y-73588616D01*
X148146496Y-73777022D01*
X148145752Y-73774570D01*
X148086787Y-73664256D01*
X148007435Y-73567565D01*
X147910744Y-73488213D01*
X147800430Y-73429248D01*
X147680732Y-73392938D01*
X147556250Y-73380678D01*
X147056250Y-73380678D01*
X146931768Y-73392938D01*
X146906250Y-73400679D01*
X146880732Y-73392938D01*
X146756250Y-73380678D01*
X146256250Y-73380678D01*
X146131768Y-73392938D01*
X146106250Y-73400679D01*
X146080732Y-73392938D01*
X145956250Y-73380678D01*
X145456250Y-73380678D01*
X145331768Y-73392938D01*
X145306250Y-73400679D01*
X145280732Y-73392938D01*
X145156250Y-73380678D01*
X144656250Y-73380678D01*
X144531768Y-73392938D01*
X144506984Y-73400456D01*
X144487611Y-73394346D01*
X144388000Y-73383750D01*
X144229250Y-73542500D01*
X144229250Y-73547717D01*
X144205065Y-73567565D01*
X144125713Y-73664256D01*
X144066748Y-73774570D01*
X144030438Y-73894268D01*
X144018178Y-74018750D01*
X144018178Y-76268750D01*
X144030438Y-76393232D01*
X144066748Y-76512930D01*
X144125713Y-76623244D01*
X144205065Y-76719935D01*
X144229250Y-76739783D01*
X144229250Y-76745000D01*
X144388000Y-76903750D01*
X144487611Y-76893154D01*
X144506984Y-76887044D01*
X144531768Y-76894562D01*
X144656250Y-76906822D01*
X144944251Y-76906822D01*
X144944251Y-77009428D01*
X144577750Y-77009428D01*
X144405715Y-77026372D01*
X144240291Y-77076553D01*
X144087836Y-77158042D01*
X143954208Y-77267708D01*
X143844542Y-77401336D01*
X143763053Y-77553791D01*
X143712872Y-77719215D01*
X143695928Y-77891250D01*
X143695928Y-78378750D01*
X143712872Y-78550785D01*
X143763053Y-78716209D01*
X143844542Y-78868664D01*
X143954208Y-79002292D01*
X144039756Y-79072500D01*
X143954208Y-79142708D01*
X143844542Y-79276336D01*
X143763053Y-79428791D01*
X143730602Y-79535768D01*
X142429239Y-80837131D01*
X142261937Y-80725343D01*
X142073579Y-80647322D01*
X141873620Y-80607548D01*
X141669742Y-80607548D01*
X141469783Y-80647322D01*
X141281425Y-80725343D01*
X141111907Y-80838611D01*
X140967744Y-80982774D01*
X140854476Y-81152292D01*
X140776455Y-81340650D01*
X140744253Y-81502544D01*
X140561344Y-81685453D01*
X140538107Y-81692502D01*
X140385652Y-81773991D01*
X140252024Y-81883657D01*
X140058778Y-82076903D01*
X140062674Y-82037347D01*
X140050414Y-81912866D01*
X140014104Y-81793168D01*
X139955140Y-81682853D01*
X139875787Y-81586162D01*
X139580696Y-81295415D01*
X139356190Y-81295415D01*
X138764518Y-81887087D01*
X139506450Y-82629019D01*
X139681401Y-82629019D01*
X139665973Y-82679879D01*
X139649029Y-82851914D01*
X139649835Y-82860097D01*
X139549740Y-82850239D01*
X139425259Y-82862499D01*
X139326845Y-82892352D01*
X139326845Y-82808624D01*
X138584913Y-82066692D01*
X138570771Y-82080835D01*
X138391166Y-81901230D01*
X138405308Y-81887087D01*
X137663376Y-81145155D01*
X137438870Y-81145155D01*
X137294039Y-81285642D01*
X137214686Y-81382333D01*
X137155722Y-81492647D01*
X137119412Y-81612346D01*
X137107152Y-81736827D01*
X137117010Y-81836922D01*
X137108827Y-81836116D01*
X136936792Y-81853060D01*
X136771368Y-81903241D01*
X136618913Y-81984730D01*
X136485285Y-82094396D01*
X136140570Y-82439111D01*
X136030904Y-82572739D01*
X135949415Y-82725194D01*
X135899234Y-82890618D01*
X135882290Y-83062653D01*
X135899234Y-83234688D01*
X135949415Y-83400112D01*
X136030904Y-83552567D01*
X136140570Y-83686195D01*
X136785805Y-84331430D01*
X136919433Y-84441096D01*
X137071888Y-84522585D01*
X137237312Y-84572766D01*
X137409347Y-84589710D01*
X137544903Y-84576359D01*
X138796273Y-85827730D01*
X138628183Y-85897356D01*
X138490936Y-85989061D01*
X137829495Y-85989061D01*
X136358780Y-84518347D01*
X136339902Y-84456116D01*
X136298667Y-84378971D01*
X136263248Y-84312706D01*
X136210274Y-84248158D01*
X136160090Y-84187008D01*
X136128588Y-84161155D01*
X134048500Y-82081068D01*
X134048500Y-80741044D01*
X137842981Y-80741044D01*
X137842981Y-80965550D01*
X138584913Y-81707482D01*
X139176585Y-81115810D01*
X139176585Y-80891304D01*
X138885838Y-80596213D01*
X138789147Y-80516860D01*
X138678832Y-80457896D01*
X138559134Y-80421586D01*
X138434653Y-80409326D01*
X138310172Y-80421586D01*
X138190473Y-80457896D01*
X138080159Y-80516860D01*
X137983468Y-80596213D01*
X137842981Y-80741044D01*
X134048500Y-80741044D01*
X134048500Y-79600090D01*
X134090292Y-79565792D01*
X134199958Y-79432164D01*
X134281447Y-79279709D01*
X134331628Y-79114285D01*
X134348572Y-78942250D01*
X134348572Y-78029750D01*
X134331628Y-77857715D01*
X134281447Y-77692291D01*
X134199958Y-77539836D01*
X134090292Y-77406208D01*
X133956664Y-77296542D01*
X133804209Y-77215053D01*
X133638785Y-77164872D01*
X133466750Y-77147928D01*
X132979250Y-77147928D01*
X132807215Y-77164872D01*
X132641791Y-77215053D01*
X132489336Y-77296542D01*
X132355708Y-77406208D01*
X132285500Y-77491756D01*
X132215292Y-77406208D01*
X132081664Y-77296542D01*
X131929209Y-77215053D01*
X131763785Y-77164872D01*
X131624473Y-77151151D01*
X131624473Y-76135072D01*
X133361000Y-76135072D01*
X133485482Y-76122812D01*
X133605180Y-76086502D01*
X133715494Y-76027537D01*
X133812185Y-75948185D01*
X133891537Y-75851494D01*
X133950502Y-75741180D01*
X133986812Y-75621482D01*
X133999072Y-75497000D01*
X137122928Y-75497000D01*
X137135188Y-75621482D01*
X137171498Y-75741180D01*
X137230463Y-75851494D01*
X137309815Y-75948185D01*
X137406506Y-76027537D01*
X137516820Y-76086502D01*
X137636518Y-76122812D01*
X137761000Y-76135072D01*
X138375250Y-76132000D01*
X138534000Y-75973250D01*
X138534000Y-75074000D01*
X138788000Y-75074000D01*
X138788000Y-75973250D01*
X138946750Y-76132000D01*
X139561000Y-76135072D01*
X139685482Y-76122812D01*
X139805180Y-76086502D01*
X139915494Y-76027537D01*
X140012185Y-75948185D01*
X140091537Y-75851494D01*
X140150502Y-75741180D01*
X140186812Y-75621482D01*
X140199072Y-75497000D01*
X140196000Y-75232750D01*
X140037250Y-75074000D01*
X138788000Y-75074000D01*
X138534000Y-75074000D01*
X137284750Y-75074000D01*
X137126000Y-75232750D01*
X137122928Y-75497000D01*
X133999072Y-75497000D01*
X133999072Y-74397000D01*
X137122928Y-74397000D01*
X137126000Y-74661250D01*
X137284750Y-74820000D01*
X138534000Y-74820000D01*
X138534000Y-73920750D01*
X138788000Y-73920750D01*
X138788000Y-74820000D01*
X140037250Y-74820000D01*
X140196000Y-74661250D01*
X140197051Y-74570800D01*
X140571250Y-74570800D01*
X140571250Y-75716699D01*
X140592737Y-75934860D01*
X140677651Y-76214783D01*
X140815544Y-76472763D01*
X141001116Y-76698884D01*
X141227236Y-76884456D01*
X141485216Y-77022349D01*
X141765139Y-77107263D01*
X142056250Y-77135935D01*
X142347360Y-77107263D01*
X142627283Y-77022349D01*
X142885263Y-76884456D01*
X143111384Y-76698884D01*
X143266127Y-76510329D01*
X143321844Y-76617384D01*
X143400127Y-76714943D01*
X143495939Y-76795354D01*
X143605598Y-76855529D01*
X143724889Y-76893154D01*
X143824500Y-76903750D01*
X143983250Y-76745000D01*
X143983250Y-75270750D01*
X143959250Y-75270750D01*
X143959250Y-75016750D01*
X143983250Y-75016750D01*
X143983250Y-73542500D01*
X143824500Y-73383750D01*
X143724889Y-73394346D01*
X143605598Y-73431971D01*
X143495939Y-73492146D01*
X143400127Y-73572557D01*
X143321844Y-73670116D01*
X143266127Y-73777171D01*
X143111384Y-73588616D01*
X142885264Y-73403044D01*
X142627284Y-73265151D01*
X142347361Y-73180237D01*
X142056250Y-73151565D01*
X141765140Y-73180237D01*
X141485217Y-73265151D01*
X141227237Y-73403044D01*
X141001117Y-73588616D01*
X140815544Y-73814736D01*
X140677651Y-74072716D01*
X140592737Y-74352639D01*
X140571250Y-74570800D01*
X140197051Y-74570800D01*
X140199072Y-74397000D01*
X140186812Y-74272518D01*
X140150502Y-74152820D01*
X140091537Y-74042506D01*
X140012185Y-73945815D01*
X139915494Y-73866463D01*
X139805180Y-73807498D01*
X139685482Y-73771188D01*
X139561000Y-73758928D01*
X138946750Y-73762000D01*
X138788000Y-73920750D01*
X138534000Y-73920750D01*
X138375250Y-73762000D01*
X137761000Y-73758928D01*
X137636518Y-73771188D01*
X137516820Y-73807498D01*
X137406506Y-73866463D01*
X137309815Y-73945815D01*
X137230463Y-74042506D01*
X137171498Y-74152820D01*
X137135188Y-74272518D01*
X137122928Y-74397000D01*
X133999072Y-74397000D01*
X133986812Y-74272518D01*
X133950502Y-74152820D01*
X133891537Y-74042506D01*
X133812185Y-73945815D01*
X133715494Y-73866463D01*
X133605180Y-73807498D01*
X133485482Y-73771188D01*
X133361000Y-73758928D01*
X131830702Y-73758928D01*
X132973346Y-72616284D01*
X133002422Y-72592422D01*
X133062857Y-72518781D01*
X133097645Y-72476393D01*
X133119731Y-72435072D01*
X133361000Y-72435072D01*
X133485482Y-72422812D01*
X133605180Y-72386502D01*
X133715494Y-72327537D01*
X133812185Y-72248185D01*
X133891537Y-72151494D01*
X133950502Y-72041180D01*
X133986812Y-71921482D01*
X133999072Y-71797000D01*
X133999072Y-70697000D01*
X137122928Y-70697000D01*
X137122928Y-71797000D01*
X137135188Y-71921482D01*
X137171498Y-72041180D01*
X137230463Y-72151494D01*
X137309815Y-72248185D01*
X137406506Y-72327537D01*
X137516820Y-72386502D01*
X137636518Y-72422812D01*
X137761000Y-72435072D01*
X139561000Y-72435072D01*
X139685482Y-72422812D01*
X139805180Y-72386502D01*
X139915494Y-72327537D01*
X140012185Y-72248185D01*
X140091537Y-72151494D01*
X140150502Y-72041180D01*
X140186812Y-71921482D01*
X140199072Y-71797000D01*
X140199072Y-70697000D01*
X140186812Y-70572518D01*
X140150502Y-70452820D01*
X140091537Y-70342506D01*
X140012185Y-70245815D01*
X139915494Y-70166463D01*
X139805180Y-70107498D01*
X139685482Y-70071188D01*
X139561000Y-70058928D01*
X137761000Y-70058928D01*
X137636518Y-70071188D01*
X137516820Y-70107498D01*
X137406506Y-70166463D01*
X137309815Y-70245815D01*
X137230463Y-70342506D01*
X137171498Y-70452820D01*
X137135188Y-70572518D01*
X137122928Y-70697000D01*
X133999072Y-70697000D01*
X133986812Y-70572518D01*
X133950502Y-70452820D01*
X133891537Y-70342506D01*
X133812185Y-70245815D01*
X133715494Y-70166463D01*
X133605180Y-70107498D01*
X133485482Y-70071188D01*
X133361000Y-70058928D01*
X131561000Y-70058928D01*
X131436518Y-70071188D01*
X131316820Y-70107498D01*
X131206506Y-70166463D01*
X131109815Y-70245815D01*
X131030463Y-70342506D01*
X130971498Y-70452820D01*
X130935188Y-70572518D01*
X130922928Y-70697000D01*
X130922928Y-71797000D01*
X130935188Y-71921482D01*
X130971498Y-72041180D01*
X131030463Y-72151494D01*
X131109815Y-72248185D01*
X131151761Y-72282609D01*
X130350127Y-73084243D01*
X130321051Y-73108105D01*
X130285385Y-73151565D01*
X130225828Y-73224135D01*
X130203905Y-73265151D01*
X130155071Y-73356513D01*
X130111499Y-73500150D01*
X130104368Y-73572557D01*
X130096787Y-73649527D01*
X130100473Y-73686950D01*
X130100474Y-77963040D01*
X130096787Y-78000473D01*
X130111500Y-78149851D01*
X130155072Y-78293488D01*
X130222428Y-78419504D01*
X130222428Y-78942250D01*
X130239372Y-79114285D01*
X130289553Y-79279709D01*
X130371042Y-79432164D01*
X130480708Y-79565792D01*
X130614336Y-79675458D01*
X130766791Y-79756947D01*
X130932215Y-79807128D01*
X131071527Y-79820849D01*
X131071528Y-86674986D01*
X131067841Y-86712419D01*
X131082554Y-86861797D01*
X131126126Y-87005434D01*
X131196882Y-87137811D01*
X131268248Y-87224770D01*
X131292106Y-87253841D01*
X131321176Y-87277698D01*
X131779883Y-87736406D01*
X131657063Y-87859226D01*
X131543795Y-88028744D01*
X131465774Y-88217102D01*
X131426000Y-88417061D01*
X131426000Y-88620939D01*
X131465774Y-88820898D01*
X131543795Y-89009256D01*
X131657063Y-89178774D01*
X131801226Y-89322937D01*
X131970744Y-89436205D01*
X132159102Y-89514226D01*
X132359061Y-89554000D01*
X132545370Y-89554000D01*
X133077000Y-90085631D01*
X133077000Y-90144939D01*
X133116774Y-90344898D01*
X133194795Y-90533256D01*
X133308063Y-90702774D01*
X133452226Y-90846937D01*
X133621744Y-90960205D01*
X133810102Y-91038226D01*
X134010061Y-91078000D01*
X134213939Y-91078000D01*
X134413898Y-91038226D01*
X134602256Y-90960205D01*
X134771774Y-90846937D01*
X134831094Y-90787617D01*
X136638422Y-92594945D01*
X136537469Y-92564321D01*
X136365434Y-92547377D01*
X136193399Y-92564321D01*
X136132700Y-92582734D01*
X136123226Y-92535102D01*
X136045205Y-92346744D01*
X135931937Y-92177226D01*
X135787774Y-92033063D01*
X135618256Y-91919795D01*
X135429898Y-91841774D01*
X135229939Y-91802000D01*
X135026061Y-91802000D01*
X134826102Y-91841774D01*
X134637744Y-91919795D01*
X134468226Y-92033063D01*
X134324063Y-92177226D01*
X134210795Y-92346744D01*
X134132774Y-92535102D01*
X134093000Y-92735061D01*
X134093000Y-92938939D01*
X134132774Y-93138898D01*
X134210795Y-93327256D01*
X134324063Y-93496774D01*
X134468226Y-93640937D01*
X134637744Y-93754205D01*
X134826102Y-93832226D01*
X134873734Y-93841700D01*
X134855321Y-93902399D01*
X134838377Y-94074434D01*
X134855321Y-94246469D01*
X134905502Y-94411893D01*
X134986991Y-94564348D01*
X135096657Y-94697976D01*
X135441372Y-95042691D01*
X135575000Y-95152357D01*
X135727455Y-95233846D01*
X135892879Y-95284027D01*
X136064914Y-95300971D01*
X136073097Y-95300165D01*
X136063239Y-95400260D01*
X136075499Y-95524741D01*
X136111809Y-95644440D01*
X136127391Y-95673592D01*
X135728282Y-95274483D01*
X135594654Y-95164817D01*
X135442199Y-95083328D01*
X135276775Y-95033147D01*
X135104740Y-95016203D01*
X134932705Y-95033147D01*
X134767281Y-95083328D01*
X134614826Y-95164817D01*
X134481198Y-95274483D01*
X134136483Y-95619198D01*
X134026817Y-95752826D01*
X133945328Y-95905281D01*
X133895147Y-96070705D01*
X133878203Y-96242740D01*
X133879009Y-96250923D01*
X133778914Y-96241065D01*
X133654433Y-96253325D01*
X133534734Y-96289635D01*
X133424420Y-96348599D01*
X133327729Y-96427952D01*
X133187242Y-96572783D01*
X133187242Y-96797289D01*
X133929174Y-97539221D01*
X133943317Y-97525079D01*
X134122922Y-97704684D01*
X134108779Y-97718826D01*
X134850711Y-98460758D01*
X135075217Y-98460758D01*
X135220048Y-98320271D01*
X135299401Y-98223580D01*
X135358365Y-98113266D01*
X135394675Y-97993567D01*
X135406935Y-97869086D01*
X135397077Y-97768991D01*
X135405260Y-97769797D01*
X135540816Y-97756446D01*
X135998782Y-98214412D01*
X135996956Y-98232957D01*
X135938371Y-98238727D01*
X135818673Y-98275036D01*
X135708359Y-98334000D01*
X135611668Y-98413353D01*
X135320921Y-98708444D01*
X135320921Y-98932951D01*
X135992142Y-99604172D01*
X136006285Y-99590030D01*
X136185890Y-99769635D01*
X136171747Y-99783777D01*
X136185890Y-99797920D01*
X136006285Y-99977525D01*
X135992142Y-99963382D01*
X135250210Y-100705314D01*
X135250210Y-100929820D01*
X135470246Y-101154201D01*
X135566937Y-101233554D01*
X135677252Y-101292518D01*
X135683566Y-101294433D01*
X135685482Y-101300749D01*
X135744447Y-101411063D01*
X135823799Y-101507754D01*
X136672327Y-102356282D01*
X136769018Y-102435634D01*
X136879332Y-102494599D01*
X136999030Y-102530909D01*
X137123512Y-102543169D01*
X137247994Y-102530909D01*
X137367692Y-102494599D01*
X137478006Y-102435634D01*
X137526539Y-102395804D01*
X138279075Y-103148341D01*
X138284321Y-103201601D01*
X138334502Y-103367025D01*
X138415991Y-103519480D01*
X138525657Y-103653108D01*
X139170892Y-104298343D01*
X139287450Y-104394000D01*
X138867003Y-104394000D01*
X138729756Y-104302295D01*
X138541398Y-104224274D01*
X138341439Y-104184500D01*
X138137561Y-104184500D01*
X137937602Y-104224274D01*
X137749244Y-104302295D01*
X137579726Y-104415563D01*
X137435563Y-104559726D01*
X137322295Y-104729244D01*
X137244274Y-104917602D01*
X137204500Y-105117561D01*
X137204500Y-105321439D01*
X137244274Y-105521398D01*
X137322295Y-105709756D01*
X137435563Y-105879274D01*
X137579726Y-106023437D01*
X137749244Y-106136705D01*
X137937602Y-106214726D01*
X137994230Y-106225990D01*
X131193751Y-106225990D01*
X126775619Y-101807858D01*
X126775619Y-99854488D01*
X134434831Y-99854488D01*
X134447092Y-99978969D01*
X134483401Y-100098667D01*
X134542365Y-100208982D01*
X134621718Y-100305673D01*
X134846099Y-100525709D01*
X135070605Y-100525709D01*
X135812537Y-99783777D01*
X135141316Y-99112556D01*
X134916809Y-99112556D01*
X134621718Y-99403303D01*
X134542365Y-99499994D01*
X134483401Y-99610308D01*
X134447092Y-99730006D01*
X134434831Y-99854488D01*
X126775619Y-99854488D01*
X126775619Y-98490103D01*
X133337502Y-98490103D01*
X133337502Y-98714609D01*
X133628249Y-99009700D01*
X133724940Y-99089053D01*
X133835255Y-99148017D01*
X133954953Y-99184327D01*
X134079434Y-99196587D01*
X134203915Y-99184327D01*
X134323614Y-99148017D01*
X134433928Y-99089053D01*
X134530619Y-99009700D01*
X134671106Y-98864869D01*
X134671106Y-98640363D01*
X133929174Y-97898431D01*
X133337502Y-98490103D01*
X126775619Y-98490103D01*
X126775619Y-97568566D01*
X132451413Y-97568566D01*
X132463673Y-97693047D01*
X132499983Y-97812745D01*
X132558947Y-97923060D01*
X132638300Y-98019751D01*
X132933391Y-98310498D01*
X133157897Y-98310498D01*
X133749569Y-97718826D01*
X133007637Y-96976894D01*
X132783131Y-96976894D01*
X132638300Y-97117381D01*
X132558947Y-97214072D01*
X132499983Y-97324386D01*
X132463673Y-97444085D01*
X132451413Y-97568566D01*
X126775619Y-97568566D01*
X126775619Y-92868709D01*
X126779305Y-92831286D01*
X126773860Y-92776006D01*
X126764593Y-92681909D01*
X126746000Y-92620616D01*
X126746000Y-69850000D01*
X140593538Y-69850000D01*
X140592737Y-69852639D01*
G36*
X146139613Y-85336375D02*
G01*
X146528521Y-85725283D01*
X146625212Y-85804635D01*
X146626297Y-85805215D01*
X146699868Y-85892287D01*
X146830094Y-85892287D01*
X146855224Y-85899910D01*
X146979706Y-85912170D01*
X147095500Y-85900766D01*
X147084096Y-86016561D01*
X147096356Y-86141043D01*
X147103980Y-86166176D01*
X147103980Y-86296399D01*
X147191050Y-86369968D01*
X147191631Y-86371055D01*
X147270983Y-86467746D01*
X147659891Y-86856654D01*
X147756582Y-86936006D01*
X147757062Y-86936262D01*
X147757317Y-86936740D01*
X147836669Y-87033431D01*
X148225577Y-87422339D01*
X148322268Y-87501691D01*
X148322746Y-87501946D01*
X148323002Y-87502426D01*
X148402354Y-87599117D01*
X148791262Y-87988025D01*
X148887953Y-88067377D01*
X148888433Y-88067633D01*
X148888688Y-88068111D01*
X148968040Y-88164802D01*
X149356948Y-88553710D01*
X149453639Y-88633062D01*
X149454117Y-88633317D01*
X149454373Y-88633797D01*
X149533725Y-88730488D01*
X149922633Y-89119396D01*
X150019324Y-89198748D01*
X150019804Y-89199004D01*
X150020059Y-89199482D01*
X150099411Y-89296173D01*
X150488319Y-89685081D01*
X150585010Y-89764433D01*
X150585488Y-89764688D01*
X150585744Y-89765168D01*
X150665096Y-89861859D01*
X151054004Y-90250767D01*
X151150695Y-90330119D01*
X151151782Y-90330700D01*
X151225351Y-90417770D01*
X151355574Y-90417770D01*
X151380707Y-90425394D01*
X151505189Y-90437654D01*
X151620984Y-90426250D01*
X151609580Y-90542044D01*
X151621840Y-90666526D01*
X151629463Y-90691656D01*
X151629463Y-90821882D01*
X151716535Y-90895453D01*
X151717115Y-90896538D01*
X151796467Y-90993229D01*
X152185375Y-91382137D01*
X152217194Y-91408250D01*
X152185375Y-91434363D01*
X151796467Y-91823271D01*
X151717115Y-91919962D01*
X151716860Y-91920440D01*
X151716380Y-91920696D01*
X151619689Y-92000048D01*
X151230781Y-92388956D01*
X151151429Y-92485647D01*
X151151173Y-92486125D01*
X151150695Y-92486381D01*
X151054004Y-92565733D01*
X150665096Y-92954641D01*
X150585744Y-93051332D01*
X150585488Y-93051812D01*
X150585010Y-93052067D01*
X150488319Y-93131419D01*
X150099411Y-93520327D01*
X150020059Y-93617018D01*
X150019804Y-93617496D01*
X150019324Y-93617752D01*
X149922633Y-93697104D01*
X149533725Y-94086012D01*
X149454373Y-94182703D01*
X149454117Y-94183183D01*
X149453639Y-94183438D01*
X149356948Y-94262790D01*
X148968040Y-94651698D01*
X148888688Y-94748389D01*
X148888433Y-94748867D01*
X148887953Y-94749123D01*
X148791262Y-94828475D01*
X148402354Y-95217383D01*
X148323002Y-95314074D01*
X148322746Y-95314554D01*
X148322268Y-95314809D01*
X148225577Y-95394161D01*
X147836669Y-95783069D01*
X147757317Y-95879760D01*
X147757062Y-95880238D01*
X147756582Y-95880494D01*
X147659891Y-95959846D01*
X147270983Y-96348754D01*
X147191631Y-96445445D01*
X147191375Y-96445923D01*
X147190897Y-96446179D01*
X147094206Y-96525531D01*
X146705298Y-96914439D01*
X146625946Y-97011130D01*
X146625364Y-97012218D01*
X146538295Y-97085787D01*
X146538295Y-97216009D01*
X146530671Y-97241142D01*
X146518411Y-97365624D01*
X146530671Y-97490106D01*
X146566981Y-97609804D01*
X146625946Y-97720118D01*
X146705298Y-97816809D01*
X147339574Y-98451085D01*
X147329725Y-98460934D01*
X147315582Y-98446791D01*
X146874171Y-98888203D01*
X146874171Y-99112709D01*
X147198006Y-99440878D01*
X147204320Y-99446113D01*
X147185155Y-99465870D01*
X147185155Y-99690376D01*
X147927087Y-100432308D01*
X147941230Y-100418166D01*
X148120835Y-100597771D01*
X148106692Y-100611913D01*
X148848624Y-101353845D01*
X149073130Y-101353845D01*
X149217961Y-101213358D01*
X149297314Y-101116667D01*
X149356278Y-101006353D01*
X149359220Y-100996653D01*
X149697022Y-101334455D01*
X148368118Y-102663360D01*
X148361665Y-102666809D01*
X148267466Y-102744116D01*
X148267463Y-102744119D01*
X148235967Y-102769967D01*
X148210119Y-102801463D01*
X146617584Y-104394000D01*
X140301418Y-104394000D01*
X140417976Y-104298343D01*
X140762691Y-103953628D01*
X140872357Y-103820000D01*
X140953846Y-103667545D01*
X141004027Y-103502121D01*
X141020971Y-103330086D01*
X141020165Y-103321903D01*
X141120260Y-103331761D01*
X141244741Y-103319501D01*
X141364440Y-103283191D01*
X141474754Y-103224227D01*
X141571445Y-103144874D01*
X141711932Y-103000043D01*
X141711932Y-102775537D01*
X140970000Y-102033605D01*
X140955858Y-102047748D01*
X140776253Y-101868143D01*
X140790395Y-101854000D01*
X141149605Y-101854000D01*
X141891537Y-102595932D01*
X142116043Y-102595932D01*
X142260874Y-102455445D01*
X142340227Y-102358754D01*
X142399191Y-102248440D01*
X142435501Y-102128741D01*
X142447761Y-102004260D01*
X142435501Y-101879779D01*
X142399191Y-101760081D01*
X142340227Y-101649766D01*
X142260874Y-101553075D01*
X142088451Y-101383190D01*
X147335415Y-101383190D01*
X147335415Y-101607696D01*
X147626162Y-101902787D01*
X147722853Y-101982140D01*
X147833168Y-102041104D01*
X147952866Y-102077414D01*
X148077347Y-102089674D01*
X148201828Y-102077414D01*
X148321527Y-102041104D01*
X148431841Y-101982140D01*
X148528532Y-101902787D01*
X148669019Y-101757956D01*
X148669019Y-101533450D01*
X147927087Y-100791518D01*
X147335415Y-101383190D01*
X142088451Y-101383190D01*
X141965783Y-101262328D01*
X141741277Y-101262328D01*
X141149605Y-101854000D01*
X140790395Y-101854000D01*
X140048463Y-101112068D01*
X139823957Y-101112068D01*
X139679126Y-101252555D01*
X139599773Y-101349246D01*
X139540809Y-101459560D01*
X139504499Y-101579259D01*
X139492239Y-101703740D01*
X139502097Y-101803835D01*
X139493914Y-101803029D01*
X139321879Y-101819973D01*
X139156455Y-101870154D01*
X139156256Y-101870260D01*
X138927349Y-101641354D01*
X139860746Y-100707957D01*
X140228068Y-100707957D01*
X140228068Y-100932463D01*
X140970000Y-101674395D01*
X141561672Y-101082723D01*
X141561672Y-100858217D01*
X141270925Y-100563126D01*
X141174234Y-100483773D01*
X141132850Y-100461653D01*
X146449326Y-100461653D01*
X146461586Y-100586134D01*
X146497896Y-100705832D01*
X146556860Y-100816147D01*
X146636213Y-100912838D01*
X146931304Y-101203585D01*
X147155810Y-101203585D01*
X147747482Y-100611913D01*
X147005550Y-99869981D01*
X146781044Y-99869981D01*
X146636213Y-100010468D01*
X146556860Y-100107159D01*
X146497896Y-100217473D01*
X146461586Y-100337172D01*
X146449326Y-100461653D01*
X141132850Y-100461653D01*
X141063919Y-100424809D01*
X140944221Y-100388499D01*
X140819740Y-100376239D01*
X140695259Y-100388499D01*
X140575560Y-100424809D01*
X140465246Y-100483773D01*
X140368555Y-100563126D01*
X140228068Y-100707957D01*
X139860746Y-100707957D01*
X140508454Y-100060249D01*
X140537529Y-100036388D01*
X140612818Y-99944648D01*
X140632752Y-99920359D01*
X140685325Y-99822000D01*
X140703509Y-99787981D01*
X140747081Y-99644344D01*
X140758107Y-99532392D01*
X140758107Y-99532389D01*
X140761793Y-99494966D01*
X140758107Y-99457543D01*
X140758107Y-99079000D01*
X140817939Y-99079000D01*
X141017898Y-99039226D01*
X141206256Y-98961205D01*
X141375774Y-98847937D01*
X141519937Y-98703774D01*
X141633205Y-98534256D01*
X141711226Y-98345898D01*
X141751000Y-98145939D01*
X141751000Y-98086630D01*
X142259416Y-97578214D01*
X142427301Y-97746099D01*
X142523992Y-97825451D01*
X142524472Y-97825707D01*
X142524727Y-97826185D01*
X142604079Y-97922876D01*
X142992987Y-98311784D01*
X143089678Y-98391136D01*
X143090156Y-98391392D01*
X143090412Y-98391870D01*
X143169764Y-98488561D01*
X143558672Y-98877469D01*
X143655363Y-98956821D01*
X143655841Y-98957076D01*
X143656097Y-98957556D01*
X143735449Y-99054247D01*
X144124357Y-99443155D01*
X144221048Y-99522507D01*
X144331362Y-99581472D01*
X144451060Y-99617782D01*
X144575542Y-99630042D01*
X144700024Y-99617782D01*
X144819722Y-99581472D01*
X144930036Y-99522507D01*
X145026727Y-99443155D01*
X146087387Y-98382495D01*
X146113564Y-98350598D01*
X146141890Y-98384762D01*
X146470059Y-98708597D01*
X146694565Y-98708597D01*
X147135977Y-98267186D01*
X146358690Y-97489899D01*
X146134183Y-97489899D01*
X146114513Y-97513178D01*
X146087387Y-97480125D01*
X145698479Y-97091217D01*
X145601788Y-97011865D01*
X145601310Y-97011610D01*
X145601054Y-97011130D01*
X145521702Y-96914439D01*
X145132794Y-96525531D01*
X145036103Y-96446179D01*
X145035625Y-96445923D01*
X145035369Y-96445445D01*
X144956017Y-96348754D01*
X144567109Y-95959846D01*
X144470418Y-95880494D01*
X144469938Y-95880238D01*
X144469683Y-95879760D01*
X144390331Y-95783069D01*
X144001423Y-95394161D01*
X143904732Y-95314809D01*
X143904254Y-95314554D01*
X143903998Y-95314074D01*
X143824646Y-95217383D01*
X143435738Y-94828475D01*
X143339047Y-94749123D01*
X143338567Y-94748867D01*
X143338312Y-94748389D01*
X143258960Y-94651698D01*
X142870052Y-94262790D01*
X142773361Y-94183438D01*
X142772883Y-94183183D01*
X142772627Y-94182703D01*
X142693275Y-94086012D01*
X142304367Y-93697104D01*
X142207676Y-93617752D01*
X142206588Y-93617170D01*
X142133019Y-93530101D01*
X142002797Y-93530101D01*
X141977664Y-93522477D01*
X141853182Y-93510217D01*
X141737387Y-93521621D01*
X141748791Y-93405826D01*
X141736531Y-93281344D01*
X141728907Y-93256211D01*
X141728907Y-93125989D01*
X141641838Y-93052420D01*
X141641256Y-93051332D01*
X141561904Y-92954641D01*
X141172996Y-92565733D01*
X141076305Y-92486381D01*
X141075827Y-92486125D01*
X141075571Y-92485647D01*
X140996219Y-92388956D01*
X140607311Y-92000048D01*
X140510620Y-91920696D01*
X140510140Y-91920440D01*
X140509885Y-91919962D01*
X140430533Y-91823271D01*
X140041625Y-91434363D01*
X140009806Y-91408250D01*
X140041625Y-91382137D01*
X140430533Y-90993229D01*
X140509885Y-90896538D01*
X140510140Y-90896060D01*
X140510620Y-90895804D01*
X140607311Y-90816452D01*
X140996219Y-90427544D01*
X141075571Y-90330853D01*
X141075827Y-90330375D01*
X141076305Y-90330119D01*
X141172996Y-90250767D01*
X141561904Y-89861859D01*
X141641256Y-89765168D01*
X141641512Y-89764688D01*
X141641990Y-89764433D01*
X141738681Y-89685081D01*
X142127589Y-89296173D01*
X142206941Y-89199482D01*
X142207196Y-89199004D01*
X142207676Y-89198748D01*
X142304367Y-89119396D01*
X142693275Y-88730488D01*
X142772627Y-88633797D01*
X142772883Y-88633317D01*
X142773361Y-88633062D01*
X142870052Y-88553710D01*
X143258960Y-88164802D01*
X143338312Y-88068111D01*
X143338892Y-88067026D01*
X143425964Y-87993455D01*
X143425964Y-87863229D01*
X143433587Y-87838099D01*
X143445847Y-87713617D01*
X143434443Y-87597822D01*
X143550238Y-87609226D01*
X143674720Y-87596966D01*
X143699850Y-87589343D01*
X143830076Y-87589343D01*
X143903647Y-87502271D01*
X143904732Y-87501691D01*
X144001423Y-87422339D01*
X144390331Y-87033431D01*
X144469683Y-86936740D01*
X144469938Y-86936262D01*
X144470418Y-86936006D01*
X144567109Y-86856654D01*
X144956017Y-86467746D01*
X145035369Y-86371055D01*
X145035625Y-86370577D01*
X145036103Y-86370321D01*
X145132794Y-86290969D01*
X145521702Y-85902061D01*
X145601054Y-85805370D01*
X145601310Y-85804890D01*
X145601788Y-85804635D01*
X145698479Y-85725283D01*
X146087387Y-85336375D01*
X146113500Y-85304556D01*
X146139613Y-85336375D01*
G37*
X146139613Y-85336375D02*
X146528521Y-85725283D01*
X146625212Y-85804635D01*
X146626297Y-85805215D01*
X146699868Y-85892287D01*
X146830094Y-85892287D01*
X146855224Y-85899910D01*
X146979706Y-85912170D01*
X147095500Y-85900766D01*
X147084096Y-86016561D01*
X147096356Y-86141043D01*
X147103980Y-86166176D01*
X147103980Y-86296399D01*
X147191050Y-86369968D01*
X147191631Y-86371055D01*
X147270983Y-86467746D01*
X147659891Y-86856654D01*
X147756582Y-86936006D01*
X147757062Y-86936262D01*
X147757317Y-86936740D01*
X147836669Y-87033431D01*
X148225577Y-87422339D01*
X148322268Y-87501691D01*
X148322746Y-87501946D01*
X148323002Y-87502426D01*
X148402354Y-87599117D01*
X148791262Y-87988025D01*
X148887953Y-88067377D01*
X148888433Y-88067633D01*
X148888688Y-88068111D01*
X148968040Y-88164802D01*
X149356948Y-88553710D01*
X149453639Y-88633062D01*
X149454117Y-88633317D01*
X149454373Y-88633797D01*
X149533725Y-88730488D01*
X149922633Y-89119396D01*
X150019324Y-89198748D01*
X150019804Y-89199004D01*
X150020059Y-89199482D01*
X150099411Y-89296173D01*
X150488319Y-89685081D01*
X150585010Y-89764433D01*
X150585488Y-89764688D01*
X150585744Y-89765168D01*
X150665096Y-89861859D01*
X151054004Y-90250767D01*
X151150695Y-90330119D01*
X151151782Y-90330700D01*
X151225351Y-90417770D01*
X151355574Y-90417770D01*
X151380707Y-90425394D01*
X151505189Y-90437654D01*
X151620984Y-90426250D01*
X151609580Y-90542044D01*
X151621840Y-90666526D01*
X151629463Y-90691656D01*
X151629463Y-90821882D01*
X151716535Y-90895453D01*
X151717115Y-90896538D01*
X151796467Y-90993229D01*
X152185375Y-91382137D01*
X152217194Y-91408250D01*
X152185375Y-91434363D01*
X151796467Y-91823271D01*
X151717115Y-91919962D01*
X151716860Y-91920440D01*
X151716380Y-91920696D01*
X151619689Y-92000048D01*
X151230781Y-92388956D01*
X151151429Y-92485647D01*
X151151173Y-92486125D01*
X151150695Y-92486381D01*
X151054004Y-92565733D01*
X150665096Y-92954641D01*
X150585744Y-93051332D01*
X150585488Y-93051812D01*
X150585010Y-93052067D01*
X150488319Y-93131419D01*
X150099411Y-93520327D01*
X150020059Y-93617018D01*
X150019804Y-93617496D01*
X150019324Y-93617752D01*
X149922633Y-93697104D01*
X149533725Y-94086012D01*
X149454373Y-94182703D01*
X149454117Y-94183183D01*
X149453639Y-94183438D01*
X149356948Y-94262790D01*
X148968040Y-94651698D01*
X148888688Y-94748389D01*
X148888433Y-94748867D01*
X148887953Y-94749123D01*
X148791262Y-94828475D01*
X148402354Y-95217383D01*
X148323002Y-95314074D01*
X148322746Y-95314554D01*
X148322268Y-95314809D01*
X148225577Y-95394161D01*
X147836669Y-95783069D01*
X147757317Y-95879760D01*
X147757062Y-95880238D01*
X147756582Y-95880494D01*
X147659891Y-95959846D01*
X147270983Y-96348754D01*
X147191631Y-96445445D01*
X147191375Y-96445923D01*
X147190897Y-96446179D01*
X147094206Y-96525531D01*
X146705298Y-96914439D01*
X146625946Y-97011130D01*
X146625364Y-97012218D01*
X146538295Y-97085787D01*
X146538295Y-97216009D01*
X146530671Y-97241142D01*
X146518411Y-97365624D01*
X146530671Y-97490106D01*
X146566981Y-97609804D01*
X146625946Y-97720118D01*
X146705298Y-97816809D01*
X147339574Y-98451085D01*
X147329725Y-98460934D01*
X147315582Y-98446791D01*
X146874171Y-98888203D01*
X146874171Y-99112709D01*
X147198006Y-99440878D01*
X147204320Y-99446113D01*
X147185155Y-99465870D01*
X147185155Y-99690376D01*
X147927087Y-100432308D01*
X147941230Y-100418166D01*
X148120835Y-100597771D01*
X148106692Y-100611913D01*
X148848624Y-101353845D01*
X149073130Y-101353845D01*
X149217961Y-101213358D01*
X149297314Y-101116667D01*
X149356278Y-101006353D01*
X149359220Y-100996653D01*
X149697022Y-101334455D01*
X148368118Y-102663360D01*
X148361665Y-102666809D01*
X148267466Y-102744116D01*
X148267463Y-102744119D01*
X148235967Y-102769967D01*
X148210119Y-102801463D01*
X146617584Y-104394000D01*
X140301418Y-104394000D01*
X140417976Y-104298343D01*
X140762691Y-103953628D01*
X140872357Y-103820000D01*
X140953846Y-103667545D01*
X141004027Y-103502121D01*
X141020971Y-103330086D01*
X141020165Y-103321903D01*
X141120260Y-103331761D01*
X141244741Y-103319501D01*
X141364440Y-103283191D01*
X141474754Y-103224227D01*
X141571445Y-103144874D01*
X141711932Y-103000043D01*
X141711932Y-102775537D01*
X140970000Y-102033605D01*
X140955858Y-102047748D01*
X140776253Y-101868143D01*
X140790395Y-101854000D01*
X141149605Y-101854000D01*
X141891537Y-102595932D01*
X142116043Y-102595932D01*
X142260874Y-102455445D01*
X142340227Y-102358754D01*
X142399191Y-102248440D01*
X142435501Y-102128741D01*
X142447761Y-102004260D01*
X142435501Y-101879779D01*
X142399191Y-101760081D01*
X142340227Y-101649766D01*
X142260874Y-101553075D01*
X142088451Y-101383190D01*
X147335415Y-101383190D01*
X147335415Y-101607696D01*
X147626162Y-101902787D01*
X147722853Y-101982140D01*
X147833168Y-102041104D01*
X147952866Y-102077414D01*
X148077347Y-102089674D01*
X148201828Y-102077414D01*
X148321527Y-102041104D01*
X148431841Y-101982140D01*
X148528532Y-101902787D01*
X148669019Y-101757956D01*
X148669019Y-101533450D01*
X147927087Y-100791518D01*
X147335415Y-101383190D01*
X142088451Y-101383190D01*
X141965783Y-101262328D01*
X141741277Y-101262328D01*
X141149605Y-101854000D01*
X140790395Y-101854000D01*
X140048463Y-101112068D01*
X139823957Y-101112068D01*
X139679126Y-101252555D01*
X139599773Y-101349246D01*
X139540809Y-101459560D01*
X139504499Y-101579259D01*
X139492239Y-101703740D01*
X139502097Y-101803835D01*
X139493914Y-101803029D01*
X139321879Y-101819973D01*
X139156455Y-101870154D01*
X139156256Y-101870260D01*
X138927349Y-101641354D01*
X139860746Y-100707957D01*
X140228068Y-100707957D01*
X140228068Y-100932463D01*
X140970000Y-101674395D01*
X141561672Y-101082723D01*
X141561672Y-100858217D01*
X141270925Y-100563126D01*
X141174234Y-100483773D01*
X141132850Y-100461653D01*
X146449326Y-100461653D01*
X146461586Y-100586134D01*
X146497896Y-100705832D01*
X146556860Y-100816147D01*
X146636213Y-100912838D01*
X146931304Y-101203585D01*
X147155810Y-101203585D01*
X147747482Y-100611913D01*
X147005550Y-99869981D01*
X146781044Y-99869981D01*
X146636213Y-100010468D01*
X146556860Y-100107159D01*
X146497896Y-100217473D01*
X146461586Y-100337172D01*
X146449326Y-100461653D01*
X141132850Y-100461653D01*
X141063919Y-100424809D01*
X140944221Y-100388499D01*
X140819740Y-100376239D01*
X140695259Y-100388499D01*
X140575560Y-100424809D01*
X140465246Y-100483773D01*
X140368555Y-100563126D01*
X140228068Y-100707957D01*
X139860746Y-100707957D01*
X140508454Y-100060249D01*
X140537529Y-100036388D01*
X140612818Y-99944648D01*
X140632752Y-99920359D01*
X140685325Y-99822000D01*
X140703509Y-99787981D01*
X140747081Y-99644344D01*
X140758107Y-99532392D01*
X140758107Y-99532389D01*
X140761793Y-99494966D01*
X140758107Y-99457543D01*
X140758107Y-99079000D01*
X140817939Y-99079000D01*
X141017898Y-99039226D01*
X141206256Y-98961205D01*
X141375774Y-98847937D01*
X141519937Y-98703774D01*
X141633205Y-98534256D01*
X141711226Y-98345898D01*
X141751000Y-98145939D01*
X141751000Y-98086630D01*
X142259416Y-97578214D01*
X142427301Y-97746099D01*
X142523992Y-97825451D01*
X142524472Y-97825707D01*
X142524727Y-97826185D01*
X142604079Y-97922876D01*
X142992987Y-98311784D01*
X143089678Y-98391136D01*
X143090156Y-98391392D01*
X143090412Y-98391870D01*
X143169764Y-98488561D01*
X143558672Y-98877469D01*
X143655363Y-98956821D01*
X143655841Y-98957076D01*
X143656097Y-98957556D01*
X143735449Y-99054247D01*
X144124357Y-99443155D01*
X144221048Y-99522507D01*
X144331362Y-99581472D01*
X144451060Y-99617782D01*
X144575542Y-99630042D01*
X144700024Y-99617782D01*
X144819722Y-99581472D01*
X144930036Y-99522507D01*
X145026727Y-99443155D01*
X146087387Y-98382495D01*
X146113564Y-98350598D01*
X146141890Y-98384762D01*
X146470059Y-98708597D01*
X146694565Y-98708597D01*
X147135977Y-98267186D01*
X146358690Y-97489899D01*
X146134183Y-97489899D01*
X146114513Y-97513178D01*
X146087387Y-97480125D01*
X145698479Y-97091217D01*
X145601788Y-97011865D01*
X145601310Y-97011610D01*
X145601054Y-97011130D01*
X145521702Y-96914439D01*
X145132794Y-96525531D01*
X145036103Y-96446179D01*
X145035625Y-96445923D01*
X145035369Y-96445445D01*
X144956017Y-96348754D01*
X144567109Y-95959846D01*
X144470418Y-95880494D01*
X144469938Y-95880238D01*
X144469683Y-95879760D01*
X144390331Y-95783069D01*
X144001423Y-95394161D01*
X143904732Y-95314809D01*
X143904254Y-95314554D01*
X143903998Y-95314074D01*
X143824646Y-95217383D01*
X143435738Y-94828475D01*
X143339047Y-94749123D01*
X143338567Y-94748867D01*
X143338312Y-94748389D01*
X143258960Y-94651698D01*
X142870052Y-94262790D01*
X142773361Y-94183438D01*
X142772883Y-94183183D01*
X142772627Y-94182703D01*
X142693275Y-94086012D01*
X142304367Y-93697104D01*
X142207676Y-93617752D01*
X142206588Y-93617170D01*
X142133019Y-93530101D01*
X142002797Y-93530101D01*
X141977664Y-93522477D01*
X141853182Y-93510217D01*
X141737387Y-93521621D01*
X141748791Y-93405826D01*
X141736531Y-93281344D01*
X141728907Y-93256211D01*
X141728907Y-93125989D01*
X141641838Y-93052420D01*
X141641256Y-93051332D01*
X141561904Y-92954641D01*
X141172996Y-92565733D01*
X141076305Y-92486381D01*
X141075827Y-92486125D01*
X141075571Y-92485647D01*
X140996219Y-92388956D01*
X140607311Y-92000048D01*
X140510620Y-91920696D01*
X140510140Y-91920440D01*
X140509885Y-91919962D01*
X140430533Y-91823271D01*
X140041625Y-91434363D01*
X140009806Y-91408250D01*
X140041625Y-91382137D01*
X140430533Y-90993229D01*
X140509885Y-90896538D01*
X140510140Y-90896060D01*
X140510620Y-90895804D01*
X140607311Y-90816452D01*
X140996219Y-90427544D01*
X141075571Y-90330853D01*
X141075827Y-90330375D01*
X141076305Y-90330119D01*
X141172996Y-90250767D01*
X141561904Y-89861859D01*
X141641256Y-89765168D01*
X141641512Y-89764688D01*
X141641990Y-89764433D01*
X141738681Y-89685081D01*
X142127589Y-89296173D01*
X142206941Y-89199482D01*
X142207196Y-89199004D01*
X142207676Y-89198748D01*
X142304367Y-89119396D01*
X142693275Y-88730488D01*
X142772627Y-88633797D01*
X142772883Y-88633317D01*
X142773361Y-88633062D01*
X142870052Y-88553710D01*
X143258960Y-88164802D01*
X143338312Y-88068111D01*
X143338892Y-88067026D01*
X143425964Y-87993455D01*
X143425964Y-87863229D01*
X143433587Y-87838099D01*
X143445847Y-87713617D01*
X143434443Y-87597822D01*
X143550238Y-87609226D01*
X143674720Y-87596966D01*
X143699850Y-87589343D01*
X143830076Y-87589343D01*
X143903647Y-87502271D01*
X143904732Y-87501691D01*
X144001423Y-87422339D01*
X144390331Y-87033431D01*
X144469683Y-86936740D01*
X144469938Y-86936262D01*
X144470418Y-86936006D01*
X144567109Y-86856654D01*
X144956017Y-86467746D01*
X145035369Y-86371055D01*
X145035625Y-86370577D01*
X145036103Y-86370321D01*
X145132794Y-86290969D01*
X145521702Y-85902061D01*
X145601054Y-85805370D01*
X145601310Y-85804890D01*
X145601788Y-85804635D01*
X145698479Y-85725283D01*
X146087387Y-85336375D01*
X146113500Y-85304556D01*
X146139613Y-85336375D01*
G36*
X138943606Y-99416081D02*
G01*
X138929463Y-99430223D01*
X138943606Y-99444366D01*
X138764001Y-99623971D01*
X138749858Y-99609828D01*
X138735716Y-99623971D01*
X138556111Y-99444366D01*
X138570253Y-99430223D01*
X138556111Y-99416081D01*
X138735716Y-99236476D01*
X138749858Y-99250618D01*
X138764001Y-99236476D01*
X138943606Y-99416081D01*
G37*
X138943606Y-99416081D02*
X138929463Y-99430223D01*
X138943606Y-99444366D01*
X138764001Y-99623971D01*
X138749858Y-99609828D01*
X138735716Y-99623971D01*
X138556111Y-99444366D01*
X138570253Y-99430223D01*
X138556111Y-99416081D01*
X138735716Y-99236476D01*
X138749858Y-99250618D01*
X138764001Y-99236476D01*
X138943606Y-99416081D01*
G36*
X137734748Y-95235858D02*
G01*
X137720605Y-95250000D01*
X138312277Y-95841672D01*
X138536783Y-95841672D01*
X138831874Y-95550925D01*
X138911227Y-95454234D01*
X138970191Y-95343919D01*
X139006501Y-95224221D01*
X139017080Y-95116811D01*
X139795776Y-95116811D01*
X139836326Y-95120805D01*
X139876876Y-95116811D01*
X139876879Y-95116811D01*
X139998152Y-95104867D01*
X140011643Y-95100775D01*
X140050059Y-95104558D01*
X140165854Y-95093154D01*
X140154450Y-95208949D01*
X140166710Y-95333431D01*
X140174333Y-95358561D01*
X140174333Y-95372483D01*
X138379386Y-97167431D01*
X138069673Y-96857718D01*
X137972982Y-96778366D01*
X137862668Y-96719401D01*
X137742970Y-96683091D01*
X137645570Y-96673498D01*
X137745234Y-96620227D01*
X137841925Y-96540874D01*
X138132672Y-96245783D01*
X138132672Y-96021277D01*
X137541000Y-95429605D01*
X136799068Y-96171537D01*
X136799068Y-96396043D01*
X136939555Y-96540874D01*
X137036246Y-96620227D01*
X137146560Y-96679191D01*
X137266259Y-96715501D01*
X137363658Y-96725094D01*
X137263994Y-96778366D01*
X137167303Y-96857718D01*
X136982326Y-97042696D01*
X136618446Y-96678816D01*
X136631797Y-96543260D01*
X136614853Y-96371225D01*
X136564672Y-96205801D01*
X136483183Y-96053346D01*
X136432782Y-95991932D01*
X136619463Y-95991932D01*
X137361395Y-95250000D01*
X137347253Y-95235858D01*
X137526858Y-95056253D01*
X137541000Y-95070395D01*
X137555143Y-95056253D01*
X137734748Y-95235858D01*
G37*
X137734748Y-95235858D02*
X137720605Y-95250000D01*
X138312277Y-95841672D01*
X138536783Y-95841672D01*
X138831874Y-95550925D01*
X138911227Y-95454234D01*
X138970191Y-95343919D01*
X139006501Y-95224221D01*
X139017080Y-95116811D01*
X139795776Y-95116811D01*
X139836326Y-95120805D01*
X139876876Y-95116811D01*
X139876879Y-95116811D01*
X139998152Y-95104867D01*
X140011643Y-95100775D01*
X140050059Y-95104558D01*
X140165854Y-95093154D01*
X140154450Y-95208949D01*
X140166710Y-95333431D01*
X140174333Y-95358561D01*
X140174333Y-95372483D01*
X138379386Y-97167431D01*
X138069673Y-96857718D01*
X137972982Y-96778366D01*
X137862668Y-96719401D01*
X137742970Y-96683091D01*
X137645570Y-96673498D01*
X137745234Y-96620227D01*
X137841925Y-96540874D01*
X138132672Y-96245783D01*
X138132672Y-96021277D01*
X137541000Y-95429605D01*
X136799068Y-96171537D01*
X136799068Y-96396043D01*
X136939555Y-96540874D01*
X137036246Y-96620227D01*
X137146560Y-96679191D01*
X137266259Y-96715501D01*
X137363658Y-96725094D01*
X137263994Y-96778366D01*
X137167303Y-96857718D01*
X136982326Y-97042696D01*
X136618446Y-96678816D01*
X136631797Y-96543260D01*
X136614853Y-96371225D01*
X136564672Y-96205801D01*
X136483183Y-96053346D01*
X136432782Y-95991932D01*
X136619463Y-95991932D01*
X137361395Y-95250000D01*
X137347253Y-95235858D01*
X137526858Y-95056253D01*
X137541000Y-95070395D01*
X137555143Y-95056253D01*
X137734748Y-95235858D01*
G36*
X141858158Y-85680684D02*
G01*
X141871390Y-85696808D01*
X141871390Y-85760879D01*
X141863766Y-85786012D01*
X141851506Y-85910494D01*
X141862910Y-86026289D01*
X141803299Y-86020418D01*
X141526880Y-85744000D01*
X141579939Y-85744000D01*
X141779898Y-85704226D01*
X141852722Y-85674061D01*
X141858158Y-85680684D01*
G37*
X141858158Y-85680684D02*
X141871390Y-85696808D01*
X141871390Y-85760879D01*
X141863766Y-85786012D01*
X141851506Y-85910494D01*
X141862910Y-86026289D01*
X141803299Y-86020418D01*
X141526880Y-85744000D01*
X141579939Y-85744000D01*
X141779898Y-85704226D01*
X141852722Y-85674061D01*
X141858158Y-85680684D01*
G36*
X138958068Y-83406463D02*
G01*
X139700000Y-84148395D01*
X139714143Y-84134253D01*
X139893748Y-84313858D01*
X139879605Y-84328000D01*
X139893748Y-84342143D01*
X139714143Y-84521748D01*
X139700000Y-84507605D01*
X139685858Y-84521748D01*
X139506253Y-84342143D01*
X139520395Y-84328000D01*
X138778463Y-83586068D01*
X138709872Y-83586068D01*
X138622533Y-83498729D01*
X138635884Y-83363173D01*
X138635078Y-83354990D01*
X138735173Y-83364848D01*
X138859654Y-83352588D01*
X138958068Y-83322735D01*
X138958068Y-83406463D01*
G37*
X138958068Y-83406463D02*
X139700000Y-84148395D01*
X139714143Y-84134253D01*
X139893748Y-84313858D01*
X139879605Y-84328000D01*
X139893748Y-84342143D01*
X139714143Y-84521748D01*
X139700000Y-84507605D01*
X139685858Y-84521748D01*
X139506253Y-84342143D01*
X139520395Y-84328000D01*
X138778463Y-83586068D01*
X138709872Y-83586068D01*
X138622533Y-83498729D01*
X138635884Y-83363173D01*
X138635078Y-83354990D01*
X138735173Y-83364848D01*
X138859654Y-83352588D01*
X138958068Y-83322735D01*
X138958068Y-83406463D01*
M02*
