M48
; DRILL file {KiCad (5.1.5)-3} date 5/25/2020 21:19:59
; FORMAT={-:-/ absolute / inch / decimal}
; #@! TF.CreationDate,2020-05-25T21:19:59-04:00
; #@! TF.GenerationSoftware,Kicad,Pcbnew,(5.1.5)-3
; #@! TF.FileFunction,NonPlated,1,2,NPTH
FMAT,2
INCH
T1C0.0689
T2C0.1200
T3C0.1570
%
G90
G05
T1
X4.3937Y-3.0938
X4.7938Y-3.0938
X2.8937Y-5.3438
X3.2937Y-5.3438
X10.3937Y-3.8438
X10.7937Y-3.8438
X4.3937Y-5.3438
X4.7938Y-5.3438
X2.8937Y-3.0938
X3.2937Y-3.0938
X8.8937Y-3.0938
X9.2937Y-3.0938
X6.6437Y-5.3438
X7.0438Y-5.3438
X8.1437Y-3.8438
X8.5437Y-3.8438
X0.6437Y-6.0938
X1.0437Y-6.0938
X2.8937Y-6.0938
X3.2937Y-6.0938
X6.6437Y-3.0938
X7.0438Y-3.0938
X8.1437Y-3.0938
X8.5437Y-3.0938
X7.3937Y-6.0938
X7.7938Y-6.0938
X1.3938Y-4.5938
X1.7937Y-4.5938
X8.1437Y-6.0938
X8.5437Y-6.0938
X1.3938Y-5.3438
X1.7937Y-5.3438
X1.3938Y-3.0938
X1.7937Y-3.0938
X10.3937Y-6.0938
X10.7937Y-6.0938
X3.6437Y-3.0938
X4.0438Y-3.0938
X10.3937Y-5.3438
X10.7937Y-5.3438
X2.1437Y-3.8438
X2.5437Y-3.8438
X8.8937Y-6.0938
X9.2937Y-6.0938
X7.3937Y-3.0938
X7.7938Y-3.0938
X4.7687Y-6.0938
X5.1688Y-6.0938
X0.6437Y-4.5938
X1.0437Y-4.5938
X9.6437Y-3.8438
X10.0437Y-3.8438
X3.6437Y-5.3438
X4.0438Y-5.3438
X6.2687Y-6.0938
X6.6688Y-6.0938
X2.1437Y-4.5938
X2.5437Y-4.5938
X8.1437Y-4.5938
X8.5437Y-4.5938
X7.3937Y-3.8438
X7.7938Y-3.8438
X0.6437Y-3.0938
X1.0437Y-3.0938
X0.6437Y-3.8438
X1.0437Y-3.8438
X9.6437Y-4.5938
X10.0437Y-4.5938
X4.3937Y-4.5938
X4.7938Y-4.5938
X3.6437Y-3.8438
X4.0438Y-3.8438
X2.1437Y-6.0938
X2.5437Y-6.0938
X8.1437Y-5.3438
X8.5437Y-5.3438
X7.3937Y-4.5938
X7.7938Y-4.5938
X1.3938Y-6.0938
X1.7937Y-6.0938
X0.6437Y-5.3438
X1.0437Y-5.3438
X10.3937Y-3.0938
X10.7937Y-3.0938
X2.8937Y-3.8438
X3.2937Y-3.8438
X9.6437Y-5.3438
X10.0437Y-5.3438
X3.6437Y-6.0938
X4.0438Y-6.0938
X2.1437Y-5.3438
X2.5437Y-5.3438
X8.8937Y-4.5938
X9.2937Y-4.5938
X6.6437Y-3.8438
X7.0438Y-3.8438
X8.8937Y-3.8438
X9.2937Y-3.8438
X1.3938Y-3.8438
X1.7937Y-3.8438
X9.6437Y-3.0938
X10.0437Y-3.0938
X10.3937Y-4.5938
X10.7937Y-4.5938
X2.8937Y-4.5938
X3.2937Y-4.5938
X9.6437Y-6.0938
X10.0437Y-6.0938
X4.3937Y-3.8438
X4.7938Y-3.8438
X3.6437Y-4.5938
X4.0438Y-4.5938
X7.3937Y-5.3438
X7.7938Y-5.3438
X6.6437Y-4.5938
X7.0438Y-4.5938
X8.8937Y-5.3438
X9.2937Y-5.3438
X2.1437Y-3.0938
X2.5437Y-3.0938
T2
X4.5Y-6.3687
X5.4375Y-6.3687
X6.0Y-6.3687
X6.9375Y-6.3687
T3
X10.5938Y-3.0938
X3.0938Y-3.8438
X9.8438Y-5.3438
X3.8438Y-6.0938
X2.3438Y-5.3438
X9.0938Y-4.5938
X6.8438Y-3.8438
X9.0938Y-3.8438
X1.5938Y-3.8438
X9.8438Y-3.0938
X10.5938Y-4.5938
X3.0938Y-4.5938
X9.8438Y-6.0938
X4.5938Y-3.8438
X3.8438Y-4.5938
X7.5938Y-5.3438
X6.8438Y-4.5938
X9.0938Y-5.3438
X2.3438Y-3.0938
X4.5938Y-3.0938
X3.0938Y-5.3438
X10.5938Y-3.8438
X4.5938Y-5.3438
X3.0938Y-3.0938
X9.0938Y-3.0938
X6.8438Y-5.3438
X8.3438Y-3.8438
X0.8438Y-6.0938
X3.0938Y-6.0938
X6.8438Y-3.0938
X8.3438Y-3.0938
X7.5938Y-6.0938
X1.5938Y-4.5938
X8.3438Y-6.0938
X1.5938Y-5.3438
X1.5938Y-3.0938
X10.5938Y-6.0938
X3.8438Y-3.0938
X10.5938Y-5.3438
X2.3438Y-3.8438
X9.0938Y-6.0938
X7.5938Y-3.0938
X4.5Y-5.7687
X4.9688Y-6.0938
X5.4375Y-5.7687
X0.8438Y-4.5938
X9.8438Y-3.8438
X3.8438Y-5.3438
X6.0Y-5.7687
X6.4688Y-6.0938
X6.9375Y-5.7687
X2.3438Y-4.5938
X8.3438Y-4.5938
X7.5938Y-3.8438
X0.8438Y-3.0938
X0.8438Y-3.8438
X9.8438Y-4.5938
X4.5938Y-4.5938
X3.8438Y-3.8438
X2.3438Y-6.0938
X8.3438Y-5.3438
X7.5938Y-4.5938
X1.5938Y-6.0938
X0.8438Y-5.3438
T0
M30
